<svg width="211" height="198" viewBox="0 0 211 198" fill="none" xmlns="http://www.w3.org/2000/svg">
<path fill-rule="evenodd" clip-rule="evenodd" d="M16.8207 147.211C18.1807 141.13 22.953 135.946 30.0564 130.532L2.04162 102.74C0.18517 101.395 0.507452 100.152 2.02725 98.9363L10.2286 94.5731C11.652 94.0801 13.054 94.0416 14.4016 94.7512L53.0911 110.429L94.5948 81.5652L28.1068 11.3963C26.3859 9.79656 26.5102 8.44632 28.8855 7.37193L42.1528 0.866331L137.735 52.0337L174.955 26.4988C186.988 19.9896 197.666 18.2484 204.79 21.7707C208.715 23.7151 209.906 25.2769 210.328 29.4559C211.131 37.6462 204.996 47.0586 193.526 55.6083L154.682 78.599L160.797 186.842L149.306 196.132C147.334 197.818 146.057 197.361 145.328 195.141L109.701 105.285L66.0365 130.741L63.947 172.434C64.0259 173.94 63.4152 175.199 62.3497 176.294L54.9364 181.892C53.2082 182.761 51.9299 182.526 51.493 180.276L38.0975 143.157C30.1609 147.325 23.448 149.468 17.3333 148.116C16.778 147.978 16.7006 147.755 16.8207 147.211Z" fill="#3E6897" fill-opacity="0.08"/>
</svg>
