<svg width="63" height="97" viewBox="0 0 63 97" fill="none" xmlns="http://www.w3.org/2000/svg">
<path d="M58.0351 14.0847L61.3957 1.20486H19.1054L15.7485 14.0847L16.8517 26.9681L13.4948 39.8479L14.598 52.7277L11.2411 65.6111H53.5277L56.8883 52.7277L55.7814 39.8479L59.142 26.9681L58.0351 14.0847Z" fill="#5E90C9"/>
<path opacity="0.7" d="M58.0351 14.0847L61.3957 1.20486H19.1054L15.7485 14.0847L16.8517 26.9681L13.4948 39.8479L14.598 52.7277L11.2411 65.6111H53.5277L56.8883 52.7277L55.7814 39.8479L59.142 26.9681L58.0351 14.0847Z" fill="white"/>
<path opacity="0.5" d="M58.0351 14.0847H15.7484L19.1054 1.20486H61.3957L58.0351 14.0847Z" fill="white"/>
<path opacity="0.5" d="M55.7814 39.8479H13.4947L16.8517 26.9681H59.142L55.7814 39.8479Z" fill="white"/>
<path opacity="0.5" d="M53.5277 65.6111H11.2411L14.598 52.7277H56.8883L53.5277 65.6111Z" fill="white"/>
<path opacity="0.2" d="M52.3773 19.4703C52.0144 19.5828 51.5499 19.6518 51.0418 19.6518C50.2942 19.6518 49.641 19.503 49.2672 19.2816C49.1655 19.2199 49.053 19.1909 48.9405 19.1909C48.8353 19.1909 48.7337 19.2199 48.6357 19.2743C48.6284 19.278 48.6212 19.278 48.6139 19.2852C48.6103 19.2888 48.6067 19.2888 48.5994 19.2925C48.4615 19.3723 48.2873 19.4449 48.0841 19.4993C47.7357 19.5973 47.3038 19.6554 46.8393 19.6554C46.7123 19.6554 46.5889 19.6518 46.4691 19.6445C46.1062 19.6191 45.7759 19.561 45.5037 19.4739C45.4566 19.4594 45.4094 19.4485 45.3622 19.4485C45.032 19.4268 44.738 19.6808 44.738 20.0292V20.4211H28.2944C27.0206 20.4211 25.9899 21.4518 25.9899 22.7256V25.0483C25.9899 26.3221 27.0206 27.3528 28.2944 27.3528H46.9953C47.0352 27.3528 47.0752 27.3491 47.1187 27.3455C47.3219 27.5125 47.5288 27.6794 47.7538 27.8463C48.0187 28.0496 48.3018 28.2528 48.5958 28.4669C48.799 28.6157 49.0821 28.6157 49.2853 28.4669C51.637 26.7612 53.1467 25.5854 53.1467 22.3518V20.0292C53.1431 19.6227 52.7584 19.3505 52.3773 19.4703Z" fill="black"/>
<path d="M46.6397 26.0644H27.9388C26.665 26.0644 25.6343 25.0338 25.6343 23.7599V21.4373C25.6343 20.1635 26.665 19.1328 27.9388 19.1328H46.6397C47.9136 19.1328 48.9442 20.1635 48.9442 21.4373V23.7599C48.9406 25.0338 47.9099 26.0644 46.6397 26.0644Z" fill="#5E90C9"/>
<path d="M50.6826 18.3707C49.935 18.3707 49.2817 18.2219 48.9079 18.0005C48.7011 17.8771 48.4579 17.8771 48.2547 18.0005C47.8809 18.2219 47.224 18.3707 46.48 18.3707C45.972 18.3707 45.5074 18.3017 45.1445 18.1892C44.7635 18.0695 44.3788 18.3453 44.3788 18.7408V21.0635C44.3788 24.297 45.8885 25.4729 48.2402 27.1786C48.4434 27.3274 48.7265 27.3274 48.9297 27.1786C51.2814 25.4729 52.7911 24.297 52.7911 21.0635V18.7408C52.7911 18.3416 52.4028 18.0695 52.0254 18.1892C51.6552 18.3054 51.1907 18.3707 50.6826 18.3707Z" fill="#5E90C9"/>
<path opacity="0.3" d="M50.6826 18.3707C49.935 18.3707 49.2817 18.2219 48.9079 18.0005C48.7011 17.8771 48.4579 17.8771 48.2547 18.0005C47.8809 18.2219 47.224 18.3707 46.48 18.3707C45.972 18.3707 45.5074 18.3017 45.1445 18.1892C44.7635 18.0695 44.3788 18.3453 44.3788 18.7408V21.0635C44.3788 24.297 45.8885 25.4729 48.2402 27.1786C48.4434 27.3274 48.7265 27.3274 48.9297 27.1786C51.2814 25.4729 52.7911 24.297 52.7911 21.0635V18.7408C52.7911 18.3416 52.4028 18.0695 52.0254 18.1892C51.6552 18.3054 51.1907 18.3707 50.6826 18.3707Z" fill="white"/>
<path opacity="0.2" d="M48.2547 18.0005C47.8809 18.2219 47.2241 18.3707 46.4801 18.3707C45.972 18.3707 45.5075 18.3017 45.1446 18.1892C44.7635 18.0695 44.3788 18.3453 44.3788 18.7408V21.0635C44.3788 24.297 45.8885 25.4729 48.2402 27.1786C48.3418 27.2512 48.4652 27.2911 48.585 27.2911V17.9098C48.4688 17.9098 48.3563 17.9424 48.2547 18.0005Z" fill="white"/>
<path d="M51.9528 20.432C50.4322 21.0599 49.133 21.978 48.2802 23.0196C47.685 22.5478 46.8684 22.2212 45.9103 22.0724L45.7978 22.0542V22.6095L45.8631 22.6313C46.8249 22.9833 47.6378 23.6075 48.2148 24.4386L48.3056 24.5692L48.3818 24.4277C49.2128 22.8781 50.5121 21.5788 52.0363 20.7695L52.0871 20.7405V20.3703L51.9528 20.432Z" fill="#263238"/>
<path d="M60.6481 4.82675H59.044C58.1549 4.82675 57.4944 4.10455 57.5742 3.21541L57.7158 1.61134C57.792 0.722198 58.5795 0 59.4686 0H61.0727C61.9619 0 62.6224 0.722198 62.5425 1.61134L62.401 3.21541C62.3211 4.10818 61.5372 4.82675 60.6481 4.82675Z" fill="#5E90C9"/>
<path d="M61.3159 1.60771L60.9675 1.22665L60.0893 2.03232L59.3562 1.22665L58.9388 1.60771L59.6756 2.41338L58.8009 3.21905L59.1493 3.60373L60.0239 2.79807L60.7607 3.60373L61.1744 3.21905L60.4377 2.41338L61.3159 1.60771Z" fill="white"/>
<path d="M24.7995 18.6683C25.7285 19.6808 26.6177 20.726 27.4959 21.7857C28.3742 22.8418 29.2307 23.916 30.0762 25.0011C30.1125 25.0483 30.098 25.0301 30.1089 25.0447C30.1125 25.0519 30.1125 25.0628 30.1198 25.0664C30.1307 25.0773 30.1343 25.0955 30.1452 25.1027C30.1633 25.1281 30.1851 25.1499 30.2105 25.1753C30.2613 25.2225 30.3339 25.2552 30.4101 25.2697C30.45 25.2769 30.49 25.2806 30.5335 25.2769C30.5553 25.2806 30.5771 25.2733 30.5988 25.2733C30.6097 25.2733 30.6206 25.266 30.6315 25.266C30.6497 25.2588 30.6388 25.2733 30.6896 25.2443L31.5969 24.7507C32.8162 24.1047 34.0465 23.4732 35.3167 22.9071L36.38 24.2245C35.3566 25.1681 34.2897 26.3439 33.2118 27.2076L32.3989 27.8464C32.3771 27.8645 32.29 27.9226 32.2356 27.9589C32.1739 27.9988 32.1122 28.0423 32.0469 28.0786C31.9162 28.1512 31.7819 28.2238 31.6404 28.2782C31.361 28.398 31.0634 28.4742 30.7622 28.5214C30.1561 28.6121 29.5282 28.5504 28.9403 28.3399C28.6464 28.2347 28.3633 28.0931 28.1056 27.9153C27.975 27.8282 27.8516 27.7302 27.7318 27.6286C27.6701 27.5778 27.6157 27.5234 27.5613 27.4689L27.4161 27.3238C26.4544 26.3403 25.5072 25.3459 24.5781 24.3297C23.649 23.3172 22.7309 22.2938 21.8526 21.2377L24.7995 18.6683Z" fill="#EAC1A4"/>
<path d="M34.8231 23.7091L35.6687 20.9909L37.897 22.1014C37.897 22.1014 37.574 24.0829 35.9518 24.4277L34.8231 23.7091Z" fill="#EAC1A4"/>
<path d="M36.5615 20.2397L38.572 20.7913L37.897 22.1014L35.6687 20.9909L36.5615 20.2397Z" fill="#EAC1A4"/>
<path d="M13.0847 19.4086C12.8415 20.5627 12.5475 21.7059 12.2354 22.8418C11.927 23.9813 11.5895 25.1136 11.2374 26.2387L11.1068 26.6633L11.0415 26.8738C11.0269 26.9209 11.0197 26.9318 11.0052 26.9609C10.9652 27.0661 10.9398 27.1859 10.9362 27.3056C10.9289 27.5488 10.987 27.8173 11.1467 28.0496C11.1612 28.0859 11.2846 28.2202 11.3826 28.3254L11.6838 28.652L12.279 29.3162C12.6709 29.7662 13.0592 30.2162 13.4294 30.688L12.1665 32.1505C11.6439 31.8529 11.1431 31.5336 10.6422 31.2106L9.89827 30.7206L9.53173 30.4702C9.40834 30.3831 9.30673 30.3251 9.10713 30.1581C8.41759 29.5738 7.90225 28.7428 7.71353 27.8173C7.61555 27.3564 7.59378 26.8774 7.64821 26.402C7.66273 26.2895 7.6845 26.1552 7.70265 26.0572L7.74257 25.8395L7.81878 25.404C8.02201 24.239 8.23976 23.0777 8.48291 21.9272C8.72607 20.7732 8.98373 19.6227 9.29584 18.4832L13.0847 19.4086Z" fill="#EAC1A4"/>
<path d="M12.1919 30.59L13.6908 29.8242L14.3513 32.3683C14.3513 32.3683 13.15 32.8292 12.221 32.2376L12.1919 30.59Z" fill="#EAC1A4"/>
<path d="M15.7558 29.0113L15.8247 31.3448L14.1517 32.4408L13.571 29.875L15.7558 29.0113Z" fill="#EAC1A4"/>
<path d="M20.6514 7.41071C20.6877 7.59217 20.8111 7.71556 20.9308 7.69379C21.047 7.66838 21.1123 7.50507 21.076 7.32362C21.0397 7.14216 20.9127 7.01877 20.7966 7.04054C20.6804 7.06595 20.6151 7.22926 20.6514 7.41071Z" fill="#263238"/>
<path d="M20.7965 7.71918C20.7965 7.71918 21.4171 8.67364 21.9688 9.08373C21.7111 9.44664 21.1413 9.42124 21.1413 9.42124L20.7965 7.71918Z" fill="#A02724"/>
<path d="M19.7913 6.54334C19.7659 6.54334 19.7405 6.53246 19.7187 6.51431C19.6752 6.47439 19.6715 6.40543 19.7115 6.36188C20.1179 5.92276 20.6079 6.0026 20.6296 6.00623C20.6877 6.01712 20.7276 6.07155 20.7167 6.12962C20.7058 6.18769 20.6514 6.22761 20.5933 6.21672C20.5788 6.21309 20.1941 6.15865 19.8711 6.50705C19.8494 6.53245 19.8203 6.54334 19.7913 6.54334Z" fill="#263238"/>
<path d="M15.4182 9.94022C15.8174 11.606 16.2166 14.6545 14.7903 15.765C14.7903 15.765 15.3492 17.4525 19.1453 17.4525C23.3188 17.4525 21.1413 16.3638 21.1413 16.3638C18.8622 15.921 18.9239 13.9431 19.3195 12.6475L15.4182 9.94022Z" fill="#EAC1A4"/>
<path d="M14.3439 16.0735C14.0935 15.6126 13.8213 15.0827 14.3875 14.9158C15.0117 14.7343 19.0146 14.3968 20.1905 14.7379C19.8276 15.3803 20.4409 16.1714 20.4409 16.1714L14.3439 16.0735Z" fill="#263238"/>
<path d="M17.661 93.9474H20.2776L20.5389 88.6779H17.9187L17.661 93.9474Z" fill="#EAC1A4"/>
<path d="M1.04321 93.2216L3.69611 93.3595L5.30744 88.1698L2.65455 88.0283L1.04321 93.2216Z" fill="#EAC1A4"/>
<path d="M3.61624 93.149L1.1194 92.6082C1.02867 92.5901 0.934309 92.6337 0.898018 92.7208L0.0306554 94.6006C-0.0600729 94.7966 0.059687 95.0252 0.270177 95.0652C1.1448 95.2394 1.58029 95.2793 2.67992 95.5188C3.35494 95.664 4.8828 96.0378 5.81549 96.2374C6.73003 96.4334 7.07117 95.5442 6.70826 95.3773C5.07515 94.6297 4.39287 93.9764 3.95375 93.3631C3.86665 93.2542 3.74689 93.178 3.61624 93.149Z" fill="#263238"/>
<path d="M20.1397 93.6825H17.6537C17.5594 93.6825 17.4795 93.7478 17.4614 93.8385L17.0114 95.8599C16.9642 96.0704 17.1239 96.27 17.338 96.2664C18.2344 96.2519 19.53 96.1975 20.655 96.1975C21.9724 96.1975 23.1119 96.27 24.6543 96.27C25.587 96.27 25.8483 95.3265 25.4564 95.2394C23.6744 94.851 22.2228 94.8075 20.684 93.8603C20.5207 93.7551 20.3356 93.6825 20.1397 93.6825Z" fill="#263238"/>
<path d="M10.0471 16.5344C8.06922 17.4743 7.53574 23.1684 7.53574 23.1684L12.4242 25.4257C12.4242 25.4257 13.6363 23.6366 13.7307 20.8276C13.8286 17.888 12.0685 15.5726 10.0471 16.5344Z" fill="#263238"/>
<path opacity="0.4" d="M12.7 20.0473C11.8181 21.4155 11.9016 23.5386 12.2064 25.3277L12.4242 25.4294C12.4242 25.4294 13.6399 23.6402 13.7306 20.8312C13.7343 20.657 13.7343 20.4828 13.7306 20.3123L12.7 20.0473Z" fill="black"/>
<path d="M23.689 16.3964C23.689 16.3964 26.1096 19.1328 23.8232 36.0627C20.1578 36.0627 13.4367 36.0627 11.6511 36.0627C11.5677 34.1937 12.7399 25.081 10.9398 16.2767C10.9398 16.2767 13.0266 15.8593 15.0153 15.7613C16.5722 15.6851 18.8223 15.6379 20.1905 15.7613C21.9905 15.9283 23.689 16.3964 23.689 16.3964Z" fill="#5E90C9"/>
<path opacity="0.6" d="M23.689 16.3964C23.689 16.3964 26.1096 19.1328 23.8232 36.0627C20.1578 36.0627 13.4367 36.0627 11.6511 36.0627C11.5677 34.1937 12.7399 25.081 10.9398 16.2767C10.9398 16.2767 13.0266 15.8593 15.0153 15.7613C16.5722 15.6851 18.8223 15.6379 20.1905 15.7613C21.9905 15.9283 23.689 16.3964 23.689 16.3964Z" fill="#FAFAFA"/>
<path opacity="0.2" d="M24.7523 21.5716L24.7051 21.5317L22.2845 20.2397C22.0377 23.9668 23.7035 26.304 24.6943 27.3238C24.8358 24.9358 24.8322 23.0523 24.7523 21.5716Z" fill="black"/>
<path opacity="0.2" d="M20.5389 88.6779L20.4046 91.3925H17.7844L17.9187 88.6779H20.5389Z" fill="black"/>
<path opacity="0.2" d="M2.6545 88.0283L5.3074 88.1698L4.47632 90.8445L1.82343 90.7066L2.6545 88.0283Z" fill="black"/>
<path d="M14.5762 8.24904C15.1605 10.4302 15.3928 11.7366 16.7392 12.6439C18.7642 14.0085 21.2865 12.4407 21.3627 10.1289C21.4353 8.04944 20.4663 4.8304 18.1255 4.39127C15.8174 3.95578 13.9919 6.06431 14.5762 8.24904Z" fill="#EAC1A4"/>
<path d="M19.5082 36.0663C19.5082 36.0663 16.9243 53.4572 15.5089 59.9714C13.9556 67.1063 5.63039 90.7102 5.63039 90.7102L1.5585 89.8283C1.5585 89.8283 6.7772 70.5939 8.08005 60.6174C8.58813 56.727 9.20146 50.4522 9.97809 45.219C10.7293 40.1527 11.6547 36.0663 11.6547 36.0663H19.5082Z" fill="#263238"/>
<path d="M6.60664 89.3456C6.62479 89.3493 5.84815 90.8191 5.84815 90.8191L1.26456 89.8283L1.64925 88.4492L6.60664 89.3456Z" fill="#5E90C9"/>
<path opacity="0.6" d="M6.60664 89.3456C6.62479 89.3493 5.84815 90.8191 5.84815 90.8191L1.26456 89.8283L1.64925 88.4492L6.60664 89.3456Z" fill="white"/>
<path opacity="0.6" d="M17.8751 42.2613C14.8883 42.8456 15.2041 53.9834 15.5633 59.7102C16.4234 55.66 17.6864 47.8719 18.5465 42.3411C18.3505 42.2431 18.1255 42.2105 17.8751 42.2613Z" fill="black"/>
<path d="M23.8232 36.0663C23.8232 36.0663 25.039 53.0797 24.7886 60.0186C24.5309 67.237 21.1087 90.8699 21.1087 90.8699H17.2545C17.2545 90.8699 17.113 67.658 16.9424 60.5703C16.7537 52.8438 15.821 36.0663 15.821 36.0663H23.8232Z" fill="#263238"/>
<path d="M21.8526 89.3311C21.8708 89.3311 21.6349 90.9316 21.6349 90.9316H16.946L16.819 89.5017L21.8526 89.3311Z" fill="#5E90C9"/>
<path opacity="0.6" d="M21.8526 89.3311C21.8708 89.3311 21.6349 90.9316 21.6349 90.9316H16.946L16.819 89.5017L21.8526 89.3311Z" fill="white"/>
<path d="M22.27 19.5828C22.27 24.1483 24.7015 26.0282 24.7015 26.0282L28.65 22.1668C28.65 22.1668 27.3072 19.855 25.46 17.7283C23.1773 15.1081 22.27 16.6469 22.27 19.5828Z" fill="#263238"/>
<path opacity="0.2" d="M21.2248 10.9564C21.1232 11.2358 20.8619 11.7112 20.2014 11.8999C19.236 12.1757 19.2252 12.9923 19.2252 12.9923L19.236 13.0068C20.1542 12.702 20.92 11.9435 21.2248 10.9564Z" fill="black"/>
<path d="M20.2014 3.91222C21.0143 2.88518 19.7623 2.838 19.7623 2.838C20.0889 1.61498 18.6227 2.27186 18.6227 2.27186C17.7445 1.05973 17.2473 2.53315 17.2473 2.53315C16.3363 1.50611 16.1694 3.18277 16.1694 3.18277C15.2549 1.87991 14.7903 3.7598 14.7903 3.7598C13.9484 2.40613 13.433 4.16989 13.433 4.16989C11.6947 3.54931 12.5221 5.35299 12.5221 5.35299C11.0378 5.39291 12.2282 6.54334 12.2282 6.54334C10.4499 6.54697 12.0177 7.56676 12.0177 7.56676C10.6059 8.49219 12.377 8.7426 12.377 8.7426C11.2265 10.5427 13.2044 9.87489 13.2044 9.87489C12.4024 11.6568 14.1806 10.8729 14.1806 10.8729C14.0645 12.5931 15.0589 12.125 15.5379 11.8056C15.6287 12.1504 15.8029 12.5205 16.1222 12.5604C16.7428 12.6403 16.8626 11.4717 16.8626 11.4717C16.8626 11.4717 17.4396 11.9181 17.9187 11.6749C18.4013 11.4318 18.2199 10.8185 18.2199 10.8185C18.2199 10.8185 18.59 11.0943 18.9276 10.8294C19.1344 10.6697 19.1344 9.51198 18.8731 9.10552L19.8167 8.73534C19.8167 8.73534 20.5171 8.63736 20.205 7.71193C19.8929 6.7865 20.1578 6.05704 20.1578 6.05704C21.2248 5.55622 20.3502 4.95742 20.3502 4.95742C21.5768 4.16626 20.2014 3.91222 20.2014 3.91222Z" fill="#263238"/>
<path d="M18.2889 8.33978C18.4376 8.91318 18.8151 9.40312 19.207 9.69708C19.7986 10.1362 20.2413 9.70433 20.1978 9.03294C20.1615 8.43051 19.8058 7.47242 19.1526 7.29459C18.5102 7.12039 18.1183 7.68291 18.2889 8.33978Z" fill="#EAC1A4"/>
</svg>
