<svg width="232" height="210" viewBox="0 0 232 210" fill="none" xmlns="http://www.w3.org/2000/svg">
<g filter="url(#filter0_d_11_771)">
<path d="M46.2976 72.7267C42.2924 72.7267 40.4051 68.6912 40.3201 68.5152C40.1381 68.1146 40.3141 67.6413 40.7146 67.4593C41.1151 67.2772 41.5885 67.4532 41.7705 67.8537C41.7948 67.9023 43.3665 71.2156 46.4189 71.1307C46.8619 71.1064 47.226 71.4644 47.2382 71.9074C47.2503 72.3504 46.9044 72.7145 46.4614 72.7267C46.4068 72.7267 46.3522 72.7267 46.2976 72.7267Z" fill="#EE7BB7"/>
<path d="M8.66715 47.0693C6.349 47.0693 4.45565 45.7888 4.34641 45.716C3.98231 45.4672 3.89128 44.9696 4.14009 44.6055C4.38889 44.2414 4.88651 44.1504 5.24454 44.3992C5.27489 44.4174 8.33945 46.4685 10.9185 44.824C11.2887 44.5873 11.7803 44.6965 12.0169 45.0667C12.2536 45.4369 12.1444 45.9284 11.7742 46.1651C10.7365 46.8387 9.66238 47.0693 8.66715 47.0693Z" fill="#3E6897"/>
<path opacity="0.6" d="M8.66715 47.0693C6.349 47.0693 4.45565 45.7888 4.34641 45.716C3.98231 45.4672 3.89128 44.9696 4.14009 44.6055C4.38889 44.2414 4.88651 44.1504 5.24454 44.3992C5.27489 44.4174 8.33945 46.4685 10.9185 44.824C11.2887 44.5873 11.7803 44.6965 12.0169 45.0667C12.2536 45.4369 12.1444 45.9284 11.7742 46.1651C10.7365 46.8387 9.66238 47.0693 8.66715 47.0693Z" fill="white"/>
<path d="M216.833 25.7932C214.515 25.7932 212.622 24.5128 212.512 24.44C212.148 24.1912 212.057 23.6935 212.306 23.3294C212.555 22.9653 213.053 22.8743 213.411 23.1231C213.441 23.1413 216.505 25.1924 219.085 23.5479C219.455 23.3112 219.946 23.4205 220.183 23.7906C220.42 24.1608 220.31 24.6524 219.94 24.889C218.896 25.5566 217.822 25.7932 216.833 25.7932Z" fill="#3E6897"/>
<path opacity="0.6" d="M216.833 25.7932C214.515 25.7932 212.622 24.5128 212.512 24.44C212.148 24.1912 212.057 23.6935 212.306 23.3294C212.555 22.9653 213.053 22.8743 213.411 23.1231C213.441 23.1413 216.505 25.1924 219.085 23.5479C219.455 23.3112 219.946 23.4205 220.183 23.7906C220.42 24.1608 220.31 24.6524 219.94 24.889C218.896 25.5566 217.822 25.7932 216.833 25.7932Z" fill="white"/>
<path d="M119.241 88.4683C115.521 88.4683 113.494 84.8636 113.403 84.6998C113.19 84.3114 113.33 83.832 113.718 83.6196C114.101 83.4072 114.586 83.5468 114.798 83.9351C114.823 83.9837 116.643 87.1575 119.677 86.8541C120.114 86.8116 120.509 87.1271 120.551 87.5641C120.594 88.001 120.278 88.3955 119.841 88.4379C119.635 88.4622 119.435 88.4683 119.241 88.4683Z" fill="#3E6897"/>
<path opacity="0.6" d="M119.241 88.4683C115.521 88.4683 113.494 84.8636 113.403 84.6998C113.19 84.3114 113.33 83.832 113.718 83.6196C114.101 83.4072 114.586 83.5468 114.798 83.9351C114.823 83.9837 116.643 87.1575 119.677 86.8541C120.114 86.8116 120.509 87.1271 120.551 87.5641C120.594 88.001 120.278 88.3955 119.841 88.4379C119.635 88.4622 119.435 88.4683 119.241 88.4683Z" fill="white"/>
<path d="M17.4056 104.683C17.0476 104.683 16.7199 104.44 16.635 104.076C16.5318 103.651 16.7927 103.221 17.2175 103.111C17.2539 103.105 20.8161 102.171 21.3016 99.1548C21.3744 98.7178 21.781 98.4266 22.2179 98.4933C22.6549 98.5601 22.9461 98.9727 22.8794 99.4036C22.224 103.476 17.794 104.61 17.6059 104.659C17.5331 104.677 17.4724 104.683 17.4056 104.683Z" fill="#3E6897"/>
<path opacity="0.6" d="M17.4056 104.683C17.0476 104.683 16.7199 104.44 16.635 104.076C16.5318 103.651 16.7927 103.221 17.2175 103.111C17.2539 103.105 20.8161 102.171 21.3016 99.1548C21.3744 98.7178 21.781 98.4266 22.2179 98.4933C22.6549 98.5601 22.9461 98.9727 22.8794 99.4036C22.224 103.476 17.794 104.61 17.6059 104.659C17.5331 104.677 17.4724 104.683 17.4056 104.683Z" fill="black"/>
<path d="M194.58 49.3693C194.222 49.3693 193.895 49.1265 193.81 48.7624C193.706 48.3376 193.967 47.9068 194.392 47.7975C194.429 47.7915 197.991 46.8569 198.476 43.8409C198.543 43.404 198.956 43.1127 199.393 43.1794C199.83 43.2462 200.121 43.6588 200.054 44.0897C199.399 48.1616 194.969 49.2964 194.781 49.345C194.708 49.3632 194.641 49.3693 194.58 49.3693Z" fill="#3E6897"/>
<path opacity="0.6" d="M194.58 49.3693C194.222 49.3693 193.895 49.1265 193.81 48.7624C193.706 48.3376 193.967 47.9068 194.392 47.7975C194.429 47.7915 197.991 46.8569 198.476 43.8409C198.543 43.404 198.956 43.1127 199.393 43.1794C199.83 43.2462 200.121 43.6588 200.054 44.0897C199.399 48.1616 194.969 49.2964 194.781 49.345C194.708 49.3632 194.641 49.3693 194.58 49.3693Z" fill="black"/>
<path d="M227.21 79.6204C227.168 79.6204 227.119 79.6144 227.071 79.6083C226.876 79.578 222.38 78.7466 221.445 74.7293C221.348 74.2984 221.615 73.8736 222.04 73.7704C222.471 73.6734 222.896 73.9404 222.999 74.3652C223.691 77.3448 227.307 78.0244 227.344 78.0305C227.775 78.1094 228.066 78.5221 227.987 78.9529C227.926 79.3474 227.593 79.6204 227.21 79.6204Z" fill="#3E6897"/>
<path d="M212.986 108.876C211.766 108.876 210.401 108.561 209.169 107.535C208.829 107.256 208.786 106.752 209.065 106.413C209.345 106.073 209.848 106.03 210.188 106.309C212.537 108.263 215.832 106.625 215.868 106.607C216.263 106.407 216.742 106.564 216.942 106.953C217.143 107.341 216.991 107.82 216.596 108.027C216.493 108.088 214.922 108.876 212.986 108.876Z" fill="#EE7BB7"/>
<path d="M175.762 9.29314C175.628 9.29314 175.495 9.2628 175.373 9.18998C175.204 9.09288 171.241 6.80507 171.708 2.70887C171.757 2.27194 172.151 1.95638 172.588 2.00493C173.025 2.05348 173.341 2.44793 173.292 2.88486C172.946 5.92515 176.126 7.78209 176.156 7.8003C176.539 8.01876 176.672 8.50424 176.454 8.88655C176.308 9.1475 176.035 9.29314 175.762 9.29314Z" fill="#EE7BB7"/>
<path d="M17.2784 12.5216C16.8718 12.5216 16.5198 12.206 16.4834 11.7934C16.447 11.3564 16.7686 10.968 17.2116 10.9316C20.258 10.6707 21.4474 7.18134 21.4535 7.14493C21.593 6.7262 22.0421 6.50167 22.4608 6.63518C22.8795 6.77475 23.1041 7.21775 22.9706 7.63647C22.9099 7.81852 21.4535 12.1575 17.3451 12.5155C17.3269 12.5216 17.3026 12.5216 17.2784 12.5216Z" fill="#3E6897"/>
<path d="M76.4882 36.5344C74.3278 37.5357 72.4344 42.3844 73.0474 49.3388C73.6663 56.2933 59.2598 51.4143 57.3058 59.2061C53.7679 73.3092 77.4895 81.7869 87.5995 73.3092C93.8561 68.0661 99.7364 50.7831 98.8747 41.3528C97.9523 31.2124 82.2229 24.4096 76.4882 36.5344Z" fill="#263238"/>
<path d="M99.251 54.3271C99.518 54.2542 99.9064 54.1329 100.24 54.0236L101.284 53.6717C101.982 53.4289 102.674 53.1619 103.359 52.8706C104.731 52.3002 106.078 51.6812 107.358 50.9591C109.907 49.5269 112.292 47.7913 114.1 45.6856C115.818 43.6466 117.05 40.8612 118.015 38.0151C118.506 36.5829 118.919 35.1083 119.277 33.6094C119.647 32.1226 119.957 30.5751 120.217 29.1005L122.693 29.2583C122.706 32.5656 122.329 35.7758 121.625 39.0224C121.261 40.6366 120.794 42.2508 120.163 43.8408C119.526 45.4246 118.749 47.0085 117.632 48.4831C115.472 51.3292 112.747 53.52 109.828 55.2495C108.366 56.1112 106.861 56.8758 105.313 57.5373C104.537 57.8589 103.754 58.1623 102.959 58.4415C102.558 58.581 102.158 58.7146 101.751 58.8359C101.332 58.9634 100.956 59.0665 100.459 59.194L99.251 54.3271Z" fill="#E8BFBF"/>
<path d="M122.669 30.0897L123.701 26.3818L119.605 26.7035C119.605 26.7035 119.313 29.1308 120.727 30.5933L122.669 30.0897Z" fill="#E8BFBF"/>
<path d="M124.314 22.0733L120.575 23.0503L119.604 26.7035L123.701 26.3819L124.314 22.0733Z" fill="#E8BFBF"/>
<path d="M94.6147 55.2677C96.502 53.5564 101.296 52.2456 101.296 52.2456L106.545 60.171C106.545 60.171 100.556 64.164 98.007 63.2356C95.3611 62.2707 92.8548 56.8698 94.6147 55.2677Z" fill="#DF88B5"/>
<path d="M77.3256 167.486L80.5965 171.078L89.9844 164.385L86.7135 160.798L77.3256 167.486Z" fill="#E8BFBF"/>
<path d="M58.8654 181.68L63.2529 183.852L69.7037 174.391L65.3162 172.213L58.8654 181.68Z" fill="#E8BFBF"/>
<path d="M63.9507 183.318L60.5645 178.979C60.4432 178.821 60.2308 178.779 60.0608 178.876L56.2438 181.061C55.8493 181.285 55.7522 181.856 56.0375 182.214C57.2451 183.707 57.9005 184.368 59.3872 186.273C60.3036 187.445 62.1545 190.182 63.4228 191.802C64.6607 193.386 66.3599 192.257 65.9776 191.468C64.2663 187.936 64.1571 185.837 64.2177 184.143C64.2299 183.846 64.1328 183.549 63.9507 183.318Z" fill="#263238"/>
<path d="M81.5736 171.145L79.3404 165.78C79.2615 165.586 79.0491 165.465 78.8367 165.495L74.1094 166.096C73.6178 166.157 73.3387 166.654 73.5329 167.103C74.346 168.966 74.8376 169.834 75.8146 172.195C76.4214 173.645 77.8293 177.462 78.6607 179.465C79.4739 181.425 81.6282 181.012 81.4704 180.126C80.7604 176.151 80.9971 173.596 81.5918 172.031C81.7071 171.746 81.6949 171.43 81.5736 171.145Z" fill="#263238"/>
<path opacity="0.2" d="M89.9784 164.391L85.1418 167.837L81.4825 164.518L86.7075 160.798L89.9784 164.391Z" fill="black"/>
<path opacity="0.2" d="M65.3162 172.219L69.7037 174.397L66.3721 179.27L61.9846 177.092L65.3162 172.219Z" fill="black"/>
<path d="M101.223 55.8806C101.223 55.8806 101.375 55.6621 98.7169 84.6633C90.84 85.2155 82.7022 85.7859 78.8731 86.0529C78.6425 77.9515 79.2493 72.2411 75.4626 55.6075C75.4626 55.6075 79.6377 54.7215 83.9159 54.5395C87.2657 54.3938 90.0087 54.3028 92.9519 54.588C96.8235 54.9582 101.223 55.8806 101.223 55.8806Z" fill="#DF88B5"/>
<path d="M76.9555 60.4137C75.4808 59.728 74.1883 59.0059 72.8471 58.2352C71.5242 57.4705 70.2377 56.6331 68.9755 55.7592C66.451 54.0115 64.0297 52.0696 61.845 49.8L61.0379 48.9322L60.8316 48.7138C60.7163 48.5742 60.5949 48.4346 60.4978 48.295C60.2915 48.0098 60.1459 47.7246 60.0124 47.4394C59.5269 46.3167 59.4541 45.3397 59.4298 44.4416C59.4116 42.6575 59.7211 41.0979 60.0852 39.5686C60.868 36.5344 61.936 33.7308 63.2772 30.9818L65.5893 31.8738C65.2373 33.2514 64.8914 34.6835 64.594 36.0853C64.2845 37.4932 64.0357 38.9011 63.8598 40.2847C63.6838 41.6562 63.5867 43.0458 63.702 44.217C63.7566 44.7935 63.9083 45.3033 64.0418 45.5278C64.0782 45.5764 64.1025 45.6189 64.1207 45.6249C64.1268 45.6371 64.1328 45.631 64.1389 45.631L64.321 45.807L65.0674 46.5231C67.0942 48.3982 69.376 50.0792 71.7366 51.6448C72.9199 52.4277 74.1518 53.1498 75.3716 53.872C76.5853 54.582 77.8839 55.2798 79.0734 55.8806L76.9555 60.4137Z" fill="#E8BFBF"/>
<path d="M83.2728 56.712C81.0214 53.5746 76.6217 53.6232 76.6217 53.6232L71.2936 61.4939C71.2936 61.4939 77.2468 65.5477 79.8016 64.6495C82.4535 63.7089 84.6624 58.6478 83.2728 56.712Z" fill="#DF88B5"/>
<path d="M92.9457 54.582L83.9098 54.5334C82.5323 55.0917 81.7252 58.6903 90.8946 61.7428C97.2483 58.132 93.8681 54.9218 92.9457 54.582Z" fill="white"/>
<path d="M84.8627 44.3688C85.4149 47.2756 85.955 52.6098 83.916 54.5335C83.916 54.5335 84.7049 57.4888 90.9008 61.7428C95.2397 57.3917 92.9519 54.582 92.9519 54.582C89.7175 53.7931 89.8085 51.3839 90.385 49.1325L84.8627 44.3688Z" fill="#E8BFBF"/>
<path d="M103.596 73.2303C103.566 73.2303 103.529 73.2303 103.499 73.2243C102.831 73.1696 102.334 72.5871 102.388 71.9195C102.607 69.213 100.58 67.1679 98.2314 64.8013C95.537 62.0887 92.4907 59.0119 92.3632 54.2239C92.345 53.5564 92.873 52.9981 93.5466 52.9799C94.2141 52.9617 94.7724 53.4897 94.7906 54.1633C94.8877 57.9864 97.4607 60.5837 99.9549 63.096C102.491 65.6569 105.119 68.3027 104.81 72.1198C104.755 72.7509 104.227 73.2303 103.596 73.2303Z" fill="#263238"/>
<path d="M85.8397 79.3776C85.7426 79.3776 85.6455 79.3655 85.5484 79.3412C84.8991 79.1834 84.4985 78.522 84.6624 77.8726C85.8336 73.115 84.2983 69.3889 82.6719 65.4444C81.2155 61.9126 79.7105 58.2594 80.4448 53.9872C80.5601 53.3257 81.1852 52.8828 81.8466 52.9981C82.5081 53.1134 82.9511 53.7384 82.8358 54.3999C82.2229 57.9803 83.5337 61.1601 84.9173 64.522C86.5436 68.4605 88.3824 72.9329 87.023 78.4552C86.8774 79.0074 86.3858 79.3776 85.8397 79.3776Z" fill="#263238"/>
<path opacity="0.2" d="M89.2442 48.1494L86.7864 48.4347C86.835 48.7745 87.0838 49.703 87.4782 50.2795C87.9576 51.0016 89.0257 51.3232 90.0816 51.3475C90.0573 50.6375 90.1969 49.8729 90.385 49.1325L89.2442 48.1494Z" fill="black"/>
<path d="M79.4921 41.4498C81.2702 45.9769 81.9195 47.9309 85.0205 49.5451C89.681 51.9786 94.8514 48.8048 94.463 43.8408C94.1171 39.3744 91.271 32.7234 86.1553 32.3471C81.1185 31.9769 77.7201 36.9227 79.4921 41.4498Z" fill="#E8BFBF"/>
<path d="M84.365 31.6857C87.824 33.8097 84.8626 46.3107 79.0187 45.6614C73.1748 45.0181 79.2615 28.5544 84.365 31.6857Z" fill="#263238"/>
<path d="M84.2376 31.7282C81.6343 33.4577 83.4062 36.4677 92.1812 34.6896C92.1873 34.6896 88.5584 28.8639 84.2376 31.7282Z" fill="#263238"/>
<path d="M80.1233 45.8495C80.5238 46.7719 81.3187 47.4273 82.0955 47.7186C83.2606 48.1555 83.9524 47.136 83.7158 45.983C83.5034 44.9392 82.6417 43.4585 81.428 43.5192C80.2325 43.5738 79.6621 44.7936 80.1233 45.8495Z" fill="#E8BFBF"/>
<path d="M98.7109 84.6633C98.7109 84.6633 109.331 119.332 110.186 134.249C111.072 149.766 88.0304 168.177 88.0304 168.177L82.2957 161.884C82.2957 161.884 101.017 145.985 98.4499 134.467C94.912 118.592 84.183 85.6828 84.183 85.6828L98.7109 84.6633Z" fill="#263238"/>
<path opacity="0.2" d="M92.1024 96.0113C91.1254 92.9649 88.9711 95.0221 88.2186 98.2323C89.7175 103.069 91.4531 108.767 93.1037 114.453C93.7409 109.404 94.0018 101.958 92.1024 96.0113Z" fill="black"/>
<path d="M80.7543 161.581L88.0304 169.088L91.1435 167.37L83.4487 159.002L80.7543 161.581Z" fill="#263238"/>
<path d="M93.4738 85.0334C93.4738 85.0334 90.4517 119.011 87.4054 137.944C84.9416 153.237 68.2533 178.215 68.2533 178.215L62.1364 175.368C62.1364 175.368 73.3569 148.619 75.1046 138.223C80.7119 104.95 73.1324 95.3559 78.8731 86.053L93.4738 85.0334Z" fill="#263238"/>
<path d="M61.7055 175.429L68.6053 178.821L70.8689 176.006L62.7978 172.207L61.7055 175.429Z" fill="#263238"/>
<path d="M78.4908 84.9121L77.7201 86.7508C77.6594 86.8965 77.8354 87.0239 78.0599 87.0057L98.8747 85.5493C99.0507 85.5372 99.1964 85.4401 99.1964 85.3248L99.251 83.5346C99.257 83.4132 99.0932 83.3161 98.899 83.3282L78.8003 84.7361C78.6546 84.7483 78.5272 84.8211 78.4908 84.9121Z" fill="white"/>
<path d="M81.343 86.9693L80.8029 87.0057C80.6936 87.0118 80.6087 86.9632 80.6147 86.8965L80.7058 84.5723C80.7058 84.5055 80.7968 84.4448 80.906 84.4327L81.4461 84.3963C81.5554 84.3902 81.6403 84.4387 81.6342 84.5055L81.5432 86.8297C81.5432 86.8965 81.4522 86.9632 81.343 86.9693Z" fill="#263238"/>
<path d="M97.3757 85.8466L96.8356 85.883C96.7264 85.8891 96.6415 85.8405 96.6475 85.7738L96.7385 83.4495C96.7385 83.3828 96.8296 83.3221 96.9388 83.31L97.4789 83.2736C97.5881 83.2675 97.6731 83.316 97.667 83.3828L97.576 85.707C97.5699 85.7798 97.4789 85.8405 97.3757 85.8466Z" fill="#263238"/>
<path d="M89.3593 86.4049L88.8192 86.4413C88.71 86.4474 88.625 86.3988 88.6311 86.3321L88.7221 84.0078C88.7221 83.9411 88.8132 83.8804 88.9224 83.8683L89.4625 83.8319C89.5717 83.8258 89.6567 83.8743 89.6506 83.9411L89.5596 86.2653C89.5596 86.3381 89.4686 86.3988 89.3593 86.4049Z" fill="#263238"/>
<path d="M86.8046 39.7507C86.5133 39.8478 86.392 40.2847 86.5376 40.7398L87.5996 40.3939C87.4539 39.9388 87.0959 39.6536 86.8046 39.7507Z" fill="#263238"/>
<path d="M91.4105 38.2821C91.1192 38.3792 90.9979 38.8161 91.1435 39.2712L92.2116 38.9253C92.0598 38.4763 91.7018 38.185 91.4105 38.2821Z" fill="#263238"/>
<path d="M91.2891 38.3488L92.2661 37.6874C92.2661 37.6874 91.9869 38.7129 91.2891 38.3488Z" fill="#263238"/>
<path d="M90.2513 40.1148C90.2513 40.1148 91.4104 41.5287 92.3692 42.081C92.0233 42.706 91.113 42.7667 91.113 42.7667L90.2513 40.1148Z" fill="#630F0F"/>
<path d="M90.2999 44.654C90.3363 44.6236 90.3485 44.5751 90.3363 44.5326C90.3181 44.4719 90.2514 44.4355 90.1907 44.4598C88.5462 44.9938 87.3992 44.0896 87.3871 44.0775C87.3385 44.035 87.2657 44.0411 87.2232 44.0957C87.1808 44.1442 87.1929 44.217 87.2414 44.2595C87.29 44.302 88.4915 45.2487 90.2635 44.6782C90.2757 44.6661 90.2878 44.66 90.2999 44.654Z" fill="#263238"/>
<path d="M85.2691 39.4776C85.2995 39.4533 85.3237 39.4169 85.3359 39.3805C85.6757 38.4035 86.501 38.1911 86.5131 38.185C86.6406 38.1546 86.7134 38.0272 86.6831 37.9058C86.6527 37.7784 86.5253 37.7056 86.4039 37.7359C86.3614 37.7481 85.3237 38.0151 84.8989 39.2288C84.8565 39.3501 84.9232 39.4836 85.0446 39.5261C85.1235 39.5504 85.2084 39.5261 85.2691 39.4776Z" fill="#263238"/>
<path d="M92.5392 36.4798C92.5513 36.4677 92.5574 36.4616 92.5695 36.4495C92.6484 36.3463 92.6302 36.2006 92.5331 36.1218C91.5257 35.3268 90.5062 35.6545 90.4638 35.6666C90.3424 35.7091 90.2756 35.8365 90.3181 35.9579C90.3606 36.0793 90.488 36.146 90.6094 36.1036C90.6458 36.0914 91.4408 35.8487 92.2418 36.4798C92.3329 36.5587 92.4603 36.5526 92.5392 36.4798Z" fill="#263238"/>
<path d="M68.2292 32.7902C68.0896 32.7902 67.9439 32.7538 67.8104 32.6688L49.3441 21.2965C48.9679 21.0659 48.8526 20.5744 49.0832 20.1981C49.3138 19.8219 49.8053 19.7066 50.1816 19.9372L68.6479 31.3095C69.0241 31.5401 69.1394 32.0316 68.9088 32.4079C68.7571 32.6567 68.4962 32.7902 68.2292 32.7902Z" fill="#3E6897"/>
<path d="M53.5313 22.5588C54.5629 22.5102 55.637 22.4617 55.7766 21.5332C55.9162 20.6047 54.9088 20.2406 53.9379 19.8887C53.859 19.8583 53.7679 19.828 53.6769 19.7916C53.6587 19.7006 53.6344 19.6095 53.6102 19.5185C53.683 19.4335 53.7619 19.3546 53.8226 19.2818C54.5022 18.5293 55.2122 17.7526 54.6661 17.0122C54.1199 16.2719 53.1672 16.7149 52.2508 17.1397C52.1659 17.1761 52.0688 17.2246 51.9656 17.2732C51.8867 17.2246 51.8078 17.1761 51.7289 17.1275C51.7229 17.0304 51.7168 16.9333 51.7168 16.8484C51.6683 15.8167 51.6197 14.7426 50.6912 14.6031C49.7628 14.4635 49.3987 15.4708 49.0467 16.4418C49.0163 16.5207 48.986 16.6117 48.9496 16.7027C48.8586 16.7209 48.7675 16.7452 48.6765 16.7695C48.5916 16.6967 48.5127 16.6178 48.4398 16.5571C47.6874 15.8774 46.9106 15.1674 46.1702 15.7196C45.4299 16.2658 45.8729 17.2186 46.2977 18.1349C46.3341 18.2198 46.3826 18.3169 46.4312 18.4201C46.3826 18.499 46.3341 18.5779 46.2855 18.6568C46.1884 18.6628 46.0913 18.6689 46.0064 18.6689C44.9748 18.7175 43.9006 18.766 43.7611 19.6945C43.6215 20.623 44.6289 20.9871 45.5998 21.339C45.6787 21.3694 45.7697 21.3997 45.8607 21.4361C45.879 21.5272 45.9032 21.6182 45.9275 21.7092C45.8547 21.7942 45.7758 21.8731 45.7151 21.9459C45.0354 22.6984 44.3254 23.4751 44.8777 24.2155C45.4238 24.9558 46.3766 24.5128 47.2929 24.088C47.3779 24.0516 47.475 24.0031 47.5781 23.9545C47.657 24.0031 47.7359 24.0516 47.8148 24.1002C47.8209 24.1973 47.8269 24.2944 47.8269 24.3793C47.8755 25.411 47.924 26.4851 48.8525 26.6247C49.781 26.7642 50.1451 25.7569 50.497 24.7859C50.5274 24.707 50.5577 24.616 50.5941 24.525C50.6852 24.5068 50.7762 24.4825 50.8672 24.4582C50.9522 24.531 51.0311 24.6039 51.1039 24.6706C51.8564 25.3503 52.6331 26.0603 53.3735 25.5141C54.1199 24.968 53.6769 24.0152 53.2461 23.0989C53.2096 23.0139 53.1611 22.9168 53.1125 22.8137C53.1611 22.7348 53.2096 22.6559 53.2582 22.577C53.3553 22.5709 53.4524 22.5649 53.5313 22.5588Z" fill="#3E6897"/>
<path opacity="0.7" d="M53.5313 22.5588C54.5629 22.5102 55.637 22.4617 55.7766 21.5332C55.9162 20.6047 54.9088 20.2406 53.9379 19.8887C53.859 19.8583 53.7679 19.828 53.6769 19.7916C53.6587 19.7006 53.6344 19.6095 53.6102 19.5185C53.683 19.4335 53.7619 19.3546 53.8226 19.2818C54.5022 18.5293 55.2122 17.7526 54.6661 17.0122C54.1199 16.2719 53.1672 16.7149 52.2508 17.1397C52.1659 17.1761 52.0688 17.2246 51.9656 17.2732C51.8867 17.2246 51.8078 17.1761 51.7289 17.1275C51.7229 17.0304 51.7168 16.9333 51.7168 16.8484C51.6683 15.8167 51.6197 14.7426 50.6912 14.6031C49.7628 14.4635 49.3987 15.4708 49.0467 16.4418C49.0163 16.5207 48.986 16.6117 48.9496 16.7027C48.8586 16.7209 48.7675 16.7452 48.6765 16.7695C48.5916 16.6967 48.5127 16.6178 48.4398 16.5571C47.6874 15.8774 46.9106 15.1674 46.1702 15.7196C45.4299 16.2658 45.8729 17.2186 46.2977 18.1349C46.3341 18.2198 46.3826 18.3169 46.4312 18.4201C46.3826 18.499 46.3341 18.5779 46.2855 18.6568C46.1884 18.6628 46.0913 18.6689 46.0064 18.6689C44.9748 18.7175 43.9006 18.766 43.7611 19.6945C43.6215 20.623 44.6289 20.9871 45.5998 21.339C45.6787 21.3694 45.7697 21.3997 45.8607 21.4361C45.879 21.5272 45.9032 21.6182 45.9275 21.7092C45.8547 21.7942 45.7758 21.8731 45.7151 21.9459C45.0354 22.6984 44.3254 23.4751 44.8777 24.2155C45.4238 24.9558 46.3766 24.5128 47.2929 24.088C47.3779 24.0516 47.475 24.0031 47.5781 23.9545C47.657 24.0031 47.7359 24.0516 47.8148 24.1002C47.8209 24.1973 47.8269 24.2944 47.8269 24.3793C47.8755 25.411 47.924 26.4851 48.8525 26.6247C49.781 26.7642 50.1451 25.7569 50.497 24.7859C50.5274 24.707 50.5577 24.616 50.5941 24.525C50.6852 24.5068 50.7762 24.4825 50.8672 24.4582C50.9522 24.531 51.0311 24.6039 51.1039 24.6706C51.8564 25.3503 52.6331 26.0603 53.3735 25.5141C54.1199 24.968 53.6769 24.0152 53.2461 23.0989C53.2096 23.0139 53.1611 22.9168 53.1125 22.8137C53.1611 22.7348 53.2096 22.6559 53.2582 22.577C53.3553 22.5709 53.4524 22.5649 53.5313 22.5588Z" fill="#F1B7D5"/>
<path d="M62.7188 32.9843L61.9602 28.1235L66.9121 30.5266C66.9121 30.5266 66.821 31.4126 65.6741 32.6688C65.1583 33.2331 64.3633 33.4637 63.629 33.2513L62.7188 32.9843Z" fill="#E8BFBF"/>
<path d="M64.7396 25.7447L67.2762 27.9779L66.9121 30.5266L61.9602 28.1235L64.7396 25.7447Z" fill="#E8BFBF"/>
<path d="M65.5406 185.642C65.5891 185.606 65.6377 185.569 65.6862 185.521C65.8258 185.381 65.8258 185.236 65.8015 185.139C65.6559 184.532 63.981 183.949 63.7929 183.882C63.7504 183.87 63.7019 183.882 63.6715 183.913C63.6412 183.949 63.6351 183.998 63.6533 184.04C63.9264 184.635 64.4725 185.642 65.0855 185.745C65.2432 185.776 65.401 185.739 65.5406 185.642ZM63.981 184.198C64.6425 184.453 65.4981 184.872 65.577 185.193C65.5891 185.236 65.5891 185.29 65.5224 185.357C65.3949 185.491 65.2675 185.539 65.1219 185.515C64.7881 185.46 64.3754 184.975 63.981 184.198Z" fill="#3E6897"/>
<path d="M65.8503 184.022C65.8927 183.992 65.9291 183.961 65.9595 183.931C66.0323 183.852 66.1233 183.676 65.9777 183.421C65.8806 183.263 65.741 183.166 65.5529 183.13C64.855 183.003 63.7384 183.864 63.6899 183.901C63.6595 183.925 63.6413 183.967 63.6474 184.01C63.6535 184.052 63.6778 184.089 63.7202 184.101C64.1693 184.289 65.3708 184.344 65.8503 184.022ZM64.0419 183.925C64.4363 183.658 65.0978 183.282 65.5043 183.354C65.6257 183.379 65.7107 183.439 65.7714 183.537C65.8503 183.664 65.8138 183.731 65.7774 183.773C65.5529 184.034 64.588 184.083 64.0054 183.943C64.0176 183.943 64.0297 183.937 64.0419 183.925Z" fill="#3E6897"/>
<path d="M81.6828 173.894C81.8527 174.306 82.0772 174.671 82.3685 174.834C82.5688 174.95 82.7751 174.968 82.9996 174.895C83.1635 174.84 83.2181 174.725 83.2363 174.64C83.3638 174.015 81.7738 172.534 81.4522 172.243C81.4158 172.207 81.3612 172.201 81.3187 172.225C81.2762 172.249 81.2519 172.298 81.258 172.346C81.3308 172.777 81.4643 173.378 81.6828 173.894ZM82.9632 174.361C82.9996 174.452 83.0179 174.531 83.0057 174.592C82.9997 174.622 82.9875 174.652 82.9208 174.677C82.7691 174.731 82.6234 174.719 82.4838 174.64C82.1137 174.422 81.7738 173.694 81.5554 172.662C82.1137 173.202 82.7812 173.93 82.9632 174.361Z" fill="#3E6897"/>
<path d="M81.264 172.371C81.27 172.383 81.2761 172.395 81.2882 172.407C81.7859 172.911 83.2726 173.724 83.752 173.445C83.8552 173.384 83.9644 173.251 83.8795 172.959C83.5639 171.843 81.4399 172.195 81.3489 172.213C81.3064 172.219 81.27 172.249 81.2579 172.292C81.2518 172.322 81.2518 172.346 81.264 172.371ZM83.6307 172.953C83.6428 172.977 83.6489 173.002 83.6549 173.026C83.6853 173.141 83.6792 173.22 83.6307 173.245C83.3515 173.408 82.2288 172.886 81.6341 172.407C82.1621 172.359 83.3636 172.31 83.6307 172.953Z" fill="#3E6897"/>
<path d="M86.6832 39.8175L87.6602 39.156C87.6602 39.156 87.381 40.1755 86.6832 39.8175Z" fill="#263238"/>
<path d="M166.016 198.787L161.313 198.793L160.045 187.9L164.748 187.894L166.016 198.787Z" fill="#FFC3BD"/>
<path d="M206.499 178.579L202.937 181.649L194.872 174.228L198.428 171.157L206.499 178.579Z" fill="#FFC3BD"/>
<path d="M202.245 181.534L206.584 177.784C206.729 177.656 206.936 177.656 207.087 177.772L210.395 180.442C210.74 180.721 210.734 181.261 210.395 181.546C208.981 182.729 207.894 183.524 206.134 185.042C205.054 185.976 201.887 188.913 200.388 190.2C198.925 191.462 197.481 190.133 197.985 189.465C200.23 186.474 201.62 183.834 201.844 182.256C201.887 181.977 202.032 181.716 202.245 181.534Z" fill="#263238"/>
<path d="M161.343 198.247L166.477 198.24C166.671 198.24 166.835 198.374 166.878 198.562L167.812 202.743C167.909 203.174 167.582 203.587 167.139 203.581C165.288 203.55 162.612 203.447 160.281 203.453C157.557 203.459 155.967 203.526 152.775 203.532C150.845 203.532 150.305 201.584 151.112 201.408C154.789 200.601 157.035 200.589 160.214 198.623C160.56 198.404 160.937 198.247 161.343 198.247Z" fill="#263238"/>
<path d="M146.069 63.5997C145.122 63.2417 144.309 62.9019 143.46 62.5135C142.616 62.1372 141.791 61.7428 140.965 61.3362C139.321 60.5109 137.707 59.6188 136.129 58.6357C134.539 57.6709 133.004 56.5725 131.511 55.3891C131.141 55.0857 130.764 54.7883 130.4 54.4728L129.32 53.4836C128.962 53.1559 128.622 52.7797 128.276 52.4277C128.1 52.2396 127.943 52.094 127.748 51.8634C127.554 51.6328 127.354 51.4082 127.178 51.1776C126.462 50.2491 125.94 49.3025 125.503 48.3558C125.06 47.4091 124.714 46.4685 124.423 45.534C123.846 43.6588 123.488 41.8079 123.239 39.9631C122.748 36.2735 122.687 32.681 122.972 29.0035L126.504 28.9671C126.741 30.6116 126.996 32.3411 127.336 34.0039C127.657 35.6727 128.015 37.3294 128.452 38.9315C128.883 40.5336 129.381 42.0992 129.994 43.5314C130.582 44.9635 131.341 46.2622 132.13 47.1603L132.427 47.4637C132.518 47.5608 132.7 47.7065 132.834 47.8278C133.125 48.0766 133.392 48.3376 133.702 48.5803C134.314 49.0658 134.933 49.5452 135.595 50.0003C136.912 50.9167 138.289 51.7845 139.734 52.5916C141.178 53.3987 142.652 54.1754 144.157 54.9036C144.91 55.2738 145.662 55.6379 146.421 55.9778C147.167 56.3176 147.974 56.6696 148.654 56.9609L146.069 63.5997Z" fill="#FFC3BD"/>
<path d="M146.809 67.611C142.944 65.311 139.248 61.9552 139.248 61.9552L141.123 52.3488C141.123 52.3488 146.919 54.0237 151.737 54.667C157.654 55.4558 151.027 70.1233 146.809 67.611Z" fill="#263238"/>
<path d="M126.571 29.8409L126.899 23.8514L121.929 25.4474C121.929 25.4474 120.764 29.7378 123.998 30.8665L126.571 29.8409Z" fill="#FFC3BD"/>
<path d="M126.304 20.6229L122.196 22.3342L121.929 25.4474L126.905 23.8514L126.304 20.6229Z" fill="#FFC3BD"/>
<path opacity="0.2" d="M160.045 187.906L160.7 193.519L165.403 193.513L164.754 187.9L160.045 187.906Z" fill="black"/>
<path opacity="0.2" d="M198.434 171.157L194.872 174.234L199.035 178.057L202.591 174.98L198.434 171.157Z" fill="black"/>
<path d="M169.821 54.497C169.863 53.0952 168.765 51.918 167.363 51.8876C153.94 51.6388 145.207 55.4012 144.607 55.644C144.145 55.826 143.824 56.2326 143.739 56.7181C143.18 60.08 141.597 74.171 149.358 96.2237C156.859 95.1557 170.61 93.1956 174.263 92.6676C173.899 88.9962 169.263 72.1441 169.821 54.497Z" fill="#BCD0E6"/>
<path d="M149.722 53.957C148.248 55.9292 147.58 60.4745 152.465 63.8C158.473 59.3154 161.556 54.491 162.484 51.9787C157.15 52.2639 152.799 53.1317 149.722 53.957Z" fill="white"/>
<path d="M148.581 55.8017C147.914 55.8017 147.368 55.2556 147.368 54.588C147.368 53.5867 148.235 52.719 148.964 52.1728C151.427 50.3158 156.228 48.9626 162.302 50.7103C162.945 50.8984 163.316 51.566 163.134 52.2153C162.945 52.8585 162.278 53.2287 161.629 53.0467C154.589 51.0137 150.256 53.9023 149.783 54.7337C149.716 55.3345 149.206 55.8017 148.581 55.8017Z" fill="#3E6897"/>
<path d="M158.667 40.4364C158.485 43.9379 158.71 50.2734 161.416 52.2032C159.826 54.3089 157.708 56.7788 153.685 57.5009C151.27 57.9318 150.426 57.0336 150.323 55.8988C150.22 54.7944 150.845 53.7324 151.804 53.1741C154.419 51.657 153.897 49.2175 152.957 46.9054L158.667 40.4364Z" fill="#FFC3BD"/>
<path d="M148.211 83.6438C148.078 83.6438 147.938 83.6195 147.805 83.577C147.173 83.3525 146.84 82.6607 147.064 82.0296C147.489 80.8341 147.277 80.2515 146.967 79.3777L146.846 79.0318C146.737 78.7223 146.379 78.3278 146.033 77.9455C145.48 77.3387 144.861 76.6529 144.655 75.7366C144.431 74.7414 144.746 73.8068 144.995 73.0604C145.128 72.6599 145.28 72.1987 145.256 71.962C145.219 71.6465 144.958 71.1852 144.704 70.7483C144.297 70.0504 143.842 69.2555 143.848 68.3331C143.854 67.3014 144.382 66.4822 144.807 65.8207C145.013 65.5052 145.262 65.1107 145.286 64.9105C145.323 64.6253 145.238 64.3522 145.092 63.9274C144.898 63.3448 144.655 62.6227 144.886 61.7427C145.159 60.705 145.832 60.1103 146.33 59.6795C146.555 59.4853 146.785 59.285 146.834 59.1515C146.937 58.9088 146.9 58.666 146.834 58.2534C146.743 57.6951 146.621 56.9365 147.107 56.1658C147.532 55.5044 147.489 55.3284 147.453 55.1888C147.416 55.0371 147.356 54.8126 147.374 54.5334C147.41 53.8659 147.981 53.3561 148.648 53.3804C149.279 53.4107 149.777 53.9266 149.801 54.5516L149.807 54.588C149.983 55.2738 150.026 56.093 149.182 57.4341C149.182 57.5191 149.212 57.7133 149.237 57.8589C149.322 58.3808 149.455 59.1758 149.085 60.0739C148.812 60.7354 148.326 61.1602 147.932 61.5061C147.544 61.8459 147.319 62.0522 147.24 62.3496C147.198 62.5195 147.271 62.7562 147.404 63.1567C147.58 63.6907 147.805 64.3643 147.701 65.2018C147.61 65.9542 147.21 66.5793 146.852 67.1315C146.573 67.5684 146.281 68.0175 146.281 68.3452C146.281 68.6062 146.561 69.0977 146.815 69.5286C147.18 70.1597 147.592 70.8697 147.683 71.6889C147.768 72.4596 147.525 73.1818 147.313 73.825C147.143 74.3348 146.967 74.8627 147.04 75.2026C147.107 75.4938 147.501 75.9247 147.847 76.3131C148.339 76.8532 148.891 77.46 149.158 78.2429L149.267 78.5584C149.631 79.5718 150.08 80.828 149.37 82.8367C149.182 83.3282 148.715 83.6438 148.211 83.6438Z" fill="#3E6897"/>
<path d="M169.596 54.2968C170.258 54.8976 170.804 55.4134 171.368 55.996C171.927 56.5664 172.473 57.1429 173.013 57.7255C174.093 58.8906 175.113 60.1165 176.096 61.3848C178.05 63.9335 179.84 66.6704 181.193 69.826C181.527 70.6209 181.83 71.4402 182.079 72.3019C182.213 72.7267 182.316 73.1697 182.419 73.6127L182.455 73.7765L182.51 74.0618C182.546 74.2559 182.565 74.4562 182.583 74.6504C182.607 75.0509 182.601 75.4514 182.546 75.8398C182.449 76.6226 182.2 77.3266 181.891 77.9152C181.588 78.5039 181.23 79.0015 180.865 79.4202C180.137 80.2637 179.373 80.8645 178.614 81.3742C177.097 82.3877 175.574 83.0613 174.038 83.6196C173.274 83.8987 172.503 84.1354 171.726 84.3356C170.943 84.542 170.197 84.724 169.354 84.8697L168.261 81.5138C168.85 81.174 169.517 80.8159 170.13 80.4518C170.749 80.0756 171.362 79.7054 171.951 79.3231C173.128 78.5585 174.251 77.7392 175.125 76.9079C175.549 76.4891 175.907 76.0643 176.114 75.7245C176.326 75.3786 176.308 75.148 176.247 75.2208C176.235 75.233 176.223 75.2572 176.217 75.2815C176.211 75.2937 176.211 75.3058 176.205 75.3119C176.205 75.3119 176.205 75.3301 176.199 75.3179L176.162 75.2087C176.071 74.9235 175.98 74.6383 175.865 74.353C175.653 73.7765 175.38 73.2 175.088 72.6175C174.506 71.4523 173.808 70.2932 173.019 69.1645C172.242 68.0236 171.393 66.907 170.494 65.8147C169.608 64.7163 168.656 63.6483 167.697 62.5863C167.217 62.0584 166.726 61.5365 166.228 61.0328C165.737 60.5412 165.209 59.989 164.766 59.5642L169.596 54.2968Z" fill="#FFC3BD"/>
<path d="M168.031 51.9968C170.774 52.3973 175.076 59.2608 175.076 59.2608L168.092 68.6183C168.092 68.6183 164.365 65.0683 163.279 61.943C161.198 55.9656 162.642 51.2019 168.031 51.9968Z" fill="#263238"/>
<path d="M164.372 75.5667C163.959 75.5667 163.558 75.3543 163.328 74.9781C162.806 74.1042 162.806 73.1211 162.812 72.3322C162.812 71.9074 162.818 71.428 162.715 71.2096C162.581 70.9183 162.187 70.5663 161.805 70.2265C161.198 69.6864 160.518 69.0795 160.233 68.1996C159.917 67.2165 160.16 66.2759 160.354 65.5174C160.445 65.1532 160.567 64.6981 160.524 64.5039C160.463 64.1944 160.16 63.7696 159.869 63.357C159.414 62.7137 158.898 61.9794 158.837 61.0874C158.77 60.0133 159.268 59.1637 159.668 58.484C159.82 58.2231 160.051 57.8286 160.063 57.689C160.087 57.3371 159.905 56.8395 159.735 56.354C159.468 55.6136 159.195 54.849 159.395 54.048C159.857 52.2396 160.639 51.481 161.016 51.123L161.095 51.0502C161.562 50.5647 162.326 50.5526 162.812 51.0198C163.297 51.4871 163.31 52.2517 162.842 52.7372C162.8 52.7797 162.757 52.8222 162.703 52.8768C162.442 53.1316 162.041 53.514 161.75 54.6548C161.744 54.7762 161.908 55.2374 162.023 55.5408C162.26 56.1962 162.551 57.0094 162.49 57.8711C162.436 58.5811 162.084 59.188 161.768 59.722C161.507 60.1589 161.246 60.614 161.265 60.9417C161.277 61.1481 161.616 61.6214 161.859 61.9673C162.278 62.5559 162.745 63.2235 162.909 64.0367C163.055 64.777 162.873 65.4991 162.709 66.1363C162.581 66.64 162.448 67.1619 162.545 67.4714C162.624 67.7202 163.067 68.1146 163.425 68.4302C163.965 68.9096 164.578 69.4618 164.924 70.2083C165.245 70.9122 165.245 71.6768 165.239 72.3504C165.239 72.8905 165.233 73.4488 165.415 73.7462C165.761 74.3227 165.573 75.0691 164.997 75.4089C164.802 75.5121 164.584 75.5667 164.372 75.5667Z" fill="#3E6897"/>
<path opacity="0.2" d="M156.337 43.0823L152.957 46.9115C153.206 47.5123 153.418 48.1312 153.552 48.7441C154.972 48.3254 156.737 46.4503 156.677 44.9089C156.646 44.1382 156.513 43.416 156.337 43.0823Z" fill="black"/>
<path d="M149.243 30.4841C147.744 33.0936 148.703 36.8014 148.703 36.8014C150.092 37.7177 151.421 36.9288 151.421 36.9288L150.997 30.0047L149.243 30.4841Z" fill="#263238"/>
<path d="M161.064 37.1109C159.917 41.6319 159.474 44.3384 156.713 46.25C152.568 49.1264 147.313 45.9587 147.089 41.1828C146.882 36.8864 148.8 30.2111 153.624 29.2341C158.376 28.2813 162.211 32.5899 161.064 37.1109Z" fill="#FFC3BD"/>
<path d="M147.841 42.3784C147.786 42.3784 147.732 42.3723 147.677 42.3602L137.391 40.1816C136.827 40.0602 136.347 39.7325 136.032 39.247C135.716 38.7676 135.613 38.1911 135.728 37.6268C135.85 37.0624 136.177 36.583 136.663 36.2674C137.148 35.9519 137.719 35.8487 138.283 35.964C138.714 36.055 138.987 36.4798 138.896 36.9107C138.805 37.3416 138.38 37.6207 137.949 37.5236C137.804 37.4933 137.652 37.5175 137.525 37.6025C137.397 37.6814 137.312 37.8088 137.282 37.9545C137.251 38.1001 137.276 38.2518 137.361 38.3793C137.44 38.5067 137.567 38.5917 137.713 38.622L147.999 40.8006C148.43 40.8916 148.703 41.3164 148.612 41.7473C148.539 42.1235 148.211 42.3784 147.841 42.3784Z" fill="#3E6897"/>
<path d="M147.799 42.5543L146.555 42.2934L146.949 40.4425L148.193 40.7034C148.703 40.8127 149.03 41.3163 148.921 41.8261C148.812 42.3358 148.308 42.6635 147.799 42.5543Z" fill="white"/>
<path d="M158.248 34.6168C158.248 32.8994 156.95 31.6432 152.617 31.9709C149.079 32.2379 147.362 30.5873 148.369 28.2874C151.233 29.7802 150.76 27.8262 156.222 27.5895C161.683 27.3528 163.267 29.4464 163.843 32.6142C167.187 37.5721 161.416 39.6293 161.416 39.6293L159.159 41.6015C159.159 41.6015 157.666 42.0142 156.567 40.7702C156.561 40.7641 156.118 36.7468 158.248 34.6168Z" fill="#263238"/>
<path d="M152.447 26.7339L152.308 26.8128C151.737 27.1162 151.713 27.9233 152.259 28.2631L164.93 36.0975C165.44 36.413 166.107 36.1036 166.198 35.5088C166.32 34.7078 165.955 33.9128 165.264 33.488L154.462 26.7945C153.849 26.4183 153.084 26.394 152.447 26.7339Z" fill="#343D49"/>
<path d="M154.729 27.5713L157.975 22.8319C158.17 22.5527 158.546 22.4678 158.837 22.6438L167.782 27.9961C168.11 28.1903 168.195 28.6333 167.964 28.9367L164.08 34.0585L154.729 27.5713Z" fill="#343D49"/>
<path d="M154.729 27.5713L156.021 25.2653L166.01 31.8678L164.08 34.0645L154.729 27.5713Z" fill="#343D49"/>
<path opacity="0.88" d="M154.729 27.5713L156.021 25.2653L166.01 31.8678L164.08 34.0645L154.729 27.5713Z" fill="#BCD0E6"/>
<path d="M161.635 42.6575C160.67 43.3189 159.511 43.4889 158.6 43.3129C157.229 43.0519 157.223 41.6501 158.176 40.661C159.031 39.7689 160.785 38.8344 161.89 39.6111C162.976 40.3757 162.733 41.905 161.635 42.6575Z" fill="#FFC3BD"/>
<path d="M158.934 192.433L166.896 192.415C166.896 192.415 165.646 164.099 163.928 149.547C163.406 145.117 163.971 139.049 164.025 132.27C164.098 123.732 164.493 114.429 164.881 107.129C165.294 99.44 165.64 93.8995 165.64 93.8995L149.352 96.2237C149.352 96.2237 147.732 136.542 150.268 150.67C152.902 165.362 158.934 192.433 158.934 192.433Z" fill="#263238"/>
<path opacity="0.2" d="M164.026 132.276C164.098 123.738 164.493 114.435 164.881 107.135L162.436 103.888C159.456 109.502 161.537 124.448 164.026 132.276Z" fill="black"/>
<path d="M157.113 95.1193C157.113 95.1193 167.236 135.068 172.036 147.982C177.297 162.127 196.68 178.652 196.68 178.652L201.571 173.263C201.571 173.263 191.321 157.285 183.772 141.907C180.155 121.948 174.257 92.6616 174.257 92.6616L157.113 95.1193Z" fill="#263238"/>
<path d="M196.018 179.471L203.689 172.838L201.711 170.544L193.002 177.808L196.018 179.471Z" fill="#263238"/>
<path d="M157.939 192.621L167.424 192.609V189.544L156.81 189.399L157.939 192.621Z" fill="#263238"/>
<path d="M154.067 36.2249C153.77 36.1278 153.412 36.4252 153.266 36.8803L154.346 37.2262C154.486 36.7711 154.365 36.322 154.067 36.2249Z" fill="#263238"/>
<path d="M149.334 35.3328C149.018 35.3146 148.745 35.6848 148.709 36.1642L149.844 36.237C149.874 35.7576 149.649 35.351 149.334 35.3328Z" fill="#263238"/>
<path d="M150.966 36.7165C150.966 36.7165 149.71 38.707 148.581 39.5687C149.122 40.309 150.299 40.2423 150.299 40.2423L150.966 36.7165Z" fill="#ED847E"/>
<path d="M155.609 35.7334C155.645 35.7395 155.681 35.7395 155.724 35.7273C155.839 35.6909 155.906 35.5695 155.87 35.4482C155.512 34.2709 154.528 33.9735 154.486 33.9614C154.365 33.925 154.243 33.9978 154.213 34.1131C154.176 34.2284 154.243 34.3559 154.365 34.3862C154.395 34.3983 155.16 34.635 155.445 35.5756C155.469 35.6606 155.536 35.7152 155.609 35.7334Z" fill="#263238"/>
<path d="M147.932 34.6957C148.005 34.7078 148.078 34.6835 148.132 34.6228C148.794 33.8946 149.589 34.0039 149.619 34.0039C149.74 34.0221 149.856 33.9371 149.874 33.8157C149.892 33.6944 149.813 33.5791 149.692 33.5609C149.649 33.5548 148.63 33.4031 147.805 34.3194C147.72 34.4105 147.732 34.55 147.823 34.635C147.853 34.6714 147.896 34.6896 147.932 34.6957Z" fill="#263238"/>
<path d="M201.577 183.197C201.905 182.912 202.202 182.535 202.402 182.262C202.427 182.226 202.433 182.177 202.409 182.135C202.384 182.098 202.342 182.074 202.299 182.08C202.105 182.111 200.376 182.371 200.145 182.918C200.109 183.003 200.09 183.136 200.2 183.288C200.345 183.494 200.527 183.597 200.74 183.597C201.013 183.597 201.304 183.427 201.577 183.197ZM202.063 182.347C201.559 182.997 201.073 183.373 200.746 183.373C200.6 183.373 200.479 183.3 200.382 183.154C200.333 183.081 200.339 183.039 200.351 183.009C200.467 182.717 201.371 182.469 202.063 182.347Z" fill="#3E6897"/>
<path d="M202.384 182.274C202.403 182.262 202.415 182.244 202.421 182.22C202.433 182.177 202.421 182.135 202.396 182.104C202.36 182.062 201.426 181.073 200.734 181.079C200.552 181.079 200.4 181.146 200.285 181.279C200.103 181.479 200.151 181.655 200.2 181.74C200.449 182.214 201.802 182.408 202.336 182.299C202.354 182.299 202.372 182.286 202.384 182.274ZM200.479 181.407C200.546 181.346 200.631 181.316 200.734 181.316C201.177 181.309 201.784 181.831 202.069 182.104C201.474 182.135 200.533 181.916 200.388 181.631C200.376 181.607 200.345 181.546 200.442 181.437C200.455 181.425 200.467 181.413 200.479 181.407Z" fill="#3E6897"/>
<path d="M160.882 198.896C160.919 198.884 160.949 198.847 160.955 198.805C160.961 198.756 160.937 198.714 160.894 198.69C160.682 198.58 158.789 197.621 158.218 197.943C158.109 198.004 158.042 198.107 158.036 198.24C158.018 198.465 158.091 198.647 158.248 198.781C158.764 199.236 160.111 199.048 160.87 198.896C160.876 198.902 160.876 198.902 160.882 198.896ZM158.37 198.125C158.722 198.004 159.747 198.392 160.494 198.744C159.456 198.92 158.679 198.872 158.394 198.617C158.291 198.526 158.248 198.41 158.261 198.259C158.267 198.198 158.285 198.168 158.333 198.137C158.346 198.137 158.358 198.131 158.37 198.125Z" fill="#3E6897"/>
<path d="M160.882 198.896C160.894 198.89 160.9 198.89 160.913 198.884C160.943 198.859 160.961 198.823 160.961 198.781C160.955 198.726 160.828 197.458 160.227 196.972C160.045 196.82 159.838 196.76 159.608 196.784C159.304 196.814 159.213 196.972 159.195 197.093C159.11 197.628 160.239 198.641 160.803 198.896C160.828 198.908 160.858 198.908 160.882 198.896ZM159.517 197.027C159.547 197.015 159.584 197.009 159.632 197.002C159.802 196.984 159.948 197.033 160.087 197.142C160.482 197.464 160.652 198.222 160.712 198.592C160.13 198.246 159.365 197.445 159.42 197.13C159.414 197.106 159.426 197.057 159.517 197.027Z" fill="#3E6897"/>
<path d="M168.844 81.2225L164.323 82.6547L167.837 86.1501C167.837 86.1501 171.939 84.372 170.652 82.5636L168.844 81.2225Z" fill="#FFC3BD"/>
<path d="M162.454 86.6478L165.676 88.5957L167.83 86.1501L164.317 82.6547L162.454 86.6478Z" fill="#FFC3BD"/>
</g>
<defs>
<filter id="filter0_d_11_771" x="0" y="0" width="232" height="209.581" filterUnits="userSpaceOnUse" color-interpolation-filters="sRGB">
<feFlood flood-opacity="0" result="BackgroundImageFix"/>
<feColorMatrix in="SourceAlpha" type="matrix" values="0 0 0 0 0 0 0 0 0 0 0 0 0 0 0 0 0 0 127 0" result="hardAlpha"/>
<feOffset dy="2"/>
<feGaussianBlur stdDeviation="2"/>
<feComposite in2="hardAlpha" operator="out"/>
<feColorMatrix type="matrix" values="0 0 0 0 0 0 0 0 0 0 0 0 0 0 0 0 0 0 0.25 0"/>
<feBlend mode="normal" in2="BackgroundImageFix" result="effect1_dropShadow_11_771"/>
<feBlend mode="normal" in="SourceGraphic" in2="effect1_dropShadow_11_771" result="shape"/>
</filter>
</defs>
</svg>
