<svg width="49" height="99" viewBox="0 0 49 99" fill="none" xmlns="http://www.w3.org/2000/svg">
<path d="M31.8031 94.7057L34.7577 94.2753L34.0131 87.3575L31.0555 87.7908L31.8031 94.7057Z" fill="#E8BFBF"/>
<path d="M37.03 94.3792C37.2881 94.3614 37.5284 94.2546 37.7182 94.0795C37.7983 93.9786 37.825 93.842 37.7864 93.7174C37.7686 93.6402 37.7123 93.5749 37.6381 93.5512C37.2436 93.4087 36.1638 94.2071 36.0422 94.2961C36.0184 94.3139 36.0095 94.3466 36.0155 94.3762C36.0244 94.4029 36.051 94.4237 36.0807 94.4237C36.3981 94.4356 36.7155 94.4208 37.03 94.3792ZM37.4453 93.6848C37.4898 93.6729 37.5373 93.6759 37.5788 93.6877C37.6084 93.6966 37.6322 93.7233 37.6411 93.756C37.6648 93.8391 37.65 93.9281 37.5966 93.9934C37.4453 94.1833 36.9618 94.2902 36.2884 94.2902C36.6384 94.0231 37.033 93.8153 37.4512 93.6788L37.4453 93.6848Z" fill="#FCFDFF"/>
<path d="M36.0985 94.4237L36.1223 94.4119C36.4515 94.1952 37.0419 93.4444 36.9291 93.1179C36.8965 93.0437 36.8342 92.9517 36.6355 92.9636C36.4931 92.9666 36.3566 93.0289 36.2617 93.1387C35.9413 93.5067 36.0066 94.3169 36.0066 94.3495C36.0066 94.3733 36.0155 94.397 36.0362 94.4119C36.054 94.4267 36.0778 94.4297 36.0985 94.4237ZM36.5939 93.112L36.6325 93.0942C36.763 93.0883 36.7779 93.1357 36.7808 93.1535C36.849 93.3494 36.4575 93.9281 36.1312 94.1952C36.1015 93.8539 36.1786 93.5126 36.3566 93.2218C36.4189 93.1565 36.5049 93.115 36.5969 93.109L36.5939 93.112Z" fill="#FCFDFF"/>
<path d="M34.4551 93.0497L31.8358 93.6759C31.7171 93.6996 31.637 93.8094 31.6489 93.9311L31.7349 97.7239C31.7705 97.991 32.0167 98.175 32.2807 98.1394C32.2985 98.1364 32.3163 98.1334 32.3341 98.1275C33.4703 97.8456 34.0042 97.6526 35.4489 97.3203C36.3329 97.1155 39.1362 96.9048 40.2842 96.3943C41.4323 95.8839 40.9843 94.7175 40.4622 94.8303C38.7773 95.1924 36.6147 94.4712 35.3866 93.3732C35.2205 93.2871 34.6361 93.0022 34.4551 93.0497Z" fill="#263238"/>
<path opacity="0.2" d="M34.0131 87.3575L34.3958 90.9247L31.4412 91.358L31.0555 87.7938L34.0131 87.3575Z" fill="black"/>
<path d="M35.5913 89.4557L30.1241 90.4766C30.1241 90.4766 27.4691 86.6838 26.9678 83.9921C26.4457 81.1876 27.0034 71.6433 26.9678 71.5156C25.4222 66.2924 21.2188 52.7594 19.1927 47.7796C18.0684 45.0195 17.2793 43.1617 17.2793 43.1617L17.8459 43.0341L22.3074 41.206L25.5587 41.8203C25.5587 41.8203 35.44 61.8111 36.4782 69.3314C37.2525 74.9464 35.5913 89.4557 35.5913 89.4557Z" fill="#FCFDFF"/>
<path d="M35.5913 89.4557L30.1241 90.4766C30.1241 90.4766 27.4691 86.6838 26.9678 83.9921C26.4457 81.1876 27.0034 71.6433 26.9678 71.5156C25.4222 66.2924 21.2188 52.7594 19.1927 47.7796C18.0684 45.0195 17.2793 43.1617 17.2793 43.1617L17.8459 43.0341L22.3074 41.206L25.5587 41.8203C25.5587 41.8203 35.44 61.8111 36.4782 69.3314C37.2525 74.9464 35.5913 89.4557 35.5913 89.4557Z" fill="#263238"/>
<path opacity="0.2" d="M25.6804 66.9957C24.1348 61.7725 21.0141 53.8516 18.9851 48.8717L17.6413 44.1262L17.3832 43.2122L17.8548 44.0758L23.15 55.8132C25.4875 60.3035 25.716 67.1204 25.6804 66.9957Z" fill="black"/>
<path d="M1.68445 93.0764L4.31866 94.1863L7.1279 88.1559L4.49665 87.0459L1.68445 93.0764Z" fill="#E8BFBF"/>
<path d="M6.03333 95.4506C6.24098 95.5812 6.49016 95.6376 6.73341 95.6079C6.85207 95.5753 6.94996 95.4862 6.98853 95.3675C7.01819 95.2993 7.01226 95.2162 6.96777 95.1538C6.74231 94.8215 5.45783 94.8244 5.31544 94.8274C5.28578 94.8274 5.26205 94.8482 5.25018 94.8719C5.24128 94.8986 5.25315 94.9283 5.27391 94.9461C5.5142 95.139 5.76635 95.3052 6.03333 95.4506ZM6.74528 95.1509C6.78681 95.1687 6.82241 95.1954 6.84614 95.231C6.86394 95.2547 6.8669 95.2904 6.85504 95.3171C6.82834 95.3942 6.76604 95.4536 6.68595 95.4773C6.4605 95.5367 6.03036 95.3468 5.50827 94.9669C5.9295 94.958 6.35074 95.0203 6.75121 95.1538L6.74528 95.1509Z" fill="#263238"/>
<path d="M5.28884 94.9609L5.31257 94.9669C5.68635 94.9847 6.57035 94.7383 6.66824 94.4238C6.68308 94.3496 6.68901 94.2427 6.52882 94.1389C6.41609 94.0587 6.27667 94.032 6.14318 94.0617C5.68931 94.1656 5.27994 94.8244 5.26214 94.8511C5.24731 94.8689 5.24138 94.8956 5.25027 94.9164C5.25324 94.9342 5.26807 94.952 5.28884 94.9609ZM6.41313 94.2279L6.45466 94.2368C6.55848 94.305 6.54365 94.3525 6.53772 94.3674C6.48135 94.5573 5.85247 94.7829 5.44903 94.8066C5.61812 94.5276 5.87323 94.308 6.17284 94.1834C6.25887 94.1685 6.34786 94.1863 6.42203 94.2338L6.41313 94.2279Z" fill="#263238"/>
<path d="M4.79636 92.9696L2.42023 91.9694C2.3164 91.922 2.19181 91.9605 2.13248 92.0614L0.0559578 95.0381C-0.0656671 95.2636 0.0173952 95.5456 0.242846 95.6673C0.257679 95.6762 0.275474 95.6821 0.290306 95.691C1.3256 96.1154 1.8477 96.2697 3.15294 96.8276C3.95092 97.1719 6.23509 98.5905 7.40981 98.8457C8.58453 99.1009 8.89601 97.9495 8.43028 97.7358C6.92628 97.0621 5.66257 95.2844 5.33329 93.7412C5.2532 93.5839 4.96248 93.0349 4.79636 92.9696Z" fill="#263238"/>
<path opacity="0.2" d="M7.24369 88.2271L5.71893 91.2987L3.11438 90.1294L4.63321 87.0548L7.24369 88.2271Z" fill="black"/>
<path d="M7.79248 91.5747L2.54778 88.7791C2.54778 88.7791 1.54215 85.0427 2.54778 82.6596C4.48191 78.0744 9.51896 71.3317 9.55159 71.204C10.8954 65.9244 13.2508 51.4714 14.0576 46.1532C14.5056 43.2062 14.7666 42.5712 14.7666 42.5712L15.3214 42.7522L23.3456 42.767C23.3456 42.767 24.8585 54.9259 19.0561 73.7504C17.6115 78.4335 15.1938 82.3272 11.2128 87.5979C9.70288 89.5982 7.79248 91.5747 7.79248 91.5747Z" fill="#263238"/>
<path d="M7.79248 91.5747L2.54778 88.7791C2.54778 88.7791 1.54215 85.0427 2.54778 82.6596C4.48191 78.0744 9.51896 71.3317 9.55159 71.204C10.8954 65.9244 13.2508 51.4714 14.0576 46.1532C14.5056 43.2062 14.7666 42.5712 14.7666 42.5712L15.3214 42.7522L23.3456 42.767C23.3456 42.767 24.8585 54.9259 19.0561 73.7504C17.6115 78.4335 15.1938 82.3272 11.2128 87.5979C9.70288 89.5982 7.79248 91.5747 7.79248 91.5747Z" fill="#2A3036"/>
<path d="M30.4563 32.8339C30.5156 31.9317 31.1119 30.7713 31.6281 30.2342C31.7942 30.062 32.4201 29.8009 32.7731 29.5694C34.5144 28.4268 38.003 26.9993 38.003 26.9993L39.0798 27.9371C39.0798 27.9371 36.9558 29.9908 35.6921 30.9761C35.4429 31.169 35.1552 31.4034 34.8526 31.6527C34.3038 32.1127 31.7141 33.8192 31.2217 34.2466L30.4563 32.8339Z" fill="#E8BFBF"/>
<path d="M41.0702 26.471L39.0797 27.943L37.9644 27.121C37.9644 27.121 38.4212 26.5393 38.8869 26.0911C39.0916 25.8923 39.2043 25.6222 39.2073 25.3373C39.2103 24.8981 39.2785 24.3906 39.5158 24.0167C39.5218 24.0078 39.5247 23.9989 39.5306 23.9929C39.9608 23.343 40.9723 23.5389 41.1741 24.2897L41.4618 25.3522C41.5745 25.7677 41.4203 26.2128 41.0702 26.471Z" fill="#E8BFBF"/>
<path d="M31.0911 33.2316L30.566 33.7124C30.4028 33.5818 30.1418 33.3711 29.8155 33.101C27.2584 30.9761 20.8479 25.8271 23.405 24.3551C25.5942 23.0938 27.9229 26.9518 29.0828 28.1093C29.3201 28.3497 29.9668 29.0946 30.4889 30.0324C31.0347 31.0147 31.4381 32.2048 31.0911 33.2316Z" fill="#263238"/>
<path d="M30.486 29.5724C29.5782 30.2371 28.804 31.08 28.2196 32.0415C28.6408 33.4364 29.6999 34.6472 31.0348 35.2289C31.7675 33.5314 32.1057 31.7032 31.9633 29.8602C31.5005 29.7593 30.9488 29.6703 30.486 29.5724Z" fill="#263238"/>
<path d="M16.4101 24.0553C15.4964 24.3491 14.4492 24.1147 13.8619 24.8744C13.2745 25.6341 13.0995 26.6402 13.0995 27.6018C13.0995 28.9373 13.405 30.2549 13.7106 31.5548C14.0784 33.1337 14.4463 34.7125 14.8171 36.2914C15.0692 37.3716 14.8052 42.3871 15.0722 42.4732C15.0722 42.4732 23.4584 42.31 25.5616 42.0132C25.5616 42.0132 25.7455 36.8552 25.9116 35.0983C25.9502 34.7095 26.5405 33.0535 26.6087 32.638C26.9351 30.6793 26.2943 29.2964 25.615 27.4296C25.615 27.4296 24.1288 24.4381 23.405 24.358C22.1146 24.2126 18.9582 23.2362 16.4101 24.0553Z" fill="#263238"/>
<path d="M16.0572 26.5304C16.0275 26.3553 14.5383 23.349 13.1115 25.4502C11.1269 28.3764 10.9934 32.0504 10.9934 32.0504C10.9934 32.0504 9.77421 35.6236 10.6226 36.4042C11.474 37.1847 12.3906 37.6862 12.9839 37.244C13.5772 36.8018 13.9629 35.9174 13.9629 35.9174C13.9629 35.9174 16.5793 29.5932 16.0572 26.5304Z" fill="#263238"/>
<path d="M15.9592 22.9394C15.3333 23.4291 15.4164 24.5598 16.1046 24.9545C15.9325 25.5599 16.1343 26.2603 16.6059 26.6788C17.0776 27.0972 17.7955 27.216 18.3769 26.9726C18.1248 27.4237 18.4095 28.0173 18.8426 28.2962C19.2757 28.5752 19.8127 28.6256 20.3229 28.6939C20.8331 28.7622 21.373 28.872 21.7468 29.2311C22.2748 28.4713 22.8029 27.7086 23.3339 26.9489C23.5385 26.6521 23.7521 26.3345 23.7699 25.9754C23.7848 25.6163 23.5119 25.2187 23.1529 25.2454C23.5178 24.8655 23.5267 24.1948 23.1677 23.806C22.8118 23.4172 22.1443 23.3668 21.732 23.6992C21.8061 23.3935 21.6281 23.07 21.3701 22.8919C21.112 22.7139 20.7916 22.6515 20.4801 22.6219L15.9592 22.9394Z" fill="#263238"/>
<path d="M16.9115 19.0665C17.3238 20.5801 17.8252 23.3727 16.8225 24.4767C16.8225 24.4767 19.6555 25.6104 21.6667 27.8896C22.6041 26.9785 22.5063 25.9547 22.2185 25.2068C21.996 24.6281 21.5184 24.1977 20.9459 23.9544C19.8424 23.4855 19.8335 22.3993 20.0174 21.3606L16.9115 19.0665Z" fill="#E8BFBF"/>
<path opacity="0.2" d="M17.5284 21.6455L18.5697 21.9274C19.0146 22.0491 19.4833 22.0758 19.9402 22.0075C19.9372 22.2331 19.8957 22.7079 20.0381 22.9602C19.4388 23.2481 18.4273 23.0522 17.9823 22.5239C17.7954 22.3192 17.6293 21.9037 17.5284 21.6455Z" fill="black"/>
<path d="M14.8913 17.7785C15.9949 20.1052 16.4102 21.1143 18.11 21.8562C20.667 22.975 23.2775 21.1054 22.8889 18.4967C22.5418 16.1492 20.7946 12.7363 18.0803 12.7244C16.1402 12.7066 14.5532 14.2617 14.5324 16.2026C14.5294 16.7457 14.6511 17.2858 14.8913 17.7785Z" fill="#E8BFBF"/>
<path d="M16.1016 13.3328C15.2977 12.9589 14.3009 13.2645 13.6305 13.8522C12.9512 14.4516 12.5359 15.2885 12.1384 16.1047C11.9218 16.5469 11.7053 16.998 11.6044 17.4787C11.5036 17.9625 11.5332 18.4908 11.7883 18.9122C12.0375 19.3247 12.5033 19.5977 12.9838 19.6244C13.2597 19.6393 13.5831 19.8411 13.675 20.1022C13.7581 20.3456 13.7195 20.6097 13.6809 20.862C13.6424 21.1083 13.6068 21.3635 13.6839 21.598C13.8115 21.9897 14.2297 22.2272 14.6421 22.2687C15.0515 22.3073 15.4579 22.1886 15.8554 22.0728C16.1045 21.9986 16.3567 22.0402 16.5525 22.2153C16.5999 22.2598 16.6415 22.3103 16.6711 22.3696C16.7928 22.6041 17.1487 22.5655 17.2526 22.3221C17.6115 21.4674 17.0894 20.1052 16.3122 19.0635C15.8999 18.5115 15.9206 18.651 15.7604 17.9803C15.624 17.4224 15.8287 16.8407 16.0808 16.3243C16.4131 15.6358 16.8432 14.9621 16.7097 14.14C16.6474 13.7928 16.422 13.4812 16.1016 13.3328Z" fill="#263238"/>
<path d="M14.9596 20.1586C15.3244 20.5474 15.8317 20.7759 16.3657 20.7937C17.0746 20.8086 17.2526 20.1319 16.9115 19.5562C16.603 19.0368 15.8614 18.4047 15.2206 18.654C14.5798 18.9063 14.5146 19.6749 14.9596 20.1586Z" fill="#E8BFBF"/>
<path d="M19.3232 17.363C19.4062 17.5678 19.5664 17.6746 19.694 17.6212C19.8215 17.5678 19.8542 17.3749 19.783 17.1761C19.7118 16.9772 19.5397 16.8674 19.4122 16.9179C19.2846 16.9713 19.2461 17.1701 19.3232 17.363Z" fill="#263238"/>
<path d="M21.4946 16.4282C21.5747 16.633 21.7378 16.7398 21.8654 16.6893C21.99 16.6389 22.0256 16.443 21.9544 16.2442C21.8832 16.0453 21.7111 15.9355 21.5836 15.983C21.456 16.0305 21.4174 16.2353 21.4946 16.4282Z" fill="#263238"/>
<path d="M21.5271 16.0216L21.9394 15.6981C21.9394 15.6981 21.8504 16.1581 21.5271 16.0216Z" fill="#263238"/>
<path d="M20.931 16.8645C21.4353 17.3631 21.815 17.4521 22.3609 17.7963C22.346 18.2801 21.8892 18.3929 21.8892 18.3929L20.931 16.8645Z" fill="#ED847E"/>
<path d="M21.6577 19.3425C21.7526 19.3069 21.8416 19.2654 21.9306 19.2149C21.9603 19.2001 21.9692 19.1644 21.9544 19.1348C21.9544 19.1348 21.9544 19.1318 21.9514 19.1318C21.9336 19.1021 21.898 19.0932 21.8683 19.1051C21.4085 19.3722 20.8479 19.4019 20.3614 19.1852C20.3317 19.1704 20.2931 19.1793 20.2783 19.2119C20.2635 19.2416 20.2724 19.2802 20.305 19.295C20.7322 19.4909 21.2187 19.5087 21.6577 19.3425Z" fill="#263238"/>
<path d="M19.243 15.7486C19.2401 15.805 19.2015 15.8524 19.1481 15.8673C18.5786 16.0364 18.3264 16.7576 18.3264 16.7635C18.3027 16.8318 18.2315 16.8674 18.1632 16.8437C18.095 16.8199 18.0594 16.7487 18.0832 16.6804C18.1039 16.6537 18.3798 15.8257 19.074 15.618C19.1422 15.6002 19.2134 15.6388 19.2341 15.7041C19.2401 15.7189 19.243 15.7337 19.243 15.7486Z" fill="#263238"/>
<path d="M21.8683 15.3984C21.8208 15.4281 21.7615 15.4221 21.717 15.3865C21.2542 15.0155 20.5156 15.2203 20.5126 15.2203C20.4444 15.2411 20.3732 15.2025 20.3524 15.1343C20.3317 15.066 20.3702 14.9948 20.4384 14.974C20.474 14.977 21.3106 14.7306 21.8772 15.1817C21.9306 15.2263 21.9395 15.3064 21.8979 15.3628C21.889 15.3776 21.8801 15.3895 21.8683 15.3984Z" fill="#263238"/>
<path d="M19.3617 16.9535L19.774 16.633C19.774 16.633 19.6791 17.093 19.3617 16.9535Z" fill="#263238"/>
<path d="M16.2796 12.944C15.6329 12.9945 15.0159 13.3654 14.6658 13.9115C14.4315 14.2795 14.3484 14.8374 14.6955 15.0986C14.8586 15.2203 15.0752 15.244 15.2769 15.2618C16.1787 15.342 17.2941 14.6445 17.2941 14.6445C16.947 13.1696 20.0381 12.027 21.5628 14.3121C22.0108 14.9829 21.8892 15.4696 22.6337 15.7812C22.9838 15.9266 23.4465 15.888 23.672 16.1937C24.0458 16.7012 23.3279 17.5618 23.7847 17.9981C24.0962 18.2978 24.8022 18.1821 24.8438 18.6124C24.8645 18.8142 24.731 19.1051 24.9268 19.1644C25.0336 19.1971 25.1315 19.0991 25.2027 19.0101C25.3718 18.7964 25.5438 18.5738 25.6002 18.3097C25.6566 18.0456 25.5646 17.7251 25.3154 17.6123C25.1256 17.5262 24.6242 17.6212 24.6598 17.8289C24.7014 18.0753 24.4878 16.8614 24.5827 16.4044C24.6658 16.0067 25.0455 15.6595 24.9298 15.2678C24.8052 14.8493 24.3098 14.6831 23.8797 14.6208C23.4495 14.5585 22.96 14.505 22.696 14.1608C22.4023 13.775 22.5358 13.223 22.4409 12.7481C22.3193 12.1427 21.815 11.6708 21.2484 11.4245C19.5308 10.6766 16.8699 10.7805 16.2796 12.944Z" fill="#263238"/>
<path d="M21.1653 20.862L15.2353 23.8416C13.2864 24.821 12.4024 27.1269 13.2004 29.1598L16.06 36.4576C16.858 38.4905 19.071 39.5826 21.1683 38.9772L27.5462 37.1372C29.9371 36.4486 31.2157 33.8519 30.3079 31.534L27.0003 23.0938C26.0896 20.7819 23.3872 19.7461 21.1653 20.862ZM20.1834 33.3978C18.8604 33.9172 17.3682 33.2642 16.8491 31.9406C16.33 30.617 16.9826 29.1242 18.3056 28.6078C19.6287 28.0885 21.1208 28.7414 21.6399 30.065C22.1591 31.3857 21.5064 32.8784 20.1834 33.3978Z" fill="#FCFDFF"/>
<path d="M21.1653 20.862L15.2353 23.8416C13.2864 24.821 12.4024 27.1269 13.2004 29.1598L16.06 36.4576C16.858 38.4905 19.071 39.5826 21.1683 38.9772L27.5462 37.1372C29.9371 36.4486 31.2157 33.8519 30.3079 31.534L27.0003 23.0938C26.0896 20.7819 23.3872 19.7461 21.1653 20.862ZM20.1834 33.3978C18.8604 33.9172 17.3682 33.2642 16.8491 31.9406C16.33 30.617 16.9826 29.1242 18.3056 28.6078C19.6287 28.0885 21.1208 28.7414 21.6399 30.065C22.1591 31.3857 21.5064 32.8784 20.1834 33.3978Z" fill="#FCFDFF"/>
<path opacity="0.1" d="M30.305 31.54L26.9944 23.0997C26.0867 20.7818 23.3842 19.7461 21.1623 20.862L19.4388 21.7286L18.2819 22.3102L15.2324 23.8446C13.2805 24.8239 12.3994 27.1299 13.1944 29.1628L16.0541 36.4605C16.8521 38.4934 19.0651 39.5855 21.1623 38.9801L27.5432 37.1401C28.0653 36.9888 28.534 36.7454 28.9404 36.4338C29.2548 36.1934 29.5307 35.9144 29.7591 35.6028C30.5986 34.4751 30.8597 32.9556 30.305 31.54ZM20.1834 33.3978C18.8633 33.9171 17.3682 33.2642 16.8521 31.9406C16.3329 30.6199 16.9856 29.1242 18.3086 28.6078C19.6287 28.0885 21.1238 28.7414 21.6399 30.062C22.1561 31.3856 21.5064 32.8784 20.1834 33.3978Z" fill="white"/>
<path d="M21.2245 21.417L15.6624 24.2126C13.8321 25.1326 13.0074 27.2931 13.752 29.1984L16.4337 36.0421C17.1813 37.9474 19.2578 38.9742 21.2245 38.4044L27.2079 36.6772C29.4505 36.0302 30.649 33.5966 29.7976 31.4242L26.6947 23.5092C25.8463 21.3428 23.31 20.3694 21.2245 21.417ZM16.849 31.9406C16.3299 30.617 16.9825 29.1242 18.3055 28.6078C19.6286 28.0885 21.1207 28.7414 21.6398 30.065C22.159 31.3886 21.5064 32.8814 20.1833 33.3978C18.8603 33.9142 17.3681 33.2613 16.849 31.9406Z" fill="#FCFDFF"/>
<path opacity="0.1" d="M21.2245 21.417L15.6624 24.2126C13.8321 25.1326 13.0074 27.2931 13.752 29.1984L16.4337 36.0421C17.1813 37.9474 19.2578 38.9742 21.2245 38.4044L27.2079 36.6772C29.4505 36.0302 30.649 33.5966 29.7976 31.4242L26.6947 23.5092C25.8463 21.3428 23.31 20.3694 21.2245 21.417ZM16.849 31.9406C16.3299 30.617 16.9825 29.1242 18.3055 28.6078C19.6286 28.0885 21.1207 28.7414 21.6398 30.065C22.159 31.3886 21.5064 32.8814 20.1833 33.3978C18.8603 33.9142 17.3681 33.2613 16.849 31.9406Z" fill="#FCFDFF"/>
<path d="M48.8661 18.7786L48.697 19.0903L48.602 19.2624L48.3351 19.7521L48.4478 21.0074C48.4537 21.0608 48.4478 21.1143 48.43 21.1647C48.3944 21.2745 48.3113 21.3636 48.2016 21.4081L45.8581 22.3251C45.7483 22.3696 45.6267 22.3577 45.5258 22.3014C45.4932 22.2836 45.4635 22.2598 45.4368 22.2331L44.1108 20.8857L44.1078 20.8828L42.2242 21.6217L42.4971 22.3192L40.6134 23.0581L41.0643 24.2067L39.676 24.7498C39.5632 24.7943 39.4357 24.7854 39.3319 24.732C39.2963 24.7141 39.2666 24.6904 39.2369 24.6637L38.436 23.9099L36.5523 24.6489L37.0032 25.7974L35.0216 26.5749L35.4725 27.7264C35.5466 27.9134 35.4547 28.1271 35.2648 28.2013L29.8362 30.3262L27.4808 24.3165L47.1158 16.627L47.4244 16.7843L48.4211 17.2948C48.9521 17.5708 49.1597 18.2444 48.8661 18.7786Z" fill="#FCFDFF"/>
<g opacity="0.1">
<path d="M48.8661 18.7786L48.697 19.0903L48.602 19.2624L48.3351 19.7521L48.4478 21.0074C48.4537 21.0608 48.4478 21.1143 48.43 21.1647C48.3944 21.2745 48.3113 21.3636 48.2016 21.4081L45.8581 22.3251C45.7483 22.3696 45.6267 22.3577 45.5258 22.3014C45.4932 22.2836 45.4635 22.2598 45.4368 22.2331L44.1108 20.8857L44.1078 20.8828L42.2242 21.6217L42.4971 22.3192L40.6134 23.0581L41.0643 24.2067L39.676 24.7498C39.5632 24.7943 39.4357 24.7854 39.3319 24.732C39.2963 24.7141 39.2666 24.6904 39.2369 24.6637L38.436 23.9099L36.5523 24.6489L37.0032 25.7974L35.0216 26.5749L35.4725 27.7264C35.5466 27.9134 35.4547 28.1271 35.2648 28.2013L29.8362 30.3262L27.4808 24.3165L47.1158 16.627L47.4244 16.7843L48.4211 17.2948C48.9521 17.5708 49.1597 18.2444 48.8661 18.7786Z" fill="white"/>
</g>
<path d="M48.789 18.0931L27.7983 26.3138L27.1873 24.7705L47.199 16.9357L48.1957 17.4461C48.5754 17.639 48.792 17.82 48.789 18.0931Z" fill="#FCFDFF"/>
<path opacity="0.1" d="M48.789 18.0931L27.7983 26.3138L27.1873 24.7705L47.199 16.9357L48.1957 17.4461C48.5754 17.639 48.792 17.82 48.789 18.0931Z" fill="black"/>
<path d="M48.3736 19.2535L48.1719 19.7105C48.169 19.7194 48.166 19.7253 48.169 19.7343L48.2817 20.9777C48.2846 21.0223 48.2817 21.0668 48.2698 21.1113C48.2668 21.1261 48.255 21.138 48.2402 21.1439L45.692 22.147C45.6771 22.153 45.6623 22.153 45.6504 22.1441C45.6267 22.1292 45.603 22.1114 45.5822 22.0877L44.1227 20.6216C44.1079 20.6068 44.0901 20.6038 44.0723 20.6097L42.0017 21.4259C41.978 21.4348 41.9661 21.4645 41.975 21.4882L42.2212 22.1114C42.2301 22.1352 42.2182 22.1648 42.1945 22.1737L40.4295 22.8682C40.4057 22.8771 40.3939 22.9068 40.4028 22.9305L40.827 24.0078C40.8359 24.0316 40.824 24.0612 40.8003 24.0701L39.5069 24.5806C39.495 24.5865 39.4772 24.5865 39.4654 24.5776C39.4387 24.5628 39.412 24.542 39.3882 24.5212L38.4419 23.6487C38.4271 23.6369 38.4093 23.6339 38.3915 23.6398L36.3357 24.45C36.312 24.4589 36.3001 24.4886 36.309 24.5123L36.7451 25.6163C36.754 25.6401 36.7422 25.6698 36.7184 25.6787L28.8247 28.7859C28.8009 28.7948 28.7713 28.7829 28.7624 28.7592L27.9733 26.7827C27.9644 26.7589 27.9763 26.7293 28 26.7203L48.5694 18.6213C48.608 18.6065 48.6495 18.6451 48.6317 18.6866L48.3736 19.2535Z" fill="#FCFDFF"/>
<path opacity="0.1" d="M48.3736 19.2535L48.1719 19.7105C48.169 19.7194 48.166 19.7253 48.169 19.7343L48.2817 20.9777C48.2846 21.0223 48.2817 21.0668 48.2698 21.1113C48.2668 21.1261 48.255 21.138 48.2402 21.1439L45.692 22.147C45.6771 22.153 45.6623 22.153 45.6504 22.1441C45.6267 22.1292 45.603 22.1114 45.5822 22.0877L44.1227 20.6216C44.1079 20.6068 44.0901 20.6038 44.0723 20.6097L42.0017 21.4259C41.978 21.4348 41.9661 21.4645 41.975 21.4882L42.2212 22.1114C42.2301 22.1352 42.2182 22.1648 42.1945 22.1737L40.4295 22.8682C40.4057 22.8771 40.3939 22.9068 40.4028 22.9305L40.827 24.0078C40.8359 24.0316 40.824 24.0612 40.8003 24.0701L39.5069 24.5806C39.495 24.5865 39.4772 24.5865 39.4654 24.5776C39.4387 24.5628 39.412 24.542 39.3882 24.5212L38.4419 23.6487C38.4271 23.6369 38.4093 23.6339 38.3915 23.6398L36.3357 24.45C36.312 24.4589 36.3001 24.4886 36.309 24.5123L36.7451 25.6163C36.754 25.6401 36.7422 25.6698 36.7184 25.6787L28.8247 28.7859C28.8009 28.7948 28.7713 28.7829 28.7624 28.7592L27.9733 26.7827C27.9644 26.7589 27.9763 26.7293 28 26.7203L48.5694 18.6213C48.608 18.6065 48.6495 18.6451 48.6317 18.6866L48.3736 19.2535Z" fill="black"/>
<path opacity="0.3" d="M18.1484 27.9639C16.4901 28.6138 15.6714 30.4864 16.3211 32.1454C16.9707 33.8044 18.8425 34.6235 20.5038 33.9736C22.162 33.3236 22.9808 31.451 22.3311 29.792C21.6815 28.133 19.8096 27.3139 18.1484 27.9639ZM20.1834 33.3978C18.8603 33.9172 17.3682 33.2643 16.8491 31.9406C16.33 30.617 16.9826 29.1242 18.3056 28.6079C19.6287 28.0885 21.1208 28.7414 21.6399 30.065C22.159 31.3857 21.5064 32.8785 20.1834 33.3978Z" fill="white"/>
<path opacity="0.1" d="M29.7591 35.5999C29.5277 35.9115 29.2548 36.1934 28.9403 36.4308L18.2818 22.3073L18.2729 22.2954C18.2729 22.2954 19.2103 21.8236 19.4239 21.6841C19.4239 21.6959 19.4299 21.7108 19.4388 21.7286C19.9075 22.7257 28.2848 33.6055 29.7591 35.5999Z" fill="white"/>
<path opacity="0.1" d="M28.2196 36.876C28.1513 36.9087 25.0484 37.8524 25.0484 37.8524L21.5866 33.2672C22.4824 32.3888 22.8177 31.0296 22.3312 29.789C21.6815 28.1301 19.8097 27.311 18.1484 27.9609C18.0031 28.0173 17.8666 28.0826 17.7331 28.1597L14.6718 24.1028C14.6718 24.1028 17.3623 22.8207 17.6619 22.6338C17.742 23.2006 28.2196 36.7573 28.2196 36.876Z" fill="white"/>
<path d="M15.5141 14.6C15.167 15.0126 15.0247 15.5913 15.1433 16.1166C15.259 16.6419 15.6328 17.1048 16.1222 17.3333C16.3744 17.4521 16.6532 17.5084 16.9054 17.6301C17.1546 17.7548 17.3889 17.9714 17.4156 18.2504C17.4453 18.559 17.2198 18.8439 17.2406 19.1526C17.2614 19.4345 17.4809 19.6571 17.7034 19.8322C17.9259 20.0073 18.175 20.1705 18.2967 20.4257C18.4183 20.681 18.3412 21.0579 18.0682 21.1321C18.0119 21.2211 17.9881 21.4318 18.0623 21.506C18.1365 21.5802 18.264 21.598 18.353 21.5416C18.7713 21.2834 19.059 20.7997 19.062 20.307C19.065 19.8144 18.7565 19.3366 18.3085 19.1348C18.2284 18.9715 18.2907 18.7638 18.359 18.5946C18.4954 18.2563 18.6319 17.915 18.7654 17.5767C18.8188 17.4432 18.7713 17.1998 18.6793 17.09C18.5874 16.9802 18.4509 16.9179 18.3174 16.8615L17.4423 16.4875C17.113 16.3451 16.1311 15.0333 17.294 14.6505C17.1427 14.3122 16.8787 14.2083 16.5168 14.14C16.1549 14.0718 15.7514 14.3151 15.5141 14.6Z" fill="#263238"/>
<path d="M17.1013 13.1874C17.0716 13.5317 17.042 13.8789 17.0153 14.2232C17.306 13.7483 17.8429 12.8253 17.8221 12.861C17.5937 12.9826 17.3297 13.0628 17.1013 13.1874Z" fill="#263238"/>
<path d="M17.4929 13.7543C17.8993 13.3803 18.3028 13.0034 18.7092 12.6295C18.3977 12.5137 18.018 12.5998 17.7896 12.8432C17.7955 12.8164 17.6056 13.3922 17.4929 13.7543Z" fill="#263238"/>
<path d="M15.0218 41.8322C13.4407 43.7968 13.9658 45.3015 11.7825 48.7797C14.5353 50.8215 17.5552 51.1598 21.3107 50.869C21.7557 50.0825 21.9782 49.2634 22.4232 48.477C23.058 49.2664 23.5712 49.9312 24.206 50.7206C26.1728 50.4119 28.5103 49.8599 30.0648 48.8568C28.6913 47.281 27.837 45.3133 26.9589 43.5742C26.5465 42.7611 26.7186 42.4168 25.624 41.3484C22.1384 41.5087 18.6825 41.5947 15.1969 41.755C15.2918 41.758 14.9299 41.8262 15.0218 41.8322Z" fill="#263238"/>
<path d="M15.4548 41.5028L15.2352 42.4198C15.2026 42.491 15.2886 42.5593 15.4073 42.5533L25.0127 42.129C25.1047 42.1319 25.1788 42.0755 25.1818 42.0191L25.2322 41.108C25.2322 41.0457 25.1521 40.9953 25.0513 41.0012L15.612 41.4167C15.5527 41.4167 15.4904 41.4493 15.4548 41.5028Z" fill="#FCFDFF"/>
<path d="M15.4548 41.5028L15.2352 42.4198C15.2026 42.491 15.2886 42.5593 15.4073 42.5533L25.0127 42.129C25.1047 42.1319 25.1788 42.0755 25.1818 42.0191L25.2322 41.108C25.2322 41.0457 25.1521 40.9953 25.0513 41.0012L15.612 41.4167C15.5527 41.4167 15.4904 41.4493 15.4548 41.5028Z" fill="#FCFDFF"/>
<path d="M17.5729 42.5563L17.294 42.5682C17.2406 42.5682 17.1961 42.5444 17.1991 42.5118L17.2733 41.3276C17.2733 41.295 17.3207 41.2653 17.3771 41.2624L17.656 41.2475C17.7093 41.2475 17.7538 41.2713 17.7509 41.3069L17.6767 42.488C17.6737 42.5207 17.6263 42.5533 17.5729 42.5563Z" fill="#263238"/>
<path d="M24.5084 42.2566L24.2296 42.2684C24.1762 42.2684 24.1317 42.2447 24.1347 42.212L24.2088 41.0309C24.2088 40.9953 24.2563 40.9656 24.3097 40.9626L24.5885 40.9507C24.6419 40.9507 24.6864 40.9745 24.6835 41.0071L24.6093 42.1883C24.6093 42.2239 24.5648 42.2536 24.5084 42.2566Z" fill="#263238"/>
<path d="M18.8131 36.7929C18.8309 36.879 19.5785 38.069 20.1629 37.9859C20.1688 37.9859 20.1718 37.986 20.1777 37.983C20.3468 37.9592 20.5188 38.0275 20.6227 38.164C20.857 38.4697 20.9994 38.6448 21.1566 38.8466C21.4147 39.1731 21.8626 39.2769 22.2364 39.1018C22.3491 39.0514 22.4589 38.992 22.5687 38.9356C22.9306 38.7427 23.1145 38.3272 23.0166 37.9296C22.9098 37.4933 22.7407 37.0719 22.5182 36.6801C22.4411 36.5466 22.3551 36.413 22.2216 36.3359C22.0881 36.2587 20.8006 35.8699 20.3023 35.8848C19.7831 35.8996 19.2907 36.5822 18.8131 36.7929Z" fill="#E8BFBF"/>
<path d="M20.317 35.8462C20.317 35.8462 12.4322 33.4572 10.7294 35.0479C9.72974 35.9827 10.2014 36.8671 10.7621 37.4339C11.1774 37.8583 12.0851 37.7545 12.6754 37.7248L18.8872 37.1164L20.317 35.8462Z" fill="#E8BFBF"/>
<path d="M15.7842 34.7541C15.7427 34.3267 15.4104 33.9735 15.0278 33.7806C14.6451 33.5907 14.209 33.5314 13.7848 33.4779C12.794 33.3533 11.8032 33.2257 10.8124 33.101C10.3081 33.7361 9.94621 34.6116 9.96401 35.4248C9.97884 36.235 10.2844 37.0392 10.8124 37.6565C11.287 36.7395 11.913 35.7957 12.8385 35.3387C13.7611 34.8817 14.7697 34.5701 15.7842 34.7541Z" fill="#263238"/>
<path d="M33.3425 7.57242L35.5407 11.6471L44.5053 4.03189C44.5854 3.96363 44.4935 3.84195 44.4074 3.90131L36.0034 9.45101L34.7071 6.92248L33.3425 7.57242Z" fill="#FCFDFF"/>
<path d="M47.4867 7.5932C47.4867 11.2257 43.6748 14.1697 38.9759 14.1697C37.1723 14.1697 35.4992 13.7394 34.1228 12.9945L29.1243 15.1669L32.2776 11.6531C31.1415 10.5402 30.4621 9.1305 30.4621 7.59617C30.4621 3.96364 34.274 1.01963 38.9729 1.01963C43.6748 1.01666 47.4867 3.96067 47.4867 7.5932Z" stroke="#FCFDFF" stroke-width="1.3" stroke-miterlimit="10"/>
</svg>
