<svg width="45" height="104" viewBox="0 0 45 104" fill="none" xmlns="http://www.w3.org/2000/svg">
<path d="M26.6329 33.5323C26.2114 34.1519 25.8597 34.7481 25.4985 35.3677C25.1372 35.9814 24.8109 36.6096 24.4908 37.2466C23.8603 38.5206 23.2962 39.8353 22.8748 41.2401C22.8178 41.4117 22.7766 41.595 22.729 41.7753L22.6593 42.0458L22.6245 42.1796L22.5833 42.4006C22.4914 42.9911 22.5738 43.4739 22.6815 43.8986C22.9096 44.745 23.2741 45.4227 23.667 46.0684C24.4686 47.3453 25.4034 48.4331 26.4839 49.4627L27.8179 48.5349C27.1589 47.3889 26.5093 46.1876 26.0308 45.0329C25.7995 44.4599 25.603 43.8753 25.546 43.3954C25.5175 43.1598 25.5365 42.9562 25.5713 42.8806L25.6981 42.5257C25.7488 42.3803 25.7963 42.2349 25.8597 42.0865C26.316 40.9114 26.8959 39.7335 27.5296 38.5729C28.1538 37.4153 28.8446 36.2373 29.5227 35.135L26.6329 33.5323Z" fill="#EAC1A4"/>
<path d="M27.4789 48.116L28.9333 48.8257L27.2602 50.6233C27.2602 50.6233 26.2146 49.9746 26.1702 48.9857L27.4789 48.116Z" fill="#EAC1A4"/>
<path d="M30.8917 49.9339L29.1014 51.2399L27.2635 50.6233L28.9366 48.8258L30.8917 49.9339Z" fill="#EAC1A4"/>
<path d="M37.0134 24.0154C37.0483 24.1783 37.1719 24.2917 37.2859 24.2684C37.4 24.2481 37.4666 24.0997 37.4285 23.9369C37.3937 23.774 37.2701 23.6605 37.156 23.6838C37.0419 23.7071 36.9786 23.8554 37.0134 24.0154Z" fill="#263238"/>
<path d="M37.156 24.2946C37.156 24.2946 37.7644 25.1527 38.303 25.5221C38.0495 25.8478 37.495 25.8246 37.495 25.8246L37.156 24.2946Z" fill="#FF5652"/>
<path d="M37.7265 30.0013L37.7138 28.0962L34.9634 28.4016C34.9634 28.4016 35.0109 30.042 36.5477 30.5219L37.7265 30.0013Z" fill="#EAC1A4"/>
<path d="M36.9342 26.7204L34.9981 27.2323L34.9633 28.3987L37.7137 28.0933L36.9342 26.7204Z" fill="#EAC1A4"/>
<path opacity="0.2" d="M34.9983 27.2323L36.9343 26.7204L37.3114 27.3836C37.2639 28.5092 36.5161 29.4341 35.5243 29.8501C34.9856 29.2014 34.9634 28.3987 34.9634 28.3987L34.9983 27.2323Z" fill="black"/>
<path d="M36.1706 23.2388C36.1453 23.2388 36.1199 23.2301 36.0977 23.2126C36.0534 23.1777 36.0534 23.1137 36.0914 23.0759C36.4875 22.6833 36.9691 22.7531 36.9881 22.756C37.0452 22.7647 37.0832 22.8141 37.0737 22.8665C37.0642 22.9189 37.0071 22.9538 36.9533 22.945C36.9374 22.9421 36.5604 22.8927 36.2435 23.2068C36.2245 23.2272 36.1991 23.2388 36.1706 23.2388Z" fill="#263238"/>
<path d="M32.1211 26.9589C32.4411 28.4568 32.6344 30.5306 31.4937 31.5283C31.4937 31.5283 31.9405 33.0466 34.9697 33.0466C38.3 33.0466 36.5731 31.7144 36.5731 31.7144C35.1884 31.3189 35.201 29.8733 35.5179 28.7099L32.1211 26.9589Z" fill="#EAC1A4"/>
<path d="M30.8695 32.5289C30.5716 32.142 30.5843 30.9233 30.9012 30.711C31.4113 30.3649 33.6009 30.2834 36.5478 30.9059C36.2309 32.0868 36.909 32.7034 36.909 32.7034L30.8695 32.5289Z" fill="#263238"/>
<path d="M20.9641 101.579C21.1891 101.623 21.4109 101.634 21.5186 101.55C21.563 101.515 21.6105 101.448 21.5693 101.326C21.5471 101.262 21.5028 101.212 21.4331 101.183C21.132 101.053 20.4413 101.311 20.4096 101.32C20.3906 101.326 20.3779 101.343 20.3779 101.364C20.3779 101.384 20.3874 101.402 20.4064 101.407C20.5173 101.457 20.7423 101.535 20.9641 101.579ZM21.3285 101.253C21.3507 101.259 21.3729 101.265 21.3919 101.271C21.4331 101.288 21.4584 101.317 21.4711 101.352C21.4996 101.439 21.4647 101.466 21.4521 101.477C21.3317 101.57 20.888 101.486 20.5743 101.37C20.7866 101.303 21.1289 101.215 21.3285 101.253Z" fill="#263238"/>
<path d="M20.4221 101.416C20.4316 101.419 20.438 101.416 20.4475 101.416C20.701 101.349 21.2396 100.997 21.246 100.765C21.246 100.724 21.2301 100.645 21.1097 100.607C21.0305 100.581 20.9545 100.587 20.8752 100.625C20.5774 100.765 20.3904 101.332 20.3809 101.355C20.3746 101.372 20.3809 101.39 20.3936 101.404C20.4031 101.407 20.4126 101.413 20.4221 101.416ZM21.0527 100.692C21.059 100.695 21.0685 100.695 21.0749 100.698C21.1414 100.718 21.1382 100.747 21.1382 100.762C21.1351 100.898 20.7802 101.175 20.5172 101.285C20.5837 101.122 20.7326 100.799 20.9228 100.709C20.9703 100.689 21.0115 100.683 21.0527 100.692Z" fill="#263238"/>
<path d="M37.4222 101.922C37.7074 101.922 37.9831 101.887 38.0781 101.768C38.1098 101.727 38.1352 101.657 38.075 101.556C38.0401 101.5 37.9831 101.463 37.907 101.442C37.5363 101.349 36.7568 101.756 36.7251 101.774C36.7061 101.783 36.6966 101.803 36.6998 101.823C36.7029 101.844 36.7188 101.858 36.741 101.864C36.8804 101.893 37.1529 101.922 37.4222 101.922ZM37.774 101.527C37.812 101.527 37.8468 101.53 37.8754 101.538C37.9229 101.55 37.9577 101.573 37.9799 101.605C38.0179 101.666 38.0021 101.695 37.9894 101.713C37.8849 101.844 37.3208 101.849 36.9089 101.794C37.1149 101.698 37.5141 101.527 37.774 101.527Z" fill="#263238"/>
<path d="M36.7475 101.867C36.7538 101.867 36.7633 101.867 36.7697 101.864C37.039 101.753 37.5713 101.311 37.5302 101.079C37.5206 101.023 37.4794 100.957 37.3337 100.942C37.2259 100.933 37.1277 100.959 37.0422 101.026C36.7602 101.239 36.7 101.791 36.6968 101.815C36.6936 101.832 36.7031 101.849 36.719 101.858C36.7253 101.864 36.738 101.867 36.7475 101.867ZM37.2925 101.038C37.302 101.038 37.3147 101.038 37.3242 101.041C37.4192 101.05 37.4256 101.084 37.4256 101.096C37.4509 101.236 37.0865 101.582 36.814 101.733C36.8425 101.573 36.9218 101.242 37.1087 101.102C37.1657 101.058 37.226 101.038 37.2925 101.038Z" fill="#263238"/>
<path d="M34.2979 101.817H36.5254L36.7473 97.0793H34.5197L34.2979 101.817Z" fill="#EAC1A4"/>
<path d="M17.9381 100.872L20.1182 101.306L22.3046 96.8903L20.1245 96.4598L17.9381 100.872Z" fill="#EAC1A4"/>
<path d="M20.3272 101.105L17.8809 100.619C17.7922 100.602 17.7003 100.642 17.6623 100.718L16.8131 102.411C16.7244 102.585 16.8416 102.792 17.0476 102.83C17.9063 102.987 18.3309 103.022 19.4082 103.237C20.0705 103.368 21.5661 103.702 22.4787 103.885C23.3723 104.063 23.7082 103.26 23.3501 103.112C21.7499 102.44 21.0845 101.849 20.6504 101.3C20.5711 101.198 20.4571 101.128 20.3272 101.105Z" fill="#263238"/>
<path d="M36.5097 101.582H34.0762C33.9843 101.582 33.9051 101.64 33.8861 101.721L33.4456 103.539C33.4012 103.728 33.5565 103.906 33.7656 103.903C34.6434 103.888 35.9108 103.842 37.0167 103.842C38.3064 103.842 39.4218 103.906 40.9332 103.906C41.849 103.906 42.1025 103.057 41.7191 102.981C39.9763 102.632 38.5504 102.594 37.0452 101.742C36.8836 101.649 36.703 101.582 36.5097 101.582Z" fill="#263238"/>
<path d="M27.501 31.9908C25.4129 32.43 23.6891 37.3251 23.6891 37.3251L27.8845 40.2599C27.8845 40.2599 29.4244 38.9278 30.1089 36.4787C30.8282 33.9133 29.6367 31.5399 27.501 31.9908Z" fill="#263238"/>
<path opacity="0.4" d="M27.501 31.9908C25.4129 32.43 23.6891 37.3251 23.6891 37.3251L27.8845 40.2599C27.8845 40.2599 29.4244 38.9278 30.1089 36.4787C30.8282 33.9133 29.6367 31.5399 27.501 31.9908Z" fill="black"/>
<path d="M38.487 37.8312C39.0098 38.349 39.5295 38.8056 40.065 39.2797C40.3312 39.5153 40.6068 39.7451 40.8857 39.972L41.3071 40.3094L41.4117 40.3937C41.4624 40.4344 41.5257 40.481 41.5923 40.5304C41.7317 40.6264 41.8838 40.734 42.2038 40.862C42.3718 40.9231 42.5904 41.0016 42.9738 41.0074C43.1545 41.0103 43.4016 40.9812 43.6393 40.8998C43.8801 40.8184 44.1146 40.6758 44.273 40.5304C44.6057 40.225 44.7039 39.9574 44.7705 39.7771C44.8307 39.5909 44.8497 39.46 44.8624 39.3437C44.8814 39.1168 44.8687 38.9656 44.856 38.8231C44.8402 38.6835 44.8212 38.5613 44.7958 38.4479C44.7039 37.9999 44.5709 37.6364 44.4283 37.2757C44.2825 36.9179 44.1241 36.5718 43.9371 36.2257C43.7375 35.8563 43.541 35.5858 43.3477 35.2775C42.5651 34.0762 41.6462 32.9797 40.6702 31.9442C39.6721 30.9175 38.6264 29.978 37.4223 29.1171L36.2562 30.2194C37.0769 31.2258 37.8818 32.3049 38.6264 33.3665C39.371 34.4369 40.0586 35.5276 40.6544 36.6387C40.7906 36.9121 40.9586 37.2117 41.0536 37.4415C41.1645 37.6916 41.2659 37.9621 41.3515 38.2268C41.4339 38.4886 41.5004 38.762 41.5321 38.9627C41.5384 39.0121 41.5416 39.0528 41.5416 39.079C41.5416 39.1023 41.5353 39.1139 41.5384 39.0528C41.5416 39.0179 41.5448 38.9685 41.5796 38.8638C41.6176 38.762 41.6778 38.57 41.944 38.3228C42.0739 38.2064 42.2672 38.0843 42.4668 38.0203C42.6601 37.9505 42.8629 37.9301 42.9992 37.9301C43.2939 37.9359 43.4238 37.9912 43.5093 38.0203C43.6646 38.0814 43.6678 38.0988 43.6678 38.093L43.5474 37.9912L43.1671 37.6713L42.4098 37.0197C41.9092 36.5864 41.4053 36.1239 40.9269 35.6934L38.487 37.8312Z" fill="#EAC1A4"/>
<path opacity="0.2" d="M29.2914 35.5916C28.157 36.6212 27.7863 38.5002 27.6976 40.1319L27.8814 40.2628C27.8814 40.2628 29.4213 38.9278 30.1089 36.4816C30.1501 36.3275 30.1882 36.1762 30.2167 36.025L29.2914 35.5916Z" fill="black"/>
<path d="M40.7018 34.0413C41.1581 36.2519 41.4433 40.7893 40.1188 49.7798H28.1982C28.1158 48.0986 29.266 39.9051 27.5011 31.9908C27.5011 31.9908 29.5449 31.6156 31.4904 31.5283C33.0146 31.4614 35.22 31.4149 36.5572 31.5283C37.1149 31.5748 37.6662 31.6505 38.1542 31.729C39.447 31.9384 40.4578 32.8604 40.7018 34.0413Z" fill="#263238"/>
<path d="M40.7018 34.0413C41.1581 36.2519 41.4433 40.7893 40.1188 49.7798H28.1982C28.1158 48.0986 29.266 39.9051 27.5011 31.9908C27.5011 31.9908 29.5449 31.6156 31.4904 31.5283C33.0146 31.4614 35.22 31.4149 36.5572 31.5283C37.1149 31.5748 37.6662 31.6505 38.1542 31.729C39.447 31.9384 40.4578 32.8604 40.7018 34.0413Z" fill="#BCD0E6"/>
<path opacity="0.2" d="M38.8767 37.3077L41.0314 36.8336C41.098 38.0319 41.1043 39.5153 41.0061 41.3506C40.0174 40.3152 38.75 38.7009 38.8767 37.3077Z" fill="black"/>
<path opacity="0.2" d="M36.7473 97.0822L36.6332 99.5255H34.4024L34.5165 97.0822H36.7473Z" fill="black"/>
<path opacity="0.2" d="M20.1245 96.4598L22.3046 96.8932L21.1765 99.1677L18.9965 98.7344L20.1245 96.4598Z" fill="black"/>
<path d="M31.0628 24.7687C31.6363 26.7291 31.8613 27.9042 33.1794 28.7186C35.163 29.946 37.6314 28.5383 37.7107 26.4586C37.7804 24.5884 36.8329 21.6943 34.5388 21.2988C32.2795 20.9119 30.4892 22.8083 31.0628 24.7687Z" fill="#EAC1A4"/>
<path d="M36.0629 24.8444C36.1675 24.5826 36.6618 22.5553 36.1992 22.0288C35.7366 21.5024 30.4607 21.8805 29.6812 22.5844C28.3884 23.7536 29.2851 24.7978 30.7015 26.1416C31.7662 27.1538 31.8074 28.294 32.3461 28.4627C33.2872 28.7564 34.7479 28.4801 35.0426 27.5581C35.3341 26.6361 36.0629 24.8444 36.0629 24.8444Z" fill="#263238"/>
<path d="M30.3212 20.2808C32.1844 19.5507 35.6826 20.3593 37.568 19.9405C37.6346 20.8392 37.0452 22.2761 35.1566 22.6629C35.1566 22.6629 32.4759 23.1428 30.4036 23.0643C28.3313 22.9887 28.7369 20.9003 30.3212 20.2808Z" fill="#263238"/>
<path d="M30.0298 22.6483C30.0298 22.6483 28.8764 22.7676 28.0589 22.3022C27.7071 23.073 29.6242 23.2853 30.0298 22.6483Z" fill="#263238"/>
<path d="M35.0489 24.9258C35.0837 25.4581 35.3531 25.9555 35.6763 26.2842C36.1611 26.7757 36.6681 26.4703 36.7568 25.8711C36.8329 25.333 36.6744 24.4285 36.0819 24.158C35.4925 23.8875 35.0077 24.3179 35.0489 24.9258Z" fill="#EAC1A4"/>
<path d="M35.8918 49.7798C35.8918 49.7798 33.3632 65.4135 31.9753 71.2714C30.4544 77.6848 22.3013 98.9059 22.3013 98.9059L18.3119 98.1119C18.3119 98.1119 24.0124 80.8174 25.2894 71.8502C26.2685 64.9626 28.2014 49.7768 28.2014 49.7768H35.8918V49.7798Z" fill="#263238"/>
<path d="M23.255 97.6844C23.2708 97.6873 22.5104 99.0078 22.5104 99.0078L18.0203 98.1148L18.3974 96.8758L23.255 97.6844Z" fill="#263238"/>
<path opacity="0.3" d="M34.2915 55.3497C31.3668 55.8762 31.6774 65.8876 32.0291 71.0358C32.872 67.3971 34.1078 60.3932 34.9506 55.4224C34.7573 55.3323 34.5387 55.3061 34.2915 55.3497Z" fill="black"/>
<path d="M40.122 49.7798C40.122 49.7798 40.4293 65.0761 40.1853 71.315C39.9318 77.8041 37.4634 99.0514 37.4634 99.0514H33.6864C33.6864 99.0514 33.5469 78.1822 33.379 71.8095C33.1952 64.8608 32.2826 49.7798 32.2826 49.7798H40.122Z" fill="#263238"/>
<path d="M38.189 97.6698C38.2048 97.6698 37.9767 99.1096 37.9767 99.1096H33.3852L33.2617 97.8269L38.189 97.6698Z" fill="#263238"/>
<path d="M36.0313 34.7132C34.9635 37.3571 41.2407 40.4723 41.2407 40.4723L43.9594 37.2641C43.9594 37.2641 42.1469 33.9512 39.9193 32.4591C37.1721 30.6121 36.8457 32.7005 36.0313 34.7132Z" fill="#263238"/>
<path opacity="0.4" d="M36.0313 34.7132C34.9635 37.3571 41.2407 40.4723 41.2407 40.4723L43.9594 37.2641C43.9594 37.2641 42.1469 33.9512 39.9193 32.4591C37.1721 30.6121 36.8457 32.7005 36.0313 34.7132Z" fill="black"/>
<path d="M11.4358 14.3795C5.11996 14.3795 -2.67029e-05 11.3844 -2.67029e-05 7.68977C-2.67029e-05 3.99511 5.11996 1 11.4358 1C17.7516 1 22.8716 3.99511 22.8716 7.68977C22.8716 11.3844 17.7516 14.3795 11.4358 14.3795Z" fill="white"/>
<path opacity="0.6" d="M20.7422 18.3032C18.6667 18.3032 16.9841 17.3187 16.9841 16.1043C16.9841 14.8899 18.6667 13.9054 20.7422 13.9054C22.8177 13.9054 24.5002 14.8899 24.5002 16.1043C24.5002 17.3187 22.8177 18.3032 20.7422 18.3032Z" fill="white"/>
<path opacity="0.3" d="M26.7215 19.202C25.8692 19.202 25.1783 18.7983 25.1783 18.3003C25.1783 17.8023 25.8692 17.3987 26.7215 17.3987C27.5738 17.3987 28.2646 17.8023 28.2646 18.3003C28.2646 18.7983 27.5738 19.202 26.7215 19.202Z" fill="white"/>
<path fill-rule="evenodd" clip-rule="evenodd" d="M16.1667 10.405C14.7095 11.5209 12.62 11.2393 11.4996 9.77618C11.2952 9.50916 10.8911 8.85427 10.9101 8.37062L10.2588 8.28281C9.87592 8.23126 9.85714 8.33875 9.82621 8.51583C9.81329 8.58975 9.79827 8.67574 9.75383 8.76732C9.75383 8.76732 9.5602 9.40427 8.89479 9.42512C8.50779 9.42822 7.76791 9.17382 7.90406 8.13131L7.68693 8.10205C7.68693 8.10205 7.54053 8.80056 6.87512 8.8214C6.48816 8.82455 5.86527 8.51959 5.96457 7.75944L5.2048 7.65706C4.68382 7.58686 4.57888 7.09384 4.5915 6.85614L4.67658 6.20457C4.75599 5.59644 5.28238 5.51264 5.53562 5.54677L11.1795 6.30729C11.1795 6.30729 11.4345 5.62336 12.1094 5.10653C13.5666 3.99073 15.6561 4.27229 16.7765 5.73547C17.8969 7.1986 17.6239 9.28924 16.1667 10.405ZM14.8458 8.68001C14.3375 9.06925 13.6086 8.97103 13.2178 8.46062C12.8269 7.95022 12.9222 7.22092 13.4305 6.83169C13.9388 6.44246 14.6677 6.54068 15.0585 7.05108C15.4494 7.56149 15.3541 8.29078 14.8458 8.68001Z" fill="#588BC5"/>
</svg>
