<svg width="41" height="36" viewBox="0 0 41 36" fill="none" xmlns="http://www.w3.org/2000/svg">
<path d="M9.12599 33.5379C8.62735 33.6141 8.19098 33.1989 8.24223 32.697L9.12599 24.0749L10.7009 23.834L9.77636 32.8543C9.74074 33.2038 9.47318 33.4849 9.12599 33.5379Z" fill="#152E60"/>
<path d="M4.69535 35.9984C4.10203 36.0412 3.82434 35.271 3.96536 35.0321C4.03456 34.7831 7.4972 22.3361 7.4972 22.3361H9.07302L5.4268 35.443C5.3353 35.7711 5.03617 35.9984 4.69535 35.9984Z" fill="#152E60"/>
<path d="M18.5028 35.9983C19.0049 35.9983 19.3686 35.5197 19.2339 35.0358L15.7009 22.3357H14.1251L17.7713 35.4426C17.8628 35.771 18.1619 35.9983 18.5028 35.9983Z" fill="#152E60"/>
<path d="M23.5047 18.1494C22.0673 4.54758 -1.08933 2.67205 0.0399833 18.284C1.47768 31.8853 24.6343 33.7608 23.5047 18.1494Z" fill="#3E6897"/>
<path d="M13.7437 28.3465C-0.595326 28.6491 -5.37202 6.97184 10.9844 6.09822C25.3232 5.7962 30.0999 27.4732 13.7437 28.3465Z" fill="#5E90C9"/>
<path d="M13.4405 25.9015C2.25343 26.1375 -1.47329 9.22534 11.2879 8.5437C22.4744 8.30799 26.2012 25.2201 13.4405 25.9015Z" fill="white"/>
<path d="M13.1371 23.4563C5.1019 23.626 2.42514 11.4787 11.5908 10.9891C19.626 10.8197 22.3027 22.967 13.1371 23.4563Z" fill="#5E90C9"/>
<path d="M12.8339 21.011C7.95065 21.1141 6.32386 13.7318 11.8943 13.4342C16.7772 13.3314 18.404 20.7136 12.8339 21.011Z" fill="white"/>
<path d="M13.7805 17.2146C13.9184 19.1 11.1191 18.8733 10.9474 17.2309C10.8096 15.3452 13.6088 15.5719 13.7805 17.2146Z" fill="#5E90C9"/>
<path d="M12.364 6.16626C12.364 6.16626 16.1361 18.9804 24.1085 19.6479C24.8726 17.1319 21.8837 6.92 12.364 6.16626Z" fill="#3E6897"/>
<path d="M39.0785 26.6929L38.2581 26.622L38.389 25.3502L39.4106 25.5335C40.394 26.139 39.7546 26.5143 39.0785 26.6929Z" fill="#F4D2C6"/>
<path d="M39.9709 28.6146L40.4383 25.3989C39.9414 25.2452 39.4115 25.3019 38.9244 25.4658C39.7717 25.5706 39.5432 26.3629 39.0611 26.664C39.0611 26.664 39.1578 28.4585 39.9709 28.6146Z" fill="#152E60"/>
<path d="M30.9243 23.7902L29.8037 13.4301L25.2633 13.9634L28.0912 24.3192C28.258 24.9305 28.6278 25.4668 29.1394 25.8406C29.9178 26.7736 37.3133 26.4933 38.4591 26.6954L38.7021 25.3648L30.9243 23.7902Z" fill="#263238"/>
<path d="M27.389 13.6354L26.6367 25.7071L26.6231 25.7112L29.0256 33.5379L27.7402 34.1341L24.6427 27.7784C23.4199 26.056 23.2789 16.6836 22.9659 14.5959L27.389 13.6354Z" fill="#263238"/>
<mask id="mask0_150_4973" style="mask-type:luminance" maskUnits="userSpaceOnUse" x="22" y="13" width="8" height="22">
<path d="M27.389 13.6354L26.6367 25.7071L26.6231 25.7112L29.0256 33.5379L27.7402 34.1341L24.6427 27.7784C23.4199 26.056 23.2789 16.6836 22.9659 14.5959L27.389 13.6354Z" fill="white"/>
</mask>
<g mask="url(#mask0_150_4973)">
<path d="M28.639 33.8268C28.5898 33.8491 28.5603 33.8624 28.5603 33.8624C28.5603 33.8624 25.609 26.8778 25.4544 26.3803C25.2998 25.8828 26.9755 20.2731 26.9755 20.2731L27.2225 25.2116L29.5752 33.4023C29.5752 33.4026 28.8776 33.7188 28.639 33.8268Z" fill="#263238"/>
</g>
<path d="M20.5908 8.28806L18.8268 8.992L14.2105 5.79895L13.6667 6.81012L17.592 10.831C17.8376 11.0728 18.148 11.2379 18.4857 11.3068C19.2041 11.5425 21.0179 10.5727 21.6955 10.3828L20.5908 8.28806Z" fill="#F4D2C6"/>
<mask id="mask1_150_4973" style="mask-type:luminance" maskUnits="userSpaceOnUse" x="13" y="5" width="9" height="7">
<path d="M20.5908 8.28806L18.8268 8.992L14.2105 5.79895L13.6667 6.81012L17.592 10.831C17.8376 11.0728 18.148 11.2379 18.4857 11.3068C19.2041 11.5425 21.0179 10.5727 21.6955 10.3828L20.5908 8.28806Z" fill="white"/>
</mask>
<g mask="url(#mask1_150_4973)">
<path d="M19.2997 8.57064L19.6691 11.8433L21.8701 10.6384L20.3438 7.94836L19.2997 8.57064Z" fill="#F4D2C6"/>
</g>
<path d="M25.0857 0.82407C25.0669 1.92298 23.4323 1.92269 23.4138 0.82407C23.4326 -0.274835 25.0672 -0.274545 25.0857 0.82407Z" fill="#263238"/>
<path d="M22.8616 1.55786C21.4876 2.08256 21.3188 3.50404 22.5106 4.34175C22.8972 3.88974 24.0954 2.24761 22.8616 1.55786Z" fill="#263238"/>
<path d="M25.4135 3.16633C25.8557 5.65023 22.8373 6.23573 22.3184 3.76689C21.8762 1.28357 24.8946 0.697773 25.4135 3.16633Z" fill="#F4D2C6"/>
<mask id="mask2_150_4973" style="mask-type:luminance" maskUnits="userSpaceOnUse" x="22" y="1" width="4" height="5">
<path d="M25.4135 3.16633C25.8557 5.65023 22.8373 6.23573 22.3184 3.76689C21.8762 1.28357 24.8946 0.697773 25.4135 3.16633Z" fill="white"/>
</mask>
<g mask="url(#mask2_150_4973)">
<path d="M22.1319 2.95762C24.3876 4.03539 25.5442 2.38804 23.3756 0.933838C22.8552 1.51094 22.2874 2.17521 22.1319 2.95762Z" fill="#F4D2C6"/>
</g>
<path d="M25.386 3.04297C25.386 3.04297 25.7987 5.97859 26.2724 6.7804C26.2724 6.7804 25.3655 7.25935 24.3601 7.15163C24.3601 7.15163 24.4771 4.55422 24.2498 4.00751L25.386 3.04297Z" fill="#F4D2C6"/>
<path d="M24.3859 5.30945C24.3859 5.30945 24.7137 5.24082 25.078 4.80444C25.078 4.80444 25.1362 5.60712 24.3899 5.79881L24.3859 5.30945Z" fill="#F4D2C6"/>
<path d="M22.7012 2.0703C22.7012 2.0703 22.7976 3.00242 23.964 3.13127L23.5076 2.68737C23.5076 2.68737 24.2811 3.32702 24.9152 3.46688C25.5494 3.60674 25.5737 4.19311 25.5737 4.19311C27.4397 1.72369 23.0223 -0.19324 22.7012 2.0703Z" fill="#263238"/>
<path d="M30.4587 9.54912L27.6221 6.85383C26.8507 6.03088 25.5106 5.74479 24.4496 6.2246C24.3564 6.26717 20.0253 8.24694 19.9225 8.29385L21.3342 10.9697L22.6476 10.4323L22.3861 15.5417C26.8287 17.8765 30.3623 14.5247 30.3623 14.5247L29.1293 10.6205L30.4587 9.54912Z" fill="#EE7BB7"/>
<path d="M29.129 10.62L28.1775 11.4117L26.6607 9.79968L29.9577 14.8552L30.3619 14.5243L29.129 10.62Z" fill="#EE7BB7"/>
<path d="M22.6239 10.4418C22.6239 10.4418 22.6693 9.10373 22.9375 7.94836C22.9375 7.94836 21.5447 9.10489 21.3336 10.9697L22.6239 10.4418Z" fill="#EE7BB7"/>
<path d="M23.8661 6.49117C24.5822 5.95084 25.8603 5.76754 26.6607 6.20334C26.1221 6.532 24.3517 7.58312 23.8661 6.49117Z" fill="#F4D2C6"/>
<path d="M14.2803 5.85441C14.1644 5.77073 14.0813 5.6494 14.0454 5.51099C13.9273 5.05782 13.6438 4.03188 13.4788 3.9566C13.2665 3.85959 13.6372 5.98327 13.4104 5.84457C13.2431 5.74235 13.0485 5.32654 12.8391 5.31408C12.6297 5.30163 12.7331 5.70384 12.908 6.08723C13.0201 6.33307 13.9247 7.01934 13.9247 7.01934L14.5374 6.04032L14.2803 5.85441Z" fill="#F4D2C6"/>
<path d="M28.2246 34.8171L27.8661 34.0759L29.0259 33.5378L29.3907 34.5093C29.3731 35.6644 28.7238 35.3071 28.2246 34.8171Z" fill="#F4D2C6"/>
<path d="M26.4253 35.9984H29.6337C29.8187 35.9984 29.9435 35.8096 29.8711 35.6394L29.3907 34.5098C29.4087 35.3631 28.5918 35.2511 28.2247 34.8173C28.2247 34.8173 26.4626 35.1714 26.4253 35.9984Z" fill="#152E60"/>
<path d="M38.561 15.4765C38.561 15.4765 39.247 15.4478 39.3333 15.3039C39.4196 15.16 37.7859 15.0624 37.7859 15.0624C36.746 14.3544 30.7399 10.8188 30.1526 9.79578L28.3923 11.2349L30.1202 12.7366C31.5058 13.2714 37.3785 16.1573 38.7021 16.5838C39.2786 16.6267 39.5635 16.2818 39.6211 16.2097C39.6785 16.1379 38.561 15.4765 38.561 15.4765Z" fill="#F4D2C6"/>
<mask id="mask3_150_4973" style="mask-type:luminance" maskUnits="userSpaceOnUse" x="28" y="9" width="12" height="8">
<path d="M38.561 15.4765C38.561 15.4765 39.247 15.4478 39.3333 15.3039C39.4196 15.16 37.7859 15.0624 37.7859 15.0624C36.746 14.3544 30.7399 10.8188 30.1526 9.79578L28.3923 11.2349L30.1202 12.7366C31.5058 13.2714 37.3785 16.1573 38.7021 16.5838C39.2786 16.6267 39.5635 16.2818 39.6211 16.2097C39.6785 16.1379 38.561 15.4765 38.561 15.4765Z" fill="white"/>
</mask>
<g mask="url(#mask3_150_4973)">
<path d="M30.5823 10.0457L29.3073 12.3851L27.8937 11.1101L30.0359 9.44312L30.5823 10.0457Z" fill="#F4D2C6"/>
</g>
<path d="M25.9958 16.3683C25.9958 16.3683 28.1505 16.2331 29.9577 14.8553L30.1772 16.8852C30.1772 16.8852 27.512 17.478 25.9958 16.3683Z" fill="#EE7BB7" fill-opacity="0.35"/>
<path d="M16.2858 13.3787L18.4396 11.3329L17.9743 9.52026L15.7863 11.5985L16.2858 13.3787Z" fill="#4292F3"/>
<path d="M16.4207 13.5207L18.5745 11.4752L20.3609 12.0332L18.1729 14.1114L16.4207 13.5207Z" fill="#4292F3"/>
<path d="M18.6614 11.5698L18.3515 11.2435L12.1712 17.1136L12.4811 17.4399L18.6614 11.5698Z" fill="#152E60"/>
</svg>
