<svg width="98" height="98" viewBox="0 0 98 98" fill="none" xmlns="http://www.w3.org/2000/svg">
<path d="M49 49L69.8889 28.1111M69.8889 28.1111V12.4444L80.3333 2L85.5555 12.4444L96 17.6667L85.5555 28.1111H69.8889Z" stroke="#3E6897" stroke-opacity="0.05" stroke-width="4" stroke-linecap="round" stroke-linejoin="round"/>
<path d="M96 49C96 58.2957 93.2435 67.3827 88.0791 75.1118C82.9146 82.8409 75.5742 88.865 66.9861 92.4223C58.398 95.9796 48.9479 96.9104 39.8308 95.0969C30.7137 93.2834 22.3391 88.8071 15.766 82.234C9.19293 75.6609 4.71662 67.2863 2.90311 58.1692C1.08961 49.0521 2.02036 39.602 5.57768 31.0139C9.135 22.4257 15.1591 15.0854 22.8882 9.92093C30.6173 4.7565 39.7043 2 49 2" stroke="#3E6897" stroke-opacity="0.05" stroke-width="4" stroke-linecap="round" stroke-linejoin="round"/>
<path d="M69.8889 49.0001C69.8889 53.1315 68.6638 57.1702 66.3685 60.6053C64.0732 64.0405 60.8108 66.7179 56.9938 68.2989C53.1769 69.8799 48.9768 70.2936 44.9248 69.4876C40.8727 68.6816 37.1507 66.6921 34.2293 63.7708C31.308 60.8494 29.3185 57.1273 28.5125 53.0753C27.7065 49.0233 28.1202 44.8232 29.7012 41.0063C31.2822 37.1893 33.9596 33.9269 37.3948 31.6316C40.8299 29.3363 44.8686 28.1112 49 28.1112" stroke="#3E6897" stroke-opacity="0.05" stroke-width="4" stroke-linecap="round" stroke-linejoin="round"/>
</svg>
