<svg width="198" height="182" viewBox="0 0 198 182" fill="none" xmlns="http://www.w3.org/2000/svg">
<path d="M187.452 81.4308C192.791 55.2532 175.907 29.7195 149.729 24.3811C135.267 21.4318 121.022 25.2592 110.256 33.6883C103.651 21.7167 92.0218 12.6129 77.5798 9.6677C51.4023 4.32934 25.8685 21.213 20.5302 47.3905C17.7292 61.1256 21.7076 73.908 28.6306 85.2499L83.6635 165.017L164.217 113.657C174.553 106.508 184.572 95.5494 187.452 81.4306L187.452 81.4308Z" fill="#EE7BB7" fill-opacity="0.05"/>
<path d="M83.6629 165.017L28.6095 85.2456C21.6663 73.8996 17.708 61.1215 20.5091 47.3862C25.8474 21.2087 51.3812 4.32507 77.5587 9.66343C92.0209 12.6127 103.63 21.7125 110.235 33.684L83.6631 165.017L83.6629 165.017Z" fill="#EE7BB7" fill-opacity="0.05"/>
</svg>
