<svg width="13" height="10" viewBox="0 0 13 10" fill="none" xmlns="http://www.w3.org/2000/svg">
<path d="M1 3.44444C1 2.29212 1 1.71596 1.35798 1.35798C1.71596 1 2.29212 1 3.44444 1H6.5H9.55556C10.7079 1 11.284 1 11.642 1.35798C12 1.71596 12 2.29212 12 3.44444V5.27778V7.11111C12 8.26342 12 8.83958 11.642 9.19757C11.284 9.55556 10.7079 9.55556 9.55556 9.55556H6.5H3.44444C2.29212 9.55556 1.71596 9.55556 1.35798 9.19757C1 8.83958 1 8.26342 1 7.11111V5.27778V3.44444Z" stroke="#3E6897" stroke-width="0.8" stroke-linejoin="round"/>
<path d="M4.66668 4.05557C4.66668 4.39309 4.39307 4.66668 4.05557 4.66668C3.71806 4.66668 3.44446 4.39309 3.44446 4.05557C3.44446 3.71806 3.71806 3.44446 4.05557 3.44446C4.39307 3.44446 4.66668 3.71806 4.66668 4.05557Z" stroke="#3E6897" stroke-width="0.8"/>
<path d="M6.28741 7.11111C6.01002 6.64593 5.51539 6.5 4.66669 6.5C4.12857 6.5 3.44446 6.5 3.44446 6.5" stroke="#3E6897" stroke-width="0.8" stroke-linecap="round"/>
<path d="M6.5 3.44446H9.55556" stroke="#3E6897" stroke-width="0.8" stroke-linecap="round" stroke-linejoin="round"/>
<path d="M7.11111 5.27777H9.55556" stroke="#3E6897" stroke-width="0.8" stroke-linecap="round" stroke-linejoin="round"/>
<path d="M8.33334 7.11115H9.55557" stroke="#3E6897" stroke-width="0.8" stroke-linecap="round" stroke-linejoin="round"/>
</svg>
