<svg width="188" height="186" viewBox="0 0 188 186" fill="none" xmlns="http://www.w3.org/2000/svg">
<path d="M138.128 128.864C142.095 138.091 139.935 149.03 131.934 156.011C120.756 165.482 104.963 162.743 97.5439 151.148L138.128 128.864Z" stroke="#3E6897" stroke-opacity="0.08" stroke-width="6"/>
<path d="M129.904 101.429L129.91 101.612L129.939 101.793L131.488 111.654C131.489 111.769 131.486 111.852 131.482 111.909C131.402 111.973 131.254 112.077 130.997 112.218L86.7697 136.502C86.5906 136.601 86.4098 136.641 86.2624 136.639C86.1656 136.638 86.0768 136.619 85.9901 136.578L78.7996 130.241C78.2219 129.519 77.509 129.109 77.1828 128.922C77.1692 128.914 77.1562 128.907 77.144 128.9C76.9844 128.807 76.8421 128.728 76.7089 128.653C76.369 128.462 76.0875 128.305 75.7249 128.056L75.6068 127.975L75.4814 127.906C72.74 126.389 67.5978 123.319 62.2815 119.221C56.9516 115.112 51.6394 110.114 48.318 104.757C42.7394 94.5614 41.0082 83.2744 44.6006 72.73L44.6199 72.6733L44.637 72.6158C48.0013 61.2753 55.4672 52.05 66.3064 46.0985C77.0247 40.2134 89.1252 39.3596 100.31 42.0492C111.17 45.6525 119.99 52.4492 125.492 62.4701C128.48 67.9125 129.853 75.0205 130.311 81.7971C130.759 88.4139 130.316 94.4149 129.854 97.6564C129.624 98.5782 129.679 99.3443 129.747 99.9232C129.769 100.103 129.789 100.254 129.808 100.393C129.854 100.736 129.89 101.003 129.904 101.429Z" stroke="#3E6897" stroke-opacity="0.08" stroke-width="6"/>
</svg>
