<svg width="103" height="102" viewBox="0 0 103 102" fill="none" xmlns="http://www.w3.org/2000/svg">
<path d="M103 35.3105V66.6997C103 68.8664 101.223 70.6088 99.0341 70.6088H73.8017H71.3017V73.1088V98.0766C71.3017 100.239 69.5387 102 67.3501 102H35.6498C33.4633 102 31.6983 100.239 31.6983 98.0766V73.1088V70.6088H29.1983H3.96381C1.7773 70.6088 0 68.8664 0 66.6997V35.3105C0 33.1438 1.7773 31.3932 3.96584 31.3912L103 35.3105ZM103 35.3105C103.006 33.1438 101.229 31.3932 99.0403 31.3932H73.8078L103 35.3105ZM68.8078 31.3932V33.8932H71.3078H99.0403C99.8808 33.8932 100.502 34.5554 100.5 35.3035V35.3105V66.6997C100.5 67.448 99.8801 68.1088 99.0341 68.1088H71.3017H68.8017V70.6088V98.0766C68.8017 98.846 68.1706 99.5 67.3501 99.5H35.6498C34.8306 99.5 34.1983 98.8451 34.1983 98.0766V70.6088V68.1088H31.6983H3.96381C3.12078 68.1088 2.5 67.4488 2.5 66.6997V35.3105C2.5 34.5559 3.12686 33.892 3.96817 33.8912H31.7003H34.2003V31.3912V3.92747C34.2003 3.152 34.8335 2.5 35.6519 2.5H67.3522C68.1764 2.5 68.8078 3.15368 68.8078 3.92747V31.3932Z" stroke="#3E6897" stroke-opacity="0.05" stroke-width="5"/>
</svg>
