<svg width="22" height="41" viewBox="0 0 22 41" fill="none" xmlns="http://www.w3.org/2000/svg">
<path d="M8.73981 38.6149C8.73981 38.6149 8.59759 39.4206 8.5278 40.2181C8.50055 40.5298 8.74092 40.8005 9.0535 40.8136C10.1155 40.8579 12.3875 40.9438 13.2028 40.9075C13.3253 40.902 13.4055 40.7766 13.3601 40.6625C13.322 40.567 13.2486 40.4897 13.1554 40.4467L9.40263 38.7219L8.73981 38.6149Z" fill="url(#paint0_linear_146_2050)"/>
<path d="M8.62329 38.1414L8.7376 39.1051C8.7376 39.1051 9.3951 39.411 9.84393 39.0665L9.57166 37.9926L8.62329 38.1414Z" fill="#EAC1A4"/>
<path d="M8.70923 20.0228C8.65983 20.2745 8.44406 32.5821 9.75973 38.0976C9.78122 38.1875 9.73558 38.2803 9.64985 38.3153C9.44804 38.3977 9.0526 38.5171 8.57853 38.5331C8.43165 38.538 8.30006 38.4427 8.25864 38.3016C7.8827 37.022 6.08054 30.6105 5.8455 24.4858C5.58276 17.642 5.8455 24.2528 5.8455 24.2528L5.99946 20.0224L8.70923 20.0228Z" fill="#263238"/>
<path d="M4.42284 39.0351C4.42284 39.0351 4.19622 39.4418 3.9769 40.5227C3.93725 40.7178 4.07371 40.9046 4.27198 40.9241C4.62266 40.9586 5.16253 41.003 5.59518 40.9999C5.79456 40.9985 5.95008 40.8248 5.92615 40.627C5.8783 40.2325 5.72899 39.5852 5.26798 39.0807L4.42284 39.0351Z" fill="url(#paint1_linear_146_2050)"/>
<path d="M4.22394 37.7956L4.4911 39.253C4.4911 39.253 4.75539 39.4495 5.27776 39.3071L5.15016 37.7391L4.22394 37.7956Z" fill="#EAC1A4"/>
<path d="M3.50218 20.4006C2.4262 26.8941 3.73567 36.4498 4.17718 38.3202C4.20421 38.4347 4.29658 38.5225 4.41267 38.5417C4.60983 38.5743 4.93437 38.6011 5.25426 38.5081C5.36459 38.4762 5.4419 38.3767 5.44633 38.2619C5.50548 36.7498 5.39892 27.4672 6.40157 23.7986C6.4523 23.6128 6.56595 23.4506 6.72301 23.339L8.66894 21.9555L8.81803 19.7194L3.50218 20.4006Z" fill="#263238"/>
<path d="M10.3581 8.09648C7.1337 8.04331 3.57569 8.94317 3.57569 8.94317C2.61447 14.5514 3.40755 21.0201 3.40755 21.0201C5.90376 21.6748 8.71986 20.6198 8.71986 20.6198C9.13479 18.2756 11.0705 11.6786 11.0705 11.6786C12.6461 11.483 13.9438 11.0287 15.0127 10.4276C14.1974 9.4826 13.8131 8.28013 13.6463 7.56946C12.5063 7.92369 11.3528 8.11287 10.3581 8.09648Z" fill="url(#paint2_linear_146_2050)"/>
<path d="M19.8826 3.34691C19.5658 2.96433 19.1648 3.14532 19.1648 3.14532C18.6903 5.14973 16.2023 6.77488 13.6463 7.56929C13.8133 8.28019 14.1974 9.48266 15.0127 10.4275C19.255 8.04248 19.8826 3.34691 19.8826 3.34691Z" fill="#EAC1A4"/>
<path d="M19.8057 3.44414C19.8389 3.54959 19.455 3.70998 19.2291 3.2791C19.2211 3.07263 19.0955 2.18784 19.2189 2.01948C19.8762 1.12338 21.1504 0 21.1504 0C21.3657 0.212448 21.1883 0.421352 21.1883 0.421352L20.57 1.06534C20.6994 1.29906 20.8571 1.49622 20.9309 1.77889C20.9869 1.99289 20.9526 2.22173 20.8445 2.41646C20.7359 2.61185 20.5879 2.86617 20.4479 3.06488C20.1836 3.44148 19.8057 3.44414 19.8057 3.44414Z" fill="#EAC1A4"/>
<path d="M20.2999 1.48322L19.7366 1.96083L19.5598 2.43624L20.062 2.99339C20.062 2.99339 20.2308 2.04989 20.3564 1.84586C20.482 1.64183 20.4169 1.54303 20.2999 1.48322Z" fill="#EAC1A4"/>
<path d="M4.81274 12.0651L3.57593 8.94287C3.57593 8.94287 0.564 10.9894 0.0688782 13.5839C0.637991 13.6258 1.67343 13.7738 2.68715 14.2858C2.90979 13.0607 4.81274 12.0651 4.81274 12.0651Z" fill="url(#paint3_linear_146_2050)"/>
<path d="M7.44475 15.0032C7.44475 15.0032 4.0633 16.9144 2.9222 15.2826C2.68538 14.9436 2.62867 14.6069 2.68693 14.2859C1.67321 13.7742 0.63777 13.626 0.0686566 13.5841C-0.0806553 14.3663 -0.00179008 15.1982 0.457887 16.0391C2.45654 19.695 7.89202 15.8371 7.89202 15.8371L7.44475 15.0032Z" fill="#EAC1A4"/>
<path d="M7.03822 17.4209L8.8838 10.9759C8.90462 10.9028 8.96709 10.8494 9.04263 10.8406C9.37692 10.8016 10.3459 10.6921 11.4646 10.5973C12.8122 10.4832 14.3769 10.3911 15.312 10.4695C15.4449 10.4806 15.5253 10.6212 15.4661 10.7409C14.9345 11.8166 12.7471 16.1927 11.6518 17.6263C11.6155 17.6737 11.5594 17.7016 11.4996 17.7009L7.21766 17.6611C7.09316 17.6602 7.00411 17.5408 7.03822 17.4209Z" fill="#F39AC8"/>
<path d="M11.6563 10.0386L12.9943 9.81577C13.0656 9.8038 13.1239 9.87203 13.1013 9.94049L12.9688 10.3419C12.9573 10.3769 12.9267 10.4022 12.8904 10.407L11.6029 10.5789C11.5362 10.5878 11.4812 10.5273 11.4968 10.462L11.5787 10.1115C11.5874 10.0739 11.6179 10.0451 11.6563 10.0386Z" fill="#BDD0FB"/>
<path d="M10.6543 11.1716L10.7646 10.5974C10.7757 10.5398 10.8233 10.4963 10.8816 10.4904L13.584 10.2161C13.6751 10.2068 13.7478 10.2903 13.7265 10.3792L13.5546 11.0947C13.5408 11.1519 13.491 11.1933 13.4323 11.1962L10.7914 11.3291C10.7055 11.3335 10.6381 11.256 10.6543 11.1716Z" fill="#BDD0FB"/>
<path d="M7.48416 15.8638C7.48416 15.8638 7.22718 14.8067 7.33086 14.4316C7.43453 14.0566 7.63546 13.5743 8.30515 13.6815C8.97484 13.7887 9.76482 14.0708 9.76482 14.0708C9.76482 14.0708 9.72494 14.5592 9.21587 14.4017L9.53155 14.6458C9.53155 14.6458 9.48635 15.0371 9.05658 14.8279L9.35011 15.1518C9.35011 15.1518 9.16558 15.473 8.84923 15.267C8.53289 15.0612 8.38114 15.9912 7.48416 15.8638Z" fill="#EAC1A4"/>
<path d="M7.09207 5.47874L6.06616 8.4457C6.04911 8.49488 6.06927 8.54938 6.1149 8.57441C6.39447 8.72904 7.40222 9.17609 8.61643 8.40605C8.74292 8.32585 8.8291 8.19515 8.84815 8.0465L9.18044 5.47852H7.09207V5.47874Z" fill="#EAC1A4"/>
<path d="M9.32443 2.73096C9.32443 2.73096 10.4511 4.85167 10.3067 5.70833C10.1623 6.56499 8.76595 6.50341 7.54665 5.8078L6.69464 3.51784L9.32443 2.73096Z" fill="#EAC1A4"/>
<path d="M7.60047 4.68343C7.65009 4.6615 7.66826 4.6008 7.63857 4.55561C7.54841 4.41782 7.37916 4.13647 7.32511 3.89013C7.32511 3.89013 7.12263 3.76031 7.84061 3.58863C8.55859 3.41672 9.62947 3.15 9.85455 2.53879C10.0741 1.94287 9.49744 0.444438 8.57764 1.63849C8.54264 1.6839 8.47419 1.68501 8.43919 1.63938C8.28832 1.4431 7.892 1.03571 7.3415 1.28271C6.82644 1.51377 6.7684 1.89126 6.77549 2.08155C6.77748 2.1376 6.72742 2.18102 6.67248 2.17061C6.41218 2.12098 5.78724 2.07823 5.49548 2.71934C5.25512 3.24747 5.4113 3.54632 5.55352 3.69253C5.5996 3.73993 5.57944 3.81791 5.51631 3.83718C5.34506 3.88969 5.1242 4.03479 5.14635 4.43576C5.17692 4.99003 5.79676 4.9413 5.9731 4.91604C6.00212 4.91183 6.03114 4.9218 6.05064 4.94351C6.20194 5.11099 6.88359 5.82188 7.62129 5.90761C7.68509 5.91492 7.73472 5.85201 7.71367 5.79109L7.39444 4.86287C7.3796 4.81967 7.4002 4.77249 7.44185 4.7541L7.60047 4.68343Z" fill="#263238"/>
<path d="M7.72896 4.81496C7.72896 4.81496 6.9268 4.26468 6.86809 4.72812C6.80939 5.19157 7.5905 5.39936 7.9773 5.22657L7.72896 4.81496Z" fill="url(#paint4_linear_146_2050)"/>
<defs>
<linearGradient id="paint0_linear_146_2050" x1="13.0839" y1="37.5013" x2="-0.658802" y2="52.4496" gradientUnits="userSpaceOnUse">
<stop stop-color="#263238"/>
<stop offset="1" stop-color="#1A0F91"/>
</linearGradient>
<linearGradient id="paint1_linear_146_2050" x1="10.001" y1="34.667" x2="-3.7418" y2="49.6152" gradientUnits="userSpaceOnUse">
<stop stop-color="#263238"/>
<stop offset="1" stop-color="#1A0F91"/>
</linearGradient>
<linearGradient id="paint2_linear_146_2050" x1="7.94709" y1="12.0065" x2="26.5897" y2="-20.1128" gradientUnits="userSpaceOnUse">
<stop stop-color="#3E6897"/>
<stop offset="1" stop-color="#4042E2"/>
</linearGradient>
<linearGradient id="paint3_linear_146_2050" x1="4.06937" y1="9.75572" x2="22.712" y2="-22.3636" gradientUnits="userSpaceOnUse">
<stop stop-color="#3E6897"/>
<stop offset="1" stop-color="#4042E2"/>
</linearGradient>
<linearGradient id="paint4_linear_146_2050" x1="9.02136" y1="5.95677" x2="5.93466" y2="4.07411" gradientUnits="userSpaceOnUse">
<stop stop-color="#EAC1A4"/>
<stop offset="1" stop-color="#EAC1A4"/>
</linearGradient>
</defs>
</svg>
