<svg width="228" height="204" viewBox="0 0 228 204" fill="none" xmlns="http://www.w3.org/2000/svg">
<g filter="url(#filter0_d_168_1737)">
<path d="M73.5791 116.538C89.3696 108.306 90.3085 78.8808 75.6763 50.816C61.0441 22.7511 36.3817 6.67402 20.5912 14.9067C4.80072 23.1394 3.86174 52.5644 18.4939 80.6292C33.1261 108.694 57.7886 124.771 73.5791 116.538Z" fill="#FFABCC"/>
<path d="M110.594 81.362C95.3093 109.076 70.2761 124.573 54.6787 115.975C39.0814 107.376 38.8314 77.9313 54.1163 50.2173C69.4012 22.5033 94.4345 7.00593 110.032 15.6045C125.623 24.203 125.879 53.6417 110.594 81.362Z" fill="#FFABCC"/>
<path d="M60.9908 89.4605C60.9595 90.2541 60.7471 90.9977 60.3909 91.6538L70.2642 91.9975C70.6266 92.01 70.9266 91.7288 70.9453 91.3664L71.9514 62.665C71.9639 62.3026 71.6827 61.9964 71.3202 61.9839L61.9219 61.659C61.9406 61.8777 61.9531 62.0964 61.9468 62.3151C61.8531 65.0771 59.5348 67.2393 56.7727 67.1455C54.0107 67.0455 51.8486 64.7334 51.9423 61.9652C51.9486 61.7402 51.9798 61.5215 52.011 61.309L42.6126 60.9778C42.2502 60.9653 41.944 61.2465 41.9378 61.609L41.6066 70.9574C38.882 70.9074 36.6074 73.0445 36.5137 75.7753C36.42 78.5123 38.5383 80.8057 41.2566 80.9432L40.9317 90.3103C40.9192 90.6728 41.2004 90.9727 41.5628 90.9914L51.4361 91.3351C51.1299 90.654 50.9612 89.8979 50.9925 89.1043C51.0925 86.336 53.4108 84.1801 56.1728 84.2801C58.9224 84.3801 61.0845 86.6984 60.9908 89.4605Z" fill="white"/>
<path d="M81.8996 53.7105C81.106 53.698 80.3561 53.498 79.6937 53.1606L79.5625 63.0401C79.5563 63.4026 79.85 63.7025 80.2124 63.7025L108.932 64.0837C109.295 64.09 109.595 63.8025 109.601 63.4338L109.726 54.0292C109.507 54.0542 109.295 54.0667 109.07 54.0667C106.308 54.0292 104.096 51.7608 104.133 48.9988C104.171 46.2305 106.439 44.0246 109.207 44.0559C109.432 44.0559 109.651 44.0809 109.864 44.1121L109.989 34.7075C109.995 34.345 109.701 34.0451 109.339 34.0451L99.984 33.9201C99.9778 31.1956 97.7906 28.9647 95.0536 28.9335C92.3166 28.896 90.067 31.0644 89.9857 33.7889L80.6186 33.6639C80.2561 33.6577 79.9624 33.9514 79.9562 34.3138L79.825 44.1934C80.4998 43.8684 81.2497 43.6872 82.0433 43.6997C84.8116 43.7372 87.0175 46.0056 86.98 48.7738C86.9362 51.5359 84.6616 53.748 81.8996 53.7105Z" fill="white"/>
<path d="M210.99 165.229C211.183 165.298 216.151 177.039 212.264 177.239C208.378 177.439 206.047 166.285 206.047 166.285L210.99 165.229Z" fill="#552B19"/>
<path d="M193.493 165.229C193.686 165.298 198.654 177.039 194.767 177.239C190.881 177.439 188.55 166.285 188.55 166.285L193.493 165.229Z" fill="#421F13"/>
<path d="M214.982 119.374C214.276 119.33 187.9 120.749 185.206 123.93C182.513 127.11 188.749 166.429 191.886 169.047C195.03 171.665 215.482 170.69 215.482 170.69L214.982 119.374Z" fill="#A29CDB"/>
<path d="M153.212 151.419C153.212 151.419 174.096 107.114 147.294 98.034C119.155 88.5044 54.7913 92.2038 47.3051 98.034C39.8189 103.864 66.558 146.032 70.8386 151.419H153.212Z" fill="#70649B"/>
<path d="M183.769 150.194C183.769 150.194 212.202 102.646 177.195 96.8093C142.195 90.9791 74.488 90.9791 66.1707 96.8093C57.8533 102.64 87.5545 144.807 92.3037 150.194H183.769Z" fill="#8172A9"/>
<path d="M86.8609 165.229C86.6672 165.298 81.6993 177.039 85.5861 177.239C89.473 177.439 91.8038 166.285 91.8038 166.285L86.8609 165.229Z" fill="#552B19"/>
<path d="M66.4646 165.604C66.2834 165.666 61.5529 176.839 65.2523 177.033C68.9517 177.227 71.17 166.61 71.17 166.61L66.4646 165.604Z" fill="#421F13"/>
<path d="M222.607 125.148C222.007 122.549 220.095 120.418 217.533 119.662C215.908 119.187 214.108 119.087 213.021 120.368C207.416 126.96 211.34 170.853 211.34 170.853L222.213 170.678C222.219 170.684 225.544 137.833 222.607 125.148Z" fill="#B6ACE9"/>
<path d="M203.054 146.663L90.9354 145.239L85.3801 170.84L207.54 170.859L203.054 146.663Z" fill="#A29CDB"/>
<path d="M214.513 129.204C214.582 130.504 215.557 131.603 216.913 131.603C218.213 131.603 219.319 130.51 219.312 129.204C219.306 127.942 218.288 126.867 217.025 126.811C215.619 126.748 214.582 127.854 214.513 129.204C214.488 129.679 215.232 129.679 215.257 129.204C215.369 127.079 218.569 127.06 218.569 129.204C218.569 131.347 215.369 131.328 215.257 129.204C215.226 128.729 214.488 128.723 214.513 129.204Z" fill="#A29CDB"/>
<path d="M219.789 170.559C220.57 164.16 221.114 157.724 221.47 151.287C221.926 143.051 223.076 132.991 220.189 125.048C218.871 121.436 215.715 119.918 213.878 124.036C210.784 130.997 211.916 140.827 212.159 148.175C212.403 155.705 213.065 163.192 213.665 170.697C213.703 171.171 214.446 171.171 214.409 170.697C213.378 157.83 211.966 144.757 213.122 131.853C213.334 129.485 213.428 124.829 215.296 122.967C218.014 120.268 219.57 125.229 220.045 127.304C221.864 135.296 221.158 144.132 220.677 152.237C220.314 158.355 219.795 164.473 219.052 170.553C218.989 171.034 219.727 171.028 219.789 170.559Z" fill="#A29CDB"/>
<path d="M163.797 110.788C163.86 111.9 164.685 112.832 165.841 112.832C166.953 112.832 167.884 111.9 167.884 110.788C167.884 109.707 167.009 108.795 165.928 108.745C164.741 108.695 163.86 109.645 163.797 110.788C163.772 111.226 164.454 111.226 164.479 110.788C164.572 109.038 167.209 109.026 167.209 110.788C167.209 112.55 164.572 112.538 164.479 110.788C164.454 110.357 163.772 110.351 163.797 110.788Z" fill="#A29CDB"/>
<path d="M165.273 131.172C165.336 132.284 166.161 133.216 167.317 133.216C168.429 133.216 169.36 132.284 169.36 131.172C169.36 130.091 168.485 129.179 167.404 129.129C166.217 129.079 165.336 130.022 165.273 131.172C165.248 131.61 165.929 131.61 165.954 131.172C166.048 129.422 168.685 129.41 168.685 131.172C168.685 132.934 166.048 132.922 165.954 131.172C165.936 130.735 165.248 130.735 165.273 131.172Z" fill="#A29CDB"/>
<path d="M69.9451 108.264C70.0076 109.376 70.8325 110.307 71.9885 110.307C73.1009 110.307 74.0319 109.376 74.0319 108.264C74.0319 107.183 73.1571 106.27 72.0823 106.22C70.8887 106.17 70.0076 107.12 69.9451 108.264C69.9201 108.701 70.6013 108.701 70.6263 108.264C70.72 106.514 73.357 106.501 73.357 108.264C73.357 110.026 70.72 110.013 70.6263 108.264C70.6013 107.832 69.9201 107.826 69.9451 108.264Z" fill="#A29CDB"/>
<path d="M190.75 186.344C190.75 186.344 193.568 190.006 193.618 190.812C193.749 193.212 187.275 197.792 184.251 197.998C183.826 198.029 183.132 197.642 183.332 196.467C183.532 195.292 186.663 191.937 185.388 190.487C184.113 189.037 190.75 186.344 190.75 186.344Z" fill="#234551"/>
<path d="M156.374 175.946C156.374 175.946 157.268 180.482 156.949 181.226C155.999 183.432 148.157 184.644 145.357 183.482C144.963 183.319 144.514 182.663 145.213 181.701C145.913 180.739 150.219 179.133 149.725 177.264C149.231 175.396 156.374 175.946 156.374 175.946Z" fill="#234551"/>
<path d="M112.525 171.578C112.525 171.578 111.632 176.115 111.951 176.858C112.9 179.064 120.743 180.276 123.536 179.114C123.93 178.952 124.38 178.295 123.68 177.333C122.98 176.371 118.674 174.765 119.168 172.896C119.668 171.034 112.525 171.578 112.525 171.578Z" fill="#234551"/>
<path d="M130.591 159.18C130.591 159.18 131.447 163.723 132.022 164.291C133.722 165.985 141.458 164.204 143.62 162.086C143.92 161.792 144.101 161.011 143.089 160.38C142.083 159.748 137.49 159.855 137.252 157.936C137.015 156.018 130.591 159.18 130.591 159.18Z" fill="#234551"/>
<path d="M155.88 147.544C155.88 147.544 183.301 146.788 187.594 146.607C193.899 146.338 195.68 143.97 192.418 137.477C190.174 133.016 151.562 131.135 147.432 138.465C142.364 147.457 155.88 147.544 155.88 147.544Z" fill="#5E90C9"/>
<path d="M147.218 176.302C145.699 168.428 144.125 143.751 147.43 138.465C151.005 132.747 158.129 138.402 158.447 147.269C158.653 153.018 159.085 172.484 158.835 177.77C158.772 179.051 155.398 179.708 153.386 179.589C153.329 179.589 147.655 178.577 147.218 176.302Z" fill="#5E90C9"/>
<path d="M178.851 160.342C178.851 160.342 197.461 152.918 201.066 150.588C206.365 147.163 207.596 139.252 201.491 135.303C197.298 132.591 162.885 150.544 163.21 158.949C163.504 166.572 178.851 160.342 178.851 160.342Z" fill="#5E90C9"/>
<path d="M182.199 191.674C176.9 185.657 163.04 165.179 163.209 158.949C163.39 152.212 172.401 153.475 177.162 160.955C180.249 165.804 190.491 182.37 192.953 187.056C193.553 188.194 190.973 190.468 189.179 191.387C189.135 191.406 183.73 193.412 182.199 191.674Z" fill="#5E90C9"/>
<path d="M180.612 142.908C178.394 143.17 176.451 144.901 175.463 146.876C175.238 147.326 174.563 146.932 174.788 146.482C175.907 144.245 178.069 142.433 180.612 142.127C181.112 142.07 181.106 142.845 180.612 142.908Z" fill="#171726"/>
<path d="M183.608 108.757C183.608 108.757 188.732 106.039 190.632 107.87C191.706 108.907 191.769 111.913 190.888 113.662C189.201 117.031 183.758 124.036 178.046 127.129C175.953 128.26 170.754 124.973 172.822 121.467C175.54 116.868 180.452 111.7 183.608 108.757Z" fill="#F6E0D5"/>
<path d="M182.514 110.657C184.47 105.314 194.118 107.432 200.704 108.757C205.147 109.651 207.572 111.825 206.953 119.987C206.71 123.199 206.441 133.016 204.654 137.89C204.335 138.765 202.973 139.508 202.248 140.096C198.074 143.464 176.596 138.796 177.683 133.828C177.69 133.834 178.333 122.074 182.514 110.657Z" fill="#FCE6D9"/>
<path d="M156.331 141.727L181.971 148.532L195.237 142.839L156.894 131.56L156.331 141.727Z" fill="#A8A8A8"/>
<path d="M156.403 140.389L182.212 147.238L195.478 141.545L157.128 130.266L156.403 140.389Z" fill="#CBCCD1"/>
<path d="M156.386 140.727L178.945 146.632L190.624 141.62L156.867 131.685L156.386 140.727Z" fill="#BDBEC1"/>
<path d="M181.969 148.532L180.682 149.044L156.33 141.727L156.261 120.38L180.594 126.917L181.969 148.532Z" fill="#B8B9BC"/>
<path d="M180.68 149.044L156.327 141.726L154.359 120.736L179.392 127.26L180.68 149.044Z" fill="#CBCCD1"/>
<path d="M195.478 141.545L195.235 142.839L181.968 148.532L181.993 147.182L195.478 141.545Z" fill="#B8B9BC"/>
<path d="M179.393 127.26L180.362 126.848L156.26 120.38L154.36 120.736L179.393 127.26Z" fill="#C4C5C6"/>
<path d="M208.266 128.104C208.31 128.942 211.459 137.553 209.635 139.677C208.316 141.221 202.473 138.434 202.473 138.434C202.473 138.434 204.66 136.734 201.342 130.004C198.543 124.336 208.266 128.104 208.266 128.104Z" fill="#FBB99D"/>
<path d="M209.119 140.258C205.807 143.526 192.909 148.831 192.909 148.831L193.409 145.8L205.807 135.733C205.807 135.733 212.425 136.989 209.119 140.258Z" fill="#FBB99D"/>
<path d="M193.717 145.045C193.398 144.983 193.092 144.714 192.805 144.57C192.23 144.289 191.592 144.208 190.967 144.145C190.617 144.108 189.93 143.614 189.618 143.945C189.105 144.483 190.474 144.982 190.73 145.195C190.961 145.389 191.13 145.726 191.005 146.001C190.924 146.182 190.742 146.301 190.561 146.395C189.993 146.695 189.386 146.901 188.793 147.138C188.487 147.263 188.187 147.407 187.887 147.551C187.662 147.657 187.318 147.713 187.137 147.87C186.987 147.994 186.943 148.257 187.112 148.388C187.268 148.507 187.412 148.382 187.574 148.338C187.93 148.238 188.287 148.151 188.643 148.069C188.724 148.051 189.068 147.913 189.136 147.969C189.48 148.238 188.555 148.613 188.418 148.682C188.055 148.851 187.687 149.032 187.474 149.388C187.449 149.432 187.424 149.488 187.443 149.544C187.474 149.625 187.587 149.632 187.668 149.613C188.168 149.532 188.624 149.276 189.124 149.207C189.205 149.194 189.305 149.194 189.349 149.263C189.543 149.532 188.993 149.9 188.824 150.038C188.718 150.125 188.593 150.244 188.63 150.375C188.655 150.463 188.749 150.513 188.836 150.519C188.924 150.525 189.011 150.494 189.099 150.463C189.349 150.375 189.618 150.307 189.855 150.188C189.968 150.132 190.292 149.932 190.399 150.069C190.417 150.094 190.424 150.132 190.417 150.169C190.399 150.294 190.299 150.382 190.211 150.475C190.13 150.569 190.055 150.7 190.111 150.813C190.174 150.956 190.374 150.956 190.524 150.925C191.067 150.813 191.567 150.5 192.048 150.232C192.561 149.944 193.061 149.638 193.548 149.307C194.461 148.682 195.248 147.863 196.21 147.326C196.354 147.245 196.504 147.17 196.629 147.051C196.86 146.832 196.948 146.507 196.966 146.189C197.004 145.601 196.791 144.958 196.348 144.558C196.204 144.433 195.935 144.151 195.748 144.189C195.61 144.214 195.429 144.42 195.317 144.501C195.154 144.62 194.985 144.733 194.804 144.826C194.492 144.995 194.129 145.095 193.717 145.045Z" fill="#FBB99D"/>
<path d="M198.811 116.443C198.473 113.219 199.348 110.038 202.097 109.607C203.66 109.363 206.228 111.226 207.147 113.088C208.921 116.662 211.371 125.736 210.359 132.534C209.99 135.022 203.91 137.321 202.266 133.334C200.11 128.098 199.292 120.986 198.811 116.443Z" fill="#F6E0D5"/>
<path d="M198.939 108.682C198.939 108.682 194.114 115.206 188.503 113.357C185.897 112.501 185.747 110.17 187.859 108.664C189.94 107.183 198.939 108.682 198.939 108.682Z" fill="#FBB99D"/>
<path d="M188.513 90.9416C189.112 90.1355 189.875 89.4231 190.787 88.8357C192.106 87.9983 193.568 87.7921 195.099 87.9421C196.874 88.1171 200.985 89.9605 201.704 94.7284C202.048 96.9906 201.06 99.3401 199.729 101.127C198.33 103.015 196.067 103.527 193.812 103.671C192.887 103.733 191.931 103.689 191.068 103.358C189.956 102.927 189.069 102.04 188.413 101.04C187.7 99.9588 187.219 98.7215 187.019 97.4405C186.638 95.0596 187.163 92.76 188.513 90.9416Z" fill="#53424D"/>
<path d="M186.869 109.657C186.869 109.657 189.612 106.358 189.831 102.283C189.887 101.259 191.474 101.177 191.143 100.652C190.818 100.127 196.205 99.2151 196.205 99.2151C196.205 99.2151 195.261 105.42 198.948 108.682L186.869 109.657Z" fill="#FBB99D"/>
<path d="M189.79 102.959C189.796 101.703 191.139 100.403 190.739 99.7654C190.339 99.128 196.932 98.0032 196.932 98.0032C196.932 98.0032 195.988 99.2967 195.807 101.284C193.533 103.571 191.221 104.327 189.402 104.708L189.79 102.959Z" fill="#DC8162"/>
<path d="M192.012 89.3669C189.618 91.0041 184.325 98.1404 187.719 102.352C189.168 104.152 194.305 102.627 197.398 99.1839C198.673 97.7717 199.285 94.291 198.236 91.0416C197.773 89.5731 194.774 87.4422 192.012 89.3669Z" fill="#FBB99D"/>
<path d="M199.528 87.1173C198.922 87.386 198.391 87.8297 197.997 88.3671C197.616 88.892 197.097 89.8293 197.353 90.4855C197.547 90.9791 197.959 91.3478 198.259 91.7852C198.522 92.1727 198.69 92.6163 198.959 92.9975C199.434 93.6662 200.146 94.1286 200.778 94.6285C201.39 95.1159 202.065 95.0034 202.79 94.7597C203.952 94.3598 205.046 93.5662 205.496 92.4226C205.983 91.1791 205.127 89.8481 204.383 88.8982C204.202 88.667 204.008 88.4483 203.858 88.1921C203.102 86.9048 201.159 86.5549 199.822 87.011C199.715 87.036 199.622 87.0735 199.528 87.1173Z" fill="#53424D"/>
<path d="M188.241 92.2606C188.554 93.0917 188.803 91.8919 190.747 91.4232C190.984 91.367 191.241 91.3545 191.49 91.342C191.697 91.3357 191.915 91.3482 192.109 91.4232C192.534 91.5794 192.697 91.9856 192.703 92.4106C192.709 93.3416 193.103 94.0915 193.609 94.8414C194.171 95.6662 194.634 96.4849 194.765 97.4909C194.802 97.7909 194.79 98.0658 194.896 98.3408C195.034 98.6782 195.09 99.0469 195.065 99.4094C195.04 99.7593 194.94 100.103 194.884 100.453C194.802 100.984 194.89 101.347 195.252 101.715C195.396 101.865 195.559 101.996 195.734 102.109C196.09 102.34 196.502 102.496 196.927 102.553C197.914 102.684 198.845 102.246 199.458 101.478C200.508 100.165 200.67 98.2783 200.651 96.6661C200.639 95.5225 200.508 94.379 200.32 93.2542C200.145 92.2043 199.645 91.2732 198.902 90.5046C197.927 89.4923 196.59 88.8299 195.227 88.555C194.534 88.4112 193.815 88.3612 193.103 88.4237C189.747 88.7112 187.997 91.6107 188.241 92.2606Z" fill="#53424D"/>
<path d="M194.505 98.5402C194.505 98.5402 196.505 97.0468 197.473 97.6092C198.448 98.1778 196.761 100.871 194.692 100.302C192.636 99.7338 193.899 98.9402 194.505 98.5402Z" fill="#FBB99D"/>
<path d="M192.549 97.4092C192.599 97.378 192.493 97.4405 192.474 97.4467C192.393 97.4842 192.312 97.5155 192.224 97.5342C191.887 97.603 191.712 97.3905 191.599 97.1093C191.53 96.9343 191.255 97.0656 191.324 97.2405C191.568 97.8592 192.193 97.9904 192.743 97.628C192.911 97.5217 192.705 97.303 192.549 97.4092Z" fill="#A45D49"/>
<path d="M189.275 96.6031C189.2 96.6843 189.106 96.7656 189.012 96.8218C188.693 97.003 188.487 96.8156 188.337 96.5281C188.25 96.3594 187.975 96.4906 188.062 96.6594C188.244 96.9968 188.531 97.2842 188.956 97.1655C189.187 97.103 189.387 96.9405 189.537 96.7718C189.65 96.6219 189.4 96.4594 189.275 96.6031Z" fill="#A45D49"/>
<path d="M188.567 95.1161C189.054 94.9661 189.473 95.1723 189.698 95.6223C189.804 95.8347 190.116 95.6473 190.01 95.4348C189.71 94.8411 189.11 94.5537 188.46 94.7599C188.242 94.8349 188.342 95.1848 188.567 95.1161Z" fill="#513D38"/>
<path d="M191.613 96.0472C192.038 95.7722 192.5 95.8597 192.844 96.2284C193 96.4034 193.256 96.1347 193.1 95.9659C192.65 95.4723 192 95.366 191.426 95.7347C191.226 95.8597 191.413 96.1722 191.613 96.0472Z" fill="#513D38"/>
<path d="M190.383 96.2219C190.476 96.5469 190.52 96.9155 190.426 97.2405C190.283 97.7092 189.751 97.9154 189.458 98.3028C189.051 98.834 189.451 99.1527 190.095 99.3401C190.251 99.3839 190.326 99.1902 190.17 99.1402C188.72 98.7215 190.414 97.9841 190.639 97.378C190.782 96.9968 190.739 96.5594 190.626 96.1782C190.589 96.0469 190.339 96.0907 190.383 96.2219Z" fill="#DC8162"/>
<path d="M191.313 99.9586C191.313 99.9586 191.407 101.215 190.363 101.221C189.319 101.227 189.207 100.096 189.207 100.096L191.313 99.9586Z" fill="#FAFFFF"/>
<path d="M193.317 99.5339C193.192 99.9026 192.786 100.103 192.417 99.9776C192.048 99.8526 191.848 99.4464 191.973 99.0777C192.098 98.709 192.504 98.5091 192.873 98.634C193.248 98.759 193.448 99.1652 193.317 99.5339Z" fill="#F3A498"/>
<path d="M187.594 98.2778C187.906 98.0279 188.356 98.0841 188.606 98.3903C188.856 98.7028 188.8 99.1527 188.493 99.4026C188.181 99.6526 187.731 99.5963 187.481 99.2901C187.231 98.9777 187.287 98.5278 187.594 98.2778Z" fill="#F3A498"/>
<path d="M195.217 99.9775C195.773 100.809 196.736 102.933 194.849 102.69C193.505 102.515 194.336 101.046 194.824 100.39C194.942 100.234 194.686 100.065 194.574 100.221C193.849 101.196 193.211 103.002 195.061 103.008C197.08 103.008 196.117 100.777 195.449 99.7838C195.342 99.6151 195.111 99.8151 195.217 99.9775Z" fill="#FB8245"/>
<path d="M83.8363 103.827C83.8363 103.827 85.4547 104.533 85.4485 107.326C86.9045 109.72 86.9982 112.444 87.1232 114.538C87.8856 127.585 82.7052 129.641 83.7613 132.035C85.6547 136.334 109.876 129.766 108.826 125.279C104.283 105.802 114.05 105.945 104.295 100.99C100.821 99.2276 87.0857 99.8838 83.8363 103.827Z" fill="#FBC9C8"/>
<path d="M107.789 137.427L110.807 173.246C110.807 173.246 115.925 175.415 120.268 173.246L124.067 142.789L117.281 134.14L107.789 137.427Z" fill="#94B8ED"/>
<path d="M83.3681 134.14C83.3681 134.14 80.9248 151.537 93.1352 150.725C105.346 149.913 111.588 138.515 115.931 139.602C120.274 140.689 129.498 161.854 129.498 161.854C129.498 161.854 133.841 162.942 138.452 158.324C138.452 158.324 133.297 131.728 123.799 125.217C114.3 118.706 83.3681 134.14 83.3681 134.14Z" fill="#B3D0FF"/>
<path d="M111.514 109.67C111.889 110.382 119.212 120.874 117.781 123.567C117.144 124.761 113.395 124.973 110.939 121.586C108.345 118.006 104.852 109.888 108.377 109.963C109.477 109.982 111.514 109.67 111.514 109.67Z" fill="#EAC1A4"/>
<path d="M131.309 122.93C131.309 122.93 130.828 123.342 130.728 123.361C129.247 123.655 116.199 127.292 114.631 122.549C112.306 115.531 120.249 120.193 129.86 120.818L131.309 122.93Z" fill="#EAC1A4"/>
<path d="M125.696 121.443C125.696 121.443 129.908 120.212 132.239 120.78C135.107 121.48 136.838 123.623 136.532 124.355C135.969 125.711 131.776 123.149 131.22 123.267C130.545 123.411 128.82 123.586 128.221 123.555C127.621 123.523 125.696 121.443 125.696 121.443Z" fill="#EAC1A4"/>
<path d="M86.4232 115.237C86.9543 113.169 86.5794 110.626 84.4048 109.77C83.1675 109.282 81.7427 110.594 80.6491 111.894C78.0308 115.012 72.3256 129.329 76.0749 132.728C79.5243 135.846 84.736 121.774 86.4232 115.237Z" fill="#EAC1A4"/>
<path d="M107.576 102.358C101.615 98.9339 94.7595 100.046 93.1473 101.49C92.235 102.308 99.0775 102.14 99.6962 103.683C100.771 106.389 104.07 115.406 108.401 119.505C109.888 120.911 116.631 117.118 115.094 113.775C113.194 109.645 110.763 104.189 107.576 102.358Z" fill="#F9BBB9"/>
<path d="M91.1471 106.957C91.772 104.483 94.9339 102.833 92.8156 102.196C91.6095 101.833 87.6789 100.34 84.3108 103.246C80.3364 106.67 79.874 110.207 77.137 115.444C76.2184 117.199 84.6732 121.48 86.2229 118.449C88.5225 113.938 89.7661 112.438 91.1471 106.957Z" fill="#F9BBB9"/>
<path d="M99.4963 110.501C100.865 110.701 101.452 108.182 101.452 108.182L90.2541 100.852C90.2541 100.852 91.4976 109.345 99.4963 110.501Z" fill="#FDFEFD"/>
<path d="M103.989 109.726C102.39 110.176 101.446 108.176 101.446 108.176L103.421 100.615L105.458 101.333C105.458 101.34 108.47 108.464 103.989 109.726Z" fill="#FDFEFD"/>
<path d="M105.458 101.34C105.458 101.34 97.4529 97.7716 90.2541 100.852L101.452 108.182L105.458 101.34Z" fill="#FDFEFD"/>
<path d="M92.4986 100.096C92.4986 100.096 95.0107 108.12 101.041 108.189C103.847 108.22 104.759 105.983 103.216 103.796C101.691 101.646 92.4986 100.096 92.4986 100.096Z" fill="#EAC1A4"/>
<path d="M103.408 103.608C103.646 103.852 104.039 103.852 104.277 103.608C104.514 103.364 104.514 102.971 104.277 102.727C104.039 102.483 103.646 102.483 103.408 102.727C103.171 102.971 103.171 103.364 103.408 103.608Z" fill="#FEA603"/>
<path d="M103.033 102.546C103.27 102.79 103.664 102.79 103.901 102.546C104.139 102.302 104.139 101.908 103.901 101.665C103.664 101.421 103.27 101.421 103.033 101.665C102.795 101.908 102.795 102.302 103.033 102.546Z" fill="#FEA603"/>
<path d="M102.421 101.459C102.658 101.702 103.052 101.702 103.29 101.459C103.527 101.215 103.527 100.821 103.29 100.577C103.052 100.334 102.658 100.334 102.421 100.577C102.177 100.821 102.177 101.215 102.421 101.459Z" fill="#FEA603"/>
<path d="M93.46 99.6777C93.6974 99.9214 94.0911 99.9214 94.3286 99.6777C94.566 99.4339 94.566 99.0403 94.3286 98.7966C94.0911 98.5528 93.6974 98.5528 93.46 98.7966C93.2225 99.034 93.2225 99.4277 93.46 99.6777Z" fill="#FEA603"/>
<path d="M109.07 85.3425C107.389 82.6617 106.077 82.1618 103.364 81.5119C101.59 81.0932 97.2905 81.5119 95.1034 86.1986C93.6599 89.2918 95.1034 95.472 95.1034 95.472C98.9277 97.5967 99.8526 99.1402 100.696 98.9527C105.033 97.9654 112.513 90.8166 109.07 85.3425Z" fill="#53424D"/>
<path d="M103.846 105.108C103.846 105.108 102.29 100.946 103.421 96.878C103.708 95.8532 102.202 95.2408 102.69 94.8346C103.177 94.4285 98.2716 91.7227 98.2716 91.7227C98.2716 91.7227 98.1654 98.3778 92.4913 100.096L103.846 105.108Z" fill="#EAC1A4"/>
<path d="M103.238 97.5528C103.65 96.3155 102.775 94.5908 103.375 94.0971C103.975 93.6034 97.9699 90.2915 97.9699 90.2915C97.9699 90.2915 98.4573 91.8787 97.9699 93.8846C99.4134 96.8966 101.394 98.4151 103.032 99.3962L103.238 97.5528Z" fill="#BF7C64"/>
<path d="M105.405 85.7426C109.317 86.9174 110.01 95.4596 105.305 98.7216C103.293 100.115 98.8559 96.6969 97.0375 91.9602C96.2876 90.0168 96.8812 86.1175 98.9934 83.043C99.9495 81.6495 102.099 84.749 105.405 85.7426Z" fill="#EAC1A4"/>
<path d="M108.27 87.5671C107.695 88.2795 107.851 87.0172 106.12 85.9049C105.908 85.7674 105.664 85.6675 105.426 85.58C105.227 85.505 105.014 85.4425 104.802 85.4488C104.339 85.455 104.045 85.7987 103.902 86.2174C103.589 87.1297 102.964 87.7296 102.221 88.2983C101.408 88.9169 100.69 89.5668 100.227 90.5104C100.09 90.7916 100.015 91.0665 99.8212 91.2978C99.5775 91.5852 99.4025 91.9226 99.3088 92.2913C99.215 92.6475 99.2025 93.0162 99.1401 93.3787C99.0401 93.9223 98.8401 94.2535 98.3652 94.4972C98.1777 94.5972 97.9778 94.6659 97.7715 94.7222C97.3466 94.8284 96.8967 94.8471 96.4718 94.7597C95.4719 94.5534 95.4469 94.5035 95.1095 93.5474C94.5283 91.9039 94.2659 89.3106 94.8158 87.7296C95.2095 86.611 95.7094 85.53 96.2655 84.4864C96.778 83.5178 97.5716 82.768 98.5464 82.2618C99.8212 81.5994 101.333 81.3932 102.746 81.5807C103.464 81.6744 104.177 81.8681 104.839 82.1618C107.995 83.5741 108.726 87.011 108.27 87.5671Z" fill="#53424D"/>
<path d="M100.132 91.6291C100.132 91.6291 98.6947 89.4919 97.5699 89.7169C96.4389 89.9481 97.1825 93.1601 99.3696 93.2913C101.544 93.4225 100.588 92.2227 100.132 91.6291Z" fill="#EAC1A4"/>
<path d="M93.5287 99.3963C93.2788 99.1651 92.8913 99.1776 92.6601 99.4276C92.4289 99.6775 92.4414 100.077 92.6914 100.309C92.9413 100.54 93.3288 100.527 93.56 100.277C93.7974 100.027 93.7787 99.6338 93.5287 99.3963Z" fill="#FEA603"/>
<path d="M94.148 100.39C93.898 100.153 93.5106 100.171 93.2794 100.421C93.0482 100.671 93.0607 101.071 93.3106 101.302C93.5606 101.54 93.948 101.521 94.1792 101.271C94.4104 101.021 94.3979 100.627 94.148 100.39Z" fill="#FEA603"/>
<path d="M93.9103 102.252C94.1477 102.496 94.5414 102.496 94.7789 102.252C95.0164 102.008 95.0164 101.615 94.7789 101.371C94.5414 101.127 94.1477 101.127 93.9103 101.371C93.6666 101.615 93.6666 102.008 93.9103 102.252Z" fill="#FEA603"/>
<path d="M94.672 103.171C94.9095 103.414 95.3032 103.414 95.5406 103.171C95.7781 102.927 95.7781 102.533 95.5406 102.29C95.3032 102.046 94.9095 102.046 94.672 102.29C94.4283 102.533 94.4283 102.927 94.672 103.171Z" fill="#FEA603"/>
<path d="M95.516 104.027C95.7534 104.271 96.1471 104.271 96.3846 104.027C96.622 103.783 96.622 103.389 96.3846 103.146C96.1471 102.902 95.7534 102.902 95.516 103.146C95.2723 103.389 95.2723 103.783 95.516 104.027Z" fill="#FEA603"/>
<path d="M96.5529 104.589C96.7904 104.833 97.1841 104.833 97.4215 104.589C97.659 104.345 97.659 103.952 97.4215 103.708C97.1841 103.464 96.7904 103.464 96.5529 103.708C96.3092 103.946 96.3092 104.345 96.5529 104.589Z" fill="#FEA603"/>
<path d="M97.5779 105.064C97.8154 105.308 98.2091 105.308 98.4465 105.064C98.684 104.82 98.684 104.427 98.4465 104.183C98.2091 103.939 97.8154 103.939 97.5779 104.183C97.3405 104.427 97.3405 104.82 97.5779 105.064Z" fill="#FEA603"/>
<path d="M98.6026 105.645C98.8401 105.889 99.2338 105.889 99.4712 105.645C99.7087 105.402 99.7087 105.008 99.4712 104.764C99.2338 104.52 98.8401 104.52 98.6026 104.764C98.3589 105.008 98.3589 105.402 98.6026 105.645Z" fill="#FEA603"/>
<path d="M100.178 106.02C100.516 106.02 100.79 105.74 100.79 105.395C100.79 105.05 100.516 104.77 100.178 104.77C99.8394 104.77 99.5653 105.05 99.5653 105.395C99.5653 105.74 99.8394 106.02 100.178 106.02Z" fill="#FEA603"/>
<path d="M100.921 105.689C101.159 105.933 101.552 105.933 101.79 105.689C102.027 105.445 102.027 105.052 101.79 104.808C101.552 104.564 101.159 104.564 100.921 104.808C100.684 105.052 100.684 105.445 100.921 105.689Z" fill="#FEA603"/>
<path d="M102.052 105.377C102.289 105.62 102.683 105.62 102.921 105.377C103.158 105.133 103.158 104.739 102.921 104.495C102.683 104.252 102.289 104.252 102.052 104.495C101.814 104.733 101.814 105.133 102.052 105.377Z" fill="#FEA603"/>
<path d="M103.42 104.839C103.758 104.839 104.032 104.559 104.032 104.214C104.032 103.869 103.758 103.589 103.42 103.589C103.082 103.589 102.808 103.869 102.808 104.214C102.808 104.559 103.082 104.839 103.42 104.839Z" fill="#FEA603"/>
<path d="M95.303 94.8159C95.303 94.8159 92.691 96.0906 90.7601 99.2338C88.023 103.702 87.1169 114.275 98.7774 114.275C98.7774 114.275 94.5094 98.9651 96.7965 95.8282L95.303 94.8159Z" fill="#53424D"/>
<path d="M94.7724 94.5096L94.51 95.2908C94.51 95.2908 96.5971 96.4156 96.6471 96.2718C96.7034 96.1281 97.3782 95.3033 97.3782 95.3033L94.7724 94.5096Z" fill="#2F7EDD"/>
<path d="M86.2361 134.528C86.2361 134.528 92.7474 137.409 93.2786 137.796C96.6655 140.289 98.7964 140.827 98.0965 141.289C96.8155 142.139 92.3038 140.258 91.6226 139.989C90.7915 139.658 88.7544 138.64 88.0857 138.196C87.4171 137.752 86.2361 134.528 86.2361 134.528Z" fill="#EAC1A4"/>
<path d="M76.3568 132.972C79.5625 135.834 91.6229 140.014 91.6229 140.014L90.9855 137.202L79.225 127.616C79.225 127.623 73.1511 130.11 76.3568 132.972Z" fill="#CC8C71"/>
<path d="M101.921 91.4914C101.877 91.4476 101.971 91.5351 101.989 91.5539C102.071 91.6164 102.152 91.6726 102.245 91.7101C102.608 91.8601 102.852 91.6726 103.045 91.3852C103.164 91.2039 103.439 91.4164 103.32 91.5914C102.902 92.2288 102.177 92.2225 101.646 91.6914C101.489 91.5351 101.771 91.3352 101.921 91.4914Z" fill="#1E100C"/>
<path d="M105.764 91.3539C105.826 91.4664 105.914 91.5726 106.008 91.6539C106.32 91.9288 106.595 91.7664 106.833 91.4852C106.97 91.3164 107.251 91.5289 107.108 91.6914C106.833 92.0226 106.439 92.2788 105.995 92.0476C105.758 91.9226 105.57 91.6976 105.439 91.4727C105.339 91.2914 105.658 91.1665 105.764 91.3539Z" fill="#1E100C"/>
<path d="M106.895 89.8604C106.389 89.5792 105.87 89.7104 105.514 90.1603C105.345 90.3728 105.039 90.0853 105.207 89.8791C105.682 89.2855 106.414 89.1105 107.095 89.4854C107.326 89.6229 107.132 89.9916 106.895 89.8604Z" fill="#552B19"/>
<path d="M103.283 90.1854C102.87 89.7729 102.333 89.7667 101.871 90.1041C101.652 90.2604 101.433 89.9042 101.652 89.7479C102.271 89.3043 103.02 89.3355 103.57 89.8854C103.764 90.0729 103.477 90.3791 103.283 90.1854Z" fill="#552B19"/>
<path d="M104.62 90.6728C104.439 91.0102 104.302 91.4164 104.333 91.7976C104.383 92.3538 104.927 92.7099 105.164 93.2099C105.489 93.8972 104.977 94.1597 104.208 94.2222C104.021 94.2347 103.983 93.9972 104.171 93.9847C105.889 93.8535 104.164 92.635 104.058 91.9038C103.989 91.4477 104.133 90.9665 104.352 90.5666C104.427 90.4291 104.695 90.5353 104.62 90.6728Z" fill="#BF7C64"/>
<path d="M102.702 94.6284C102.702 94.6284 102.308 96.0094 103.471 96.2593C104.633 96.5093 105.02 95.2782 105.02 95.2782L102.702 94.6284Z" fill="#FAFFFF"/>
<path d="M100.584 93.816C100.64 94.2597 101.046 94.5784 101.49 94.5222C101.933 94.4659 102.252 94.0597 102.196 93.6161C102.14 93.1724 101.733 92.8537 101.29 92.9099C100.84 92.9662 100.527 93.3724 100.584 93.816Z" fill="#EBAB7E"/>
<path d="M107.645 93.2286C107.357 92.8786 106.839 92.8286 106.489 93.1223C106.139 93.4098 106.089 93.9285 106.382 94.2784C106.67 94.6283 107.189 94.6783 107.538 94.3846C107.882 94.0909 107.932 93.5785 107.645 93.2286Z" fill="#EBAB7E"/>
<path d="M82.8861 122.58C82.0987 122.536 50.9978 123.499 47.9921 126.517C44.9801 129.529 54.0098 166.235 57.5217 168.716C61.0336 171.197 81.8488 170.84 81.8488 170.84L82.8861 122.58Z" fill="#908DCE"/>
<path d="M89.804 127.685C89.1479 125.286 87.0795 123.367 84.3862 122.805C82.674 122.449 80.6743 122.342 79.0809 123.149C75.569 124.923 77.8123 170.859 77.8123 170.859L89.3604 170.84C89.3666 170.84 93.0847 139.714 89.804 127.685Z" fill="#B6ACE9"/>
<path d="M86.9674 170.572C87.7547 164.566 88.3046 158.517 88.6546 152.475C89.0983 144.932 90.2606 135.328 87.3048 128.116C85.93 124.767 82.8743 123.567 81.0746 127.26C78.0189 133.534 79.0937 142.789 79.3187 149.482C79.5624 156.58 80.2185 163.635 80.8372 170.709C80.8809 171.184 81.6183 171.184 81.5808 170.709C80.556 158.892 79.1999 146.888 80.256 135.028C80.4622 132.703 80.556 128.36 82.3494 126.517C85.1177 123.667 86.7799 128.504 87.2798 130.685C88.992 138.127 88.3109 146.357 87.8235 153.906C87.461 159.474 86.9486 165.041 86.2237 170.572C86.1613 171.047 86.9049 171.04 86.9674 170.572Z" fill="#A29CDB"/>
<path d="M169.86 73.1509C172.215 78.3375 169.928 84.4552 164.736 86.8173C159.549 89.1731 153.431 86.886 151.069 81.6932C148.713 76.5065 151 70.3888 156.193 68.0267C161.38 65.6709 167.498 67.9642 169.86 73.1509Z" fill="#94B8ED"/>
<path d="M170.878 60.9029C173.178 65.9583 170.941 71.9136 165.892 74.2132C160.836 76.5128 154.881 74.2757 152.581 69.2265C150.282 64.1711 152.519 58.2159 157.568 55.9163C162.623 53.6104 168.579 55.8475 170.878 60.9029Z" fill="#94B8ED"/>
<path d="M157.674 65.4959C160.299 71.2699 157.749 78.0812 151.969 80.712C146.195 83.3366 139.384 80.787 136.753 75.0068C134.128 69.2328 136.678 62.4214 142.452 59.7906C148.238 57.1661 155.05 59.7156 157.674 65.4959Z" fill="#94B8ED"/>
<path d="M156.224 77.2376C158.143 81.4619 156.28 86.436 152.056 88.3607C147.832 90.2791 142.858 88.417 140.933 84.1927C139.015 79.9684 140.877 74.9942 145.101 73.0696C149.325 71.1449 154.299 73.0133 156.224 77.2376Z" fill="#94B8ED"/>
<path d="M143.857 59.1533C145.17 62.0403 143.895 65.4459 141.008 66.7582C138.121 68.0705 134.715 66.7957 133.403 63.9087C132.091 61.0217 133.366 57.616 136.253 56.3038C139.14 54.9915 142.545 56.2663 143.857 59.1533Z" fill="#94B8ED"/>
<path d="M178.052 81.6868C178.864 83.474 178.077 85.5799 176.289 86.3985C174.502 87.2171 172.396 86.4235 171.578 84.6363C170.765 82.8491 171.553 80.7432 173.34 79.9246C175.133 79.106 177.239 79.8996 178.052 81.6868Z" fill="#94B8ED"/>
<path d="M182.938 84.2427C183.407 85.2737 182.951 86.4923 181.92 86.9609C180.889 87.4296 179.67 86.9734 179.201 85.9424C178.733 84.9113 179.189 83.6928 180.22 83.2241C181.251 82.7492 182.47 83.2053 182.938 84.2427Z" fill="#94B8ED"/>
<path d="M153.301 78.281C145.552 76.0688 145.158 71.5071 145.146 71.2947L145.614 71.2634C145.621 71.3196 146.121 76.7937 156.4 78.4809C159.887 79.0558 162.349 78.4684 163.161 76.8749C163.743 75.7314 163.343 74.2316 162.137 73.0568C162.024 72.9506 161.899 72.8381 161.762 72.7257C160.637 73.6755 158.681 74.2067 156.45 74.1254C152.957 73.9942 147.577 72.007 146.502 69.9636C146.246 69.4762 146.252 69.0013 146.514 68.5889C146.745 68.2202 147.239 67.989 147.97 67.9077C148.533 67.8452 149.226 67.8577 150.001 67.9452C150.182 67.6953 150.476 67.4328 150.957 67.1891C151.907 66.7017 154.5 66.583 157.012 66.9891C156.662 66.533 156.1 66.1143 155.331 65.7518C152.301 64.3208 147.608 63.9272 145.002 65.7331C143.565 66.7267 142.927 68.2514 143.09 70.2698L142.621 70.3073C142.446 68.1452 143.177 66.4267 144.733 65.3457C147.583 63.371 152.426 63.8584 155.531 65.3269C156.731 65.8956 157.344 66.533 157.637 67.1016C159.731 67.5203 161.655 68.3139 162.399 69.5824C162.861 70.3698 162.868 71.2134 162.418 71.957C162.324 72.1133 162.218 72.257 162.093 72.3945C162.224 72.5007 162.349 72.6132 162.455 72.7194C163.805 74.0442 164.242 75.7564 163.568 77.0874C162.661 78.8746 160.018 79.5495 156.313 78.9433C155.206 78.7621 154.207 78.5372 153.301 78.281ZM149.789 68.3952C149.114 68.3264 148.514 68.3139 148.02 68.3701C147.445 68.4389 147.058 68.6014 146.908 68.8388C146.739 69.1075 146.739 69.4012 146.914 69.7387C147.82 71.4634 152.819 73.513 156.463 73.6505C158.531 73.7317 160.331 73.2693 161.368 72.432C160.249 71.6446 158.543 70.8322 156.687 70.1448C156.369 70.3636 155.994 70.5385 155.588 70.6385C153.051 71.2822 150.301 70.2948 149.832 69.045C149.776 68.8826 149.732 68.6514 149.789 68.3952ZM150.264 68.4514C150.22 68.5826 150.22 68.7263 150.282 68.8826C150.639 69.8262 153.032 70.8072 155.481 70.1886C155.713 70.1324 155.925 70.0511 156.125 69.9449C154.125 69.2325 151.995 68.6826 150.264 68.4514ZM157.125 69.8012C158.956 70.501 160.618 71.3134 161.724 72.1133C161.837 71.9883 161.937 71.8571 162.018 71.7196C162.38 71.1197 162.368 70.4635 161.993 69.8262C161.368 68.7576 159.699 68.0515 157.837 67.6515C157.894 67.9015 157.9 68.1327 157.881 68.3139C157.831 68.8513 157.556 69.3762 157.125 69.8012ZM157.325 67.539C154.8 67.0766 152.082 67.1391 151.176 67.6078C150.963 67.7203 150.739 67.8577 150.564 68.0202C152.394 68.2827 154.588 68.8763 156.631 69.6199C157.075 69.2512 157.369 68.7701 157.419 68.2639C157.444 68.014 157.406 67.7703 157.325 67.539Z" fill="white"/>
<path d="M141.621 69.3202L142.683 71.5885L143.708 69.2952L141.621 69.3202Z" fill="white"/>
<path d="M146.608 72.0196L145.314 69.8762L144.533 72.2633L146.608 72.0196Z" fill="white"/>
</g>
<defs>
<filter id="filter0_d_168_1737" x="4.10567" y="10.7516" width="223.713" height="193.248" filterUnits="userSpaceOnUse" color-interpolation-filters="sRGB">
<feFlood flood-opacity="0" result="BackgroundImageFix"/>
<feColorMatrix in="SourceAlpha" type="matrix" values="0 0 0 0 0 0 0 0 0 0 0 0 0 0 0 0 0 0 127 0" result="hardAlpha"/>
<feOffset dy="2"/>
<feGaussianBlur stdDeviation="2"/>
<feComposite in2="hardAlpha" operator="out"/>
<feColorMatrix type="matrix" values="0 0 0 0 0 0 0 0 0 0 0 0 0 0 0 0 0 0 0.25 0"/>
<feBlend mode="normal" in2="BackgroundImageFix" result="effect1_dropShadow_168_1737"/>
<feBlend mode="normal" in="SourceGraphic" in2="effect1_dropShadow_168_1737" result="shape"/>
</filter>
</defs>
</svg>
