<svg width="296" height="35" viewBox="0 0 296 35" fill="none" xmlns="http://www.w3.org/2000/svg">
<g filter="url(#filter0_d_168_1725)">
<path d="M153.451 2.00275C162.295 2.02317 171.14 2.19672 179.969 2.99557C183.298 3.29673 186.555 3.96031 189.891 4.22575C196.554 4.75916 203.101 5.75453 209.788 6.21393C215.175 6.58401 220.583 6.80094 225.952 7.27056C230.986 7.70954 236.561 7.61 241.556 6.88262C245.253 6.3441 248.969 6.04038 252.606 5.17773C256.674 4.21043 261.092 3.51878 265.33 3.5443C271.373 3.58258 277.258 3.58514 283.043 5.29258C285.072 5.89235 287.557 6.87751 289.101 8.13576C292.631 11.0147 293.108 18.1992 289.584 21.1853C283.647 26.2107 270.981 28.1835 262.659 28.278C253.542 28.38 244.685 27.8288 235.555 27.5046C227.073 27.2035 218.608 26.7747 210.111 26.79C192.753 26.8206 175.396 26.79 158.069 25.8457C141.79 24.9601 125.472 25.2638 109.16 25.2638C92.4318 25.2638 75.8159 25.371 59.2091 27.1805C51.9721 27.9691 44.6014 28.2448 37.328 28.7961C30.8141 29.2912 24.5554 28.7859 18.0688 28.329C12.6213 27.9462 7.21024 26.8079 2.26102 24.8835C-1.65524 23.3598 -8.64005 18.628 -9.84015 14.9936C-13.2065 4.80255 37.6227 5.04756 45.4278 5.07053C54.1596 5.09606 62.9583 5.33086 71.6809 5.05777C75.3511 4.94292 78.9665 4.36101 82.5486 3.7204C86.1154 3.08235 89.7096 3.24569 93.3281 2.97771C108.416 1.86238 123.537 2.02572 138.67 2.02572C143.595 2.02572 148.523 1.98999 153.451 2.00275Z" fill="#F1F2F2"/>
</g>
<defs>
<filter id="filter0_d_168_1725" x="-14" y="0" width="310" height="35" filterUnits="userSpaceOnUse" color-interpolation-filters="sRGB">
<feFlood flood-opacity="0" result="BackgroundImageFix"/>
<feColorMatrix in="SourceAlpha" type="matrix" values="0 0 0 0 0 0 0 0 0 0 0 0 0 0 0 0 0 0 127 0" result="hardAlpha"/>
<feOffset dy="2"/>
<feGaussianBlur stdDeviation="2"/>
<feComposite in2="hardAlpha" operator="out"/>
<feColorMatrix type="matrix" values="0 0 0 0 0 0 0 0 0 0 0 0 0 0 0 0 0 0 0.25 0"/>
<feBlend mode="normal" in2="BackgroundImageFix" result="effect1_dropShadow_168_1725"/>
<feBlend mode="normal" in="SourceGraphic" in2="effect1_dropShadow_168_1725" result="shape"/>
</filter>
</defs>
</svg>
