<svg width="259" height="172" viewBox="0 0 259 172" fill="none" xmlns="http://www.w3.org/2000/svg">
<g filter="url(#filter0_d_0_8)">
<path d="M185.39 34.436L183.695 33.291L181.757 34.156L180.791 35.9645L181.475 37.3418L183.209 38.1089L182.609 38.344L182.779 38.8367L185.468 39.7241C186.012 39.0131 188.034 38.288 188.327 37.9073L186.45 36.6196L185.39 34.436Z" fill="#EAC1A4"/>
<path d="M221.194 100.83L239.975 93.9046L236.103 126.896L238.348 155.355L238.406 155.546L238.362 155.551L238.367 155.613L234.662 155.968V155.963L234.523 155.98L226.253 130.622L221.872 103.61L221.194 100.83Z" fill="#1A3151"/>
<path d="M234.855 157.264L238.697 157.166L239.68 160.417L239.582 160.447L239.607 160.45L233.256 164.224L230.235 164.56L229.849 161.1L230.667 160.501L234.855 157.264Z" fill="#162A42"/>
<path d="M208.402 101.399L214.039 157.88L217.755 158.051L221.491 127.551L227.965 97.1771L208.402 101.399Z" fill="#1A3151"/>
<path d="M214.047 159.193L209.122 161.993L209.585 164.322L218.383 162.992L217.866 159.636L214.047 159.193Z" fill="#162A42"/>
<path d="M199.595 115.584C198.406 114.755 198.38 113.316 198.383 111.871C198.386 109.162 198.872 106.393 199.492 103.759C200.67 98.8204 202.007 92.8688 202.596 86.4693C204.115 69.9274 209.325 58.8276 209.325 58.8276L211.006 54.3316C211.341 53.7466 211.687 53.1699 212.047 52.5988C214.147 49.2954 217.793 43.6798 221.691 42.7615C221.772 42.7419 221.855 42.7223 221.936 42.7055C226.035 41.8041 231.29 42.2212 234.995 44.22C235.698 44.598 236.324 45.1047 236.943 45.6058C238.755 47.0699 240.232 47.8649 241.014 50.0961C241.692 52.0333 241.849 54.1497 242.223 56.1597C242.982 60.2413 243.435 64.3705 244.043 68.4772C245.18 76.1757 246.146 83.8994 247.363 91.5867C247.988 95.5423 248.619 99.5063 248.915 103.504C249.178 107.037 252.358 110.626 254.145 113.795C254.767 114.898 245.836 117.753 245.034 117.941C241.33 118.806 237.39 118.585 233.571 118.601C225.203 118.641 216.833 118.38 208.482 117.826C205.707 117.641 202.286 117.109 199.824 115.726C199.743 115.681 199.668 115.634 199.595 115.584Z" fill="#FDFBFC"/>
<path d="M226.538 42.2576C226.538 42.2576 231.25 40.981 231.904 51.6469C232.554 62.3128 233.64 89.3023 235.159 96.7012C236.678 104.103 238.959 118.618 238.959 118.618L224.525 119.122L208.027 117.815C208.027 117.815 213.672 107.367 214.54 99.9654C215.409 92.5636 213.89 64.7035 217.581 54.256C221.266 43.8085 222.04 42.4451 226.538 42.2576Z" fill="#EE7BB7"/>
<path d="M216.673 54.7235L206.153 60.4568L199.813 58.2816L183.589 40.3959L187.899 36.4879L205.117 49.984L218.673 44.0548L216.673 54.7235Z" fill="#FDFBFC"/>
<path d="M219.962 33.806C219.25 35.9532 220.28 38.2431 221.188 40.1999C221.992 41.9356 222.271 43.0778 220.23 43.5453C219.08 43.8084 217.042 44.3011 216.034 43.4193C215.271 42.7502 215.699 40.687 216.07 39.8668C216.355 39.2397 217.103 38.9234 217.371 38.2879C217.48 38.0276 217.497 37.7364 217.499 37.4537C217.516 36.2947 217.357 35.1357 217.028 34.0244C216.804 33.2713 216.503 32.5295 216.436 31.7456C216.338 30.609 217.139 29.2849 217.561 28.2435C218.345 26.3007 221.07 23.6972 223.351 25.2201C223.871 25.5672 224.175 26.1551 224.426 26.7262C224.577 27.0677 224.722 27.4261 224.725 27.7984C224.742 29.2905 223.385 29.5397 222.447 30.2507C221.294 31.1297 220.417 32.4371 219.962 33.806Z" fill="#1A3151"/>
<path d="M224.303 42.1847C222.324 41.7172 220.774 40.0515 220.032 38.1507C219.289 36.2527 219.25 34.1475 219.454 32.1179C220.138 25.3657 228.514 25.7996 231.35 30.9729C233.824 35.4885 230.061 43.5453 224.303 42.1847Z" fill="#EAC1A4"/>
<path d="M224.303 41.4598C224.337 42.2296 224.37 42.9967 224.404 43.7665C224.409 43.8785 224.418 44.0017 224.496 44.0829C224.585 44.1752 224.731 44.1753 224.859 44.1725C225.484 44.1501 226.11 44.1305 226.735 44.1081C227.045 44.0969 227.366 44.0829 227.64 43.9373C228.237 43.6154 228.36 42.8035 228.265 42.1289C228.17 41.4542 227.93 40.7767 228.073 40.1105C226.783 40.7487 225.557 39.307 224.264 39.9453L224.303 41.4598Z" fill="#EAC1A4"/>
<path d="M227.007 20.4163C229.207 21.1665 230.617 23.3949 232.764 24.2879C233.995 24.7974 235.453 24.8646 236.455 25.7408C238.705 27.7088 236.896 31.8352 238.747 34.1868C239.132 34.6767 239.649 35.0462 240.037 35.5333C240.869 36.5859 240.978 38.0192 241.053 39.3601C241.07 39.6625 241.073 39.99 241.02 40.2924C240.729 43.3885 236.248 43.1898 234.467 42.9938C232.513 42.7755 233.163 41.6865 233.163 41.6865L233.233 41.5997C233.42 40.3427 232.906 39.0018 231.921 38.2012C231.555 37.9044 231.122 37.6665 230.865 37.2718C230.287 36.3871 230.84 35.2114 230.754 34.156C230.41 29.9064 223.296 30.8162 221.289 27.79C218.829 24.078 222.852 18.9998 227.007 20.4163Z" fill="#1A3151"/>
<path d="M59.11 44.1837L61.5837 42.798L62.2258 40.3737L62.8065 40.2505L62.988 40.9616L64.0964 39.1027L65.7465 38.5176L67.6562 39.8558L68.3682 42.1625L66.841 43.9234L64.2221 44.8276L60.9192 46.874L59.11 44.1837Z" fill="#EAC1A4"/>
<path d="M58.8756 42.6075L62.5834 47.0111L48.8496 60.3728L45.1475 61.571L29.3756 48.9595L33.5942 40.3232L45.3569 50.348L58.8756 42.6075Z" fill="#FDFBFC"/>
<path d="M5.04127 159.781L4.49126 162.315L8.85512 165.923L11.8649 163.927L9.95796 160.856L5.5913 157.251L5.04127 159.781Z" fill="#1A3151"/>
<path d="M20.3051 81.8895L15.4359 93.1489L14.9752 124.833L4.96317 158.911L9.6174 160.979L30.0547 121.412L32.3804 108.879L33.3046 82.483L20.3051 81.8895Z" fill="#252A30"/>
<path d="M43.8865 84.4146L44.269 117.616L38.029 160.425H33.2296L30.2003 120.925L23.6335 81.4248L43.8865 84.4146Z" fill="#252A30"/>
<path d="M33.2581 159.854V162.455L38.4484 165.055L41.0421 162.455L38.4484 159.854H33.2581Z" fill="#1A3151"/>
<path d="M34.4352 39.4555L21.6898 38.9824C21.6898 38.9824 14.0649 45.6898 10.1254 63.122C6.11335 80.8705 10.8653 106.424 10.8653 106.424C10.8653 106.424 45.0587 101.855 50.6678 101.15L42.1132 66.1062L34.4352 39.4555Z" fill="#FDFBFC"/>
<path d="M29.8679 40.76C28.3798 40.6145 26.8917 40.4689 25.4036 40.3233C25.3868 39.128 25.4678 37.9298 25.6409 36.7484C24.4012 36.3117 22.9662 35.6595 22.7484 34.3577C22.6786 33.949 22.7512 33.5291 22.821 33.1204C23.1114 31.4295 23.3989 29.7358 23.6893 28.045C23.7898 27.4599 23.8959 26.858 24.2114 26.3569C24.767 25.4779 25.8475 25.0915 26.8694 24.9096C29.4799 24.4505 32.3277 25.016 34.3574 26.7292C34.8963 27.1855 35.3849 27.7342 35.625 28.4005C35.9936 29.4279 35.7199 30.5617 35.4463 31.6171C35.1922 32.5913 34.9382 33.5655 34.6841 34.5397C34.391 35.6595 33.9694 36.9332 32.8944 37.3559C32.3221 37.5799 31.6492 37.5155 31.1299 37.8458C30.2169 38.4253 30.3426 39.7858 29.8679 40.76Z" fill="#EAC1A4"/>
<path d="M44.4111 23.8486C44.439 22.6896 44.277 21.5139 44.0453 20.4585C43.6488 18.6416 41.5102 17.8242 39.6591 17.6954C35.661 17.4183 31.8025 15.5986 27.8993 17.004C25.6685 17.8046 22.6699 17.9978 20.6513 19.1287C19.8081 19.6018 19.1353 20.3381 18.6104 21.1527C16.7956 23.9718 16.79 27.8546 18.5992 30.6792C19.004 31.3119 19.4898 31.8914 20.0008 32.4429C21.0561 33.5879 22.3181 34.9988 23.7672 35.4215C23.8007 34.1226 22.6141 30.0242 23.608 28.9576C25.1855 27.2639 28.7592 27.849 30.7192 28.2633C32.8578 28.714 34.7648 30.2285 36.8867 30.5505C38.4111 30.7828 40.3571 30.0298 41.6526 29.2375C43.6796 27.9974 44.358 25.9454 44.4111 23.8486Z" fill="#1A3151"/>
<path d="M30.9204 41.0343L44.3191 94.7725L45.4164 101.821L28.7231 104.025C28.7231 104.025 29.382 78.2921 29.1615 74.86C28.9409 71.4279 26.4672 64.0066 26.0875 56.0114C25.8669 51.3867 24.4039 43.0779 25.4286 40.3737L30.9204 41.0343Z" fill="#3E6897"/>
<path d="M140.556 100.615L140.559 115.166C140.491 114.875 140.447 114.57 140.447 114.251V91.2004H140.556V100.615Z" fill="#D9A3A3"/>
<path d="M140.55 81.0468L140.552 66.792C140.622 67.0887 140.667 67.3939 140.667 67.7186V90.5341H140.558V81.0468H140.55Z" fill="#D9A3A3"/>
<path d="M144.822 132.599C145.347 132.655 145.877 132.817 146.382 133.105C147.938 133.996 149.484 134.838 151.059 135.378C149.507 134.861 147.971 134.026 146.36 133.147C145.844 132.865 145.324 132.688 144.822 132.599Z" fill="#D9A3A3"/>
<path d="M130.052 66.5373C131.627 65.9998 133.174 65.1572 134.729 64.267C135.234 63.9786 135.762 63.8162 136.287 63.7603C135.782 63.8498 135.265 64.0262 134.749 64.3089C133.138 65.1852 131.602 66.0222 130.052 66.5373Z" fill="#D9A3A3"/>
<path d="M140.559 135.63L140.561 165.744C140.522 165.744 140.483 165.744 140.444 165.744V136.557C140.447 136.235 140.489 135.927 140.559 135.63Z" fill="#D9A3A3"/>
<path d="M182.737 85.1145C182.304 85.8115 182.123 86.559 182.137 87.284C182.053 86.4582 182.226 85.5876 182.723 84.7897C184.326 82.2142 185.348 79.3532 185.336 76.6545C185.437 79.4484 184.401 82.4354 182.737 85.1145Z" fill="#D9A3A3"/>
<path d="M164.447 77.3795C164.575 79.9718 165.874 82.4353 167.289 84.924C167.658 85.5679 167.817 86.251 167.814 86.9172C167.769 86.3601 167.61 85.7946 167.303 85.2572C165.823 82.6621 164.475 80.0922 164.447 77.3795Z" fill="#D9A3A3"/>
<path d="M140.552 46.3281L140.555 31.7766V15.3466C140.591 15.3494 140.628 15.3466 140.664 15.3494V45.4127C140.664 45.7318 140.619 46.0369 140.552 46.3281Z" fill="#D9A3A3"/>
<path d="M144.822 132.599C145.327 132.688 145.844 132.865 146.36 133.147C147.971 134.023 149.507 134.861 151.059 135.378C153.396 136.176 155.792 136.299 158.371 134.891C163.626 132.027 165.572 124.939 162.54 119.774C158.801 113.406 152.009 114.192 146.511 117.627C144.138 119.111 141.145 117.722 140.556 115.166L140.553 100.615V91.2004V90.5369H140.662V91.0744H164.891C166.75 90.5789 167.956 88.7844 167.811 86.92C167.817 86.2565 167.655 85.5735 167.286 84.9268C165.871 82.4381 164.572 79.9746 164.444 77.3823C164.43 76.0442 164.737 74.6668 165.513 73.2363C168.367 67.9678 175.436 66.011 180.587 69.0484C183.851 70.9716 185.23 73.7066 185.336 76.66C185.348 79.3587 184.326 82.2197 182.723 84.7952C182.226 85.5931 182.053 86.4637 182.137 87.2895C182.173 89.028 183.362 90.6377 185.133 91.0772H199.743H206.201C206.271 91.1836 206.343 91.2871 206.41 91.3963C208.228 94.3749 207.854 96.5893 205.14 98.4649C203.401 99.6659 201.566 100.699 200.045 102.255C197.722 104.635 197.571 106.037 199.344 108.98C201.34 112.291 201.329 112.426 198.26 114.78C197.437 115.413 196.566 115.886 197.722 117.081C199.425 118.839 198.813 120.555 197.35 121.837C195.293 123.635 194.983 125.941 195.371 128.523C195.709 130.773 196.206 132.996 196.624 135.23C197.758 141.263 196.18 144.062 190.744 145.647C185.071 147.301 179.426 145.868 173.766 145.319C169.975 144.953 166.239 143.628 162.361 144.591C159.843 145.216 158.452 146.761 158.129 149.588C157.657 153.715 156.431 157.656 155.733 161.716C155.163 165.027 153.726 166.06 150.752 165.926C148.262 165.814 144.696 165.761 140.561 165.744L140.559 135.63C141.019 133.674 142.89 132.397 144.822 132.599Z" fill="#5E90C9"/>
<path d="M120.043 34.3352C118.876 36.684 115.643 37.3362 113.68 35.3402C109.132 30.7184 102.702 28.3724 97.593 33.697C93.4497 38.0137 93.701 45.3623 98.1486 49.3711C100.332 51.3391 102.694 51.7786 105.151 51.5462C106.779 51.4035 108.468 50.9472 110.238 50.4712C110.805 50.3173 111.349 50.2669 111.86 50.2977C113.787 50.5496 115.311 52.2293 115.305 54.2393L112.002 68.1049L112.008 68.1078L109.811 77.3347L109.733 77.6679L109.657 77.9814L109.551 77.9562L85.6964 72.2453C83.3623 72.5085 81.6229 74.8488 82.3405 77.3151C83.5913 81.5983 84.5796 85.7555 81.2963 89.4255C77.3009 93.8878 69.972 94.1426 65.6639 89.991C60.3508 84.8708 62.6877 78.4237 67.2945 73.8606C69.1735 71.999 68.6932 69.0008 66.6579 67.6906L52.0754 64.1997C51.3104 58.8052 51.3774 53.4946 52.2345 48.5284C54.7557 35.7294 59.7087 25.8305 67.5374 18.6415C83.594 3.89407 102.122 -0.139932 121.794 2.99265C123.642 3.28659 125.451 3.69531 127.227 4.20201L123.422 20.1812L120.043 34.3352Z" fill="#93C5FD"/>
<path d="M95.602 165.934C92.0506 165.741 93.776 163.518 95.4121 160.07C108.694 132.078 92.8742 109.517 90.2833 106.359C86.4024 101.628 83.4262 96.4745 81.3517 91.2004H96.3447C98.6285 92.001 99.79 94.8033 98.394 97.0512C94.971 102.563 94.192 109.377 100.544 113.12C105.695 116.155 112.764 114.201 115.618 108.932C117.963 104.599 116.039 100.786 113.831 96.9112C112.56 94.6801 113.711 91.9982 115.919 91.2004H140.444V114.251C140.444 114.57 140.489 114.875 140.556 115.166V115.264C141.175 117.784 144.143 119.139 146.497 117.666C151.994 114.231 158.79 113.45 162.523 119.822C165.552 124.987 163.31 131.955 158.056 134.816C155.515 136.199 153.27 136.112 151.056 135.376C149.482 134.838 147.935 133.996 146.38 133.102C145.874 132.814 145.344 132.652 144.819 132.596C142.8 132.237 141.011 133.36 140.556 135.56V135.628C140.486 135.924 140.441 136.232 140.441 136.554V165.738C124.44 165.682 99.9659 166.172 95.602 165.934Z" fill="white"/>
<path d="M140.559 135.63V135.563C141.011 133.363 142.8 132.243 144.822 132.599C142.89 132.397 141.019 133.674 140.559 135.63Z" fill="#1A3151"/>
<path d="M146.514 117.627C152.008 114.192 158.804 113.406 162.542 119.774C165.574 124.939 163.628 132.027 158.374 134.891C155.794 136.297 153.396 136.176 151.062 135.378C153.276 136.117 155.521 136.201 158.061 134.819C163.316 131.958 165.558 124.99 162.528 119.825C158.793 113.456 152 114.237 146.502 117.669C144.149 119.139 141.181 117.784 140.561 115.267V115.169C141.147 117.722 144.14 119.111 146.514 117.627Z" fill="#1A3151"/>
<path d="M118.569 50.936C122.308 44.5672 129.1 45.3511 134.598 48.7888C136.971 50.2725 139.964 48.884 140.553 46.3281C140.62 46.0369 140.665 45.7318 140.665 45.4127V15.3494C148.854 15.719 156.819 18.1937 164.464 21.9505C166.519 22.9611 168.54 24.0641 170.545 25.2035C184.599 33.1847 192.42 45.4379 191.758 63.3935C191.387 73.4687 195.859 80.8033 202.471 86.9676C203.666 88.0818 204.852 89.1904 205.832 90.5285C205.961 90.7049 206.087 90.8869 206.207 91.0716H199.749H185.138C183.365 90.6321 182.179 89.0224 182.142 87.284C182.129 86.5589 182.31 85.8087 182.743 85.1144C184.407 82.4353 185.443 79.4483 185.342 76.6545C185.236 73.7039 183.857 70.9688 180.593 69.0428C175.442 66.0082 168.372 67.9622 165.519 73.2308C164.743 74.6613 164.439 76.0386 164.45 77.3767C164.478 80.0894 165.826 82.6593 167.306 85.2516C167.613 85.7891 167.772 86.3546 167.817 86.9117C167.965 88.7761 166.759 90.5733 164.896 91.066H140.668V90.5285V67.7131C140.668 67.3883 140.623 67.0804 140.553 66.7864C140.092 64.8268 138.222 63.5503 136.29 63.7546C135.765 63.8106 135.237 63.973 134.732 64.2613C133.177 65.1516 131.63 65.9942 130.055 66.5317C127.718 67.3295 125.323 67.4527 122.743 66.0446C117.483 63.1863 115.54 56.0982 118.569 50.936Z" fill="#C4DAF9"/>
<path d="M19.6822 49.2115L35.9902 64.6505L60.1827 57.4195L61.9137 62.8756L35.3229 75.0728H28.3262L13.5426 62.4613L19.6822 49.2115Z" fill="#FDFBFC"/>
<path d="M61.7578 62.3858L65.9681 62.4614L68.5396 58.8249L62.0035 55.18L60.1831 57.4195L61.7578 62.3858Z" fill="#EAC1A4"/>
<path d="M197.091 71.621L197.169 74.0817L192.839 75.6634L190.34 73.7654V70.9016L192.75 70.7672L192.825 70.1373L193.615 69.6278L197.091 71.621Z" fill="#AA6755"/>
<path d="M233.244 53.2119L215.381 68.4632L196.407 68.8328C196.407 68.8328 197.178 77.0071 197.169 76.3269C197.161 75.6466 218.182 78.3649 218.182 78.3649L236.829 65.1487L233.244 53.2119Z" fill="#FDFBFC"/>
</g>
<defs>
<filter id="filter0_d_0_8" x="0.491272" y="0" width="257.685" height="172" filterUnits="userSpaceOnUse" color-interpolation-filters="sRGB">
<feFlood flood-opacity="0" result="BackgroundImageFix"/>
<feColorMatrix in="SourceAlpha" type="matrix" values="0 0 0 0 0 0 0 0 0 0 0 0 0 0 0 0 0 0 127 0" result="hardAlpha"/>
<feOffset dy="2"/>
<feGaussianBlur stdDeviation="2"/>
<feComposite in2="hardAlpha" operator="out"/>
<feColorMatrix type="matrix" values="0 0 0 0 0 0 0 0 0 0 0 0 0 0 0 0 0 0 0.25 0"/>
<feBlend mode="normal" in2="BackgroundImageFix" result="effect1_dropShadow_0_8"/>
<feBlend mode="normal" in="SourceGraphic" in2="effect1_dropShadow_0_8" result="shape"/>
</filter>
</defs>
</svg>
