<svg width="239" height="155" viewBox="0 0 239 155" fill="none" xmlns="http://www.w3.org/2000/svg">
<g filter="url(#filter0_d_0_94)">
<path d="M22.7311 8.85075C22.669 8.51116 21.8702 4.8675 16.234 5.48833C16.234 5.48833 19.0397 5.41658 19.6921 6.55971C19.6921 6.55971 17.5962 5.33432 16.1374 6.03837C14.6776 6.74242 14.1687 9.55193 14.2873 10.4349C14.4059 11.3178 15.6686 14.0355 16.674 14.1359C17.0547 14.1742 17.4747 14.0881 17.8497 13.9666C17.6497 14.4076 17.4613 14.8888 17.292 15.4206C15.7203 20.3394 18.68 24.4939 20.5032 23.7229C21.6722 23.2283 22.3169 25.2515 22.3169 25.2515L32.7352 13.981C32.7352 13.9819 27.0961 5.63852 22.7311 8.85075Z" fill="#1A3151"/>
<path d="M36.3034 144.596L33.7694 145.539C33.7694 145.539 22.7638 130.275 21.4083 116.845C21.1663 114.448 21.2467 112.124 21.7699 109.979C21.7699 109.979 21.6628 109.365 21.4743 108.278C21.3873 107.771 21.2801 107.161 21.1577 106.461C20.7999 104.411 20.3073 101.606 19.7448 98.4117C18.4496 91.0613 16.7717 81.6656 15.4688 74.7581L16.1518 74.539L23.5396 72.1561L25.0663 67.3072L30.5667 65.8589C30.5667 65.8589 31.796 68.2628 32.8941 79.6175C33.0969 81.107 33.2806 82.7494 33.4193 84.5306C33.8478 89.9669 33.8785 96.7109 32.896 104.421C32.6435 106.394 32.325 108.432 31.9299 110.526C31.64 112.061 31.597 114.152 31.7185 116.554C32.2743 127.534 36.3034 144.596 36.3034 144.596Z" fill="#2B478B"/>
<path d="M33.4203 84.5325L21.4754 108.279C21.3883 107.772 21.2812 107.162 21.1587 106.462C20.801 104.412 20.3083 101.607 19.7458 98.4127C18.4506 91.0622 16.7728 81.6666 15.4699 74.759L16.1529 74.54L23.5406 72.1571L25.0674 67.3081L30.5678 65.8599C30.5678 65.8599 31.797 68.2638 32.8952 79.6185C33.097 81.1089 33.2816 82.7514 33.4203 84.5325Z" fill="#233862"/>
<path d="M28.1655 68.9085L27.8891 66.5371C23.2563 67.7673 10.879 63.0991 10.879 63.0991C10.879 63.0991 6.39159 67.0441 6.97989 76.5C7.26783 81.1156 7.79299 100.729 8.34112 106.532C8.53913 108.636 8.71323 110.133 8.78402 110.731C8.78498 110.734 8.78498 110.735 8.78498 110.735C8.80698 110.919 8.74289 111.091 8.6501 111.251C7.84274 112.622 7.17312 114.049 6.625 115.51C1.23938 129.861 7.45436 147.534 7.45436 147.534L9.06718 146.884C9.06718 146.884 12.6037 127.216 15.4773 118.527C15.9652 117.053 16.4329 115.895 16.8615 115.203C18.1108 113.186 19.2702 109.892 20.3224 105.973C22.3112 98.5638 23.9125 88.9252 24.9782 81.4858C25.1264 81.4915 28.1655 68.9085 28.1655 68.9085Z" fill="#2B478B"/>
<path d="M49.1265 59.4239C51.0033 59.9041 54.0797 57.6809 57.5148 56.974C59.8039 56.5225 59.7092 56.5388 60.5319 56.3427C60.794 56.2815 60.9404 56.2355 60.9404 56.2355L62.6699 53.4031C62.6699 53.4031 60.6103 53.2404 58.0515 52.9516C54.4872 52.5326 51.7188 52.942 50.5614 52.258C47.8772 50.6634 41.4182 42.9217 37.6397 38.7155C37.4417 38.486 37.2456 38.2659 37.0514 38.0498C36.9089 37.8919 36.7663 37.737 36.6257 37.5849C36.597 37.5552 36.5607 37.5055 36.5138 37.4796C36.3397 37.3132 36.1924 37.1573 36.0498 37.0214C36.0441 37.0042 36.0192 36.9918 35.9953 36.9774C35.3238 36.303 34.1462 35.4842 34.1462 35.4842C33.4862 35.1082 32.9419 35.0346 32.5592 35.356C32.5592 35.356 32.0656 35.8381 31.5806 36.7507C31.4773 36.9411 31.3759 37.1506 31.2803 37.3801C31.1999 37.5055 31.1607 37.6375 31.1215 37.7714C30.801 38.6132 30.5676 39.6702 30.6097 40.9023C30.6394 41.8359 30.7608 42.8882 31.2315 44.0017C33.0452 48.2929 46.2729 58.7055 49.1265 59.4239Z" fill="#EAC1A4"/>
<path d="M32.1872 40.1294C30.8451 41.0057 29.1729 41.7126 27.0866 42.1325C19.2674 43.708 16.4751 37.0588 15.4841 32.5197C16.5603 31.9429 17.5609 31.8377 18.1386 31.7851C18.7021 31.7344 19.2942 31.7076 19.783 31.6971C20.6746 31.0533 22.0511 28.3557 22.4586 24.118L22.8212 24.2261L28.8965 26.0742C28.8965 26.0742 28.5607 28.0123 28.3723 29.848C28.2249 31.2848 28.1704 32.6594 28.4335 33.0038C28.908 33.1205 29.193 33.197 29.193 33.197C29.193 33.197 29.193 33.1989 29.1959 33.2027C29.2743 33.3405 30.9685 36.3117 32.1872 40.1294Z" fill="#EAC1A4"/>
<path d="M34.9089 45.0138C34.8725 45.1802 34.8295 45.3428 34.7807 45.5112C33.408 50.1 32.2974 68.4455 32.2974 68.4455C33.0244 70.7384 19.6933 71.2081 12.3419 70.1492C9.66919 69.7646 7.78662 69.1782 7.65653 68.4034C6.34121 65.438 9.56015 59.9003 11.4188 57.085C11.6522 56.732 11.8531 56.3599 12.0176 55.9744C12.4376 55.0054 12.6404 53.9512 12.5983 52.8884C12.5418 51.4335 12.4184 50.0215 12.2663 48.6986C11.9813 46.2028 11.6015 44.0247 11.4025 42.4836V42.4826C11.789 42.0981 12.1659 41.7413 12.517 41.4017C13.0517 40.8784 13.5204 40.3944 13.8495 39.9247C14.2111 39.4129 14.4129 38.9126 14.368 38.3884C14.3335 37.9914 14.2628 37.5906 14.1633 37.1936C14.1174 37.0061 14.0647 36.8196 14.0093 36.6331C13.4123 34.6768 12.3132 32.9856 12.3132 32.9856C14.3039 31.8214 18.1379 31.786 18.1379 31.786C18.1379 31.786 18.1637 31.9965 18.2125 32.338C18.3991 33.7135 18.9233 37.2395 19.4609 37.8422C20.1324 38.5941 30.7343 40.7742 31.1036 39.5679C31.4671 38.3827 29.2774 33.3931 29.1952 33.2046C29.1923 33.2008 29.1923 33.1979 29.1923 33.1979C32.5882 34.0053 34.0623 34.9179 34.1293 34.9705C34.1293 34.9705 34.1264 34.9705 34.1254 34.9696C32.285 36.5824 35.877 40.6163 34.9089 45.0138Z" fill="#EE7BB7"/>
<path d="M28.8975 26.0752C28.8975 26.0752 28.5607 28.0123 28.3733 29.8489C24.9142 29.4041 23.398 26.0561 22.8221 24.2271L28.8975 26.0752Z" fill="#ED985F"/>
<path d="M29.8818 27.9319C29.8818 27.9319 21.6609 27.246 22.1679 22.133C22.6739 17.02 21.9536 13.4883 27.2244 13.7102C32.4943 13.9321 33.3198 15.984 33.5657 17.7317C33.8106 19.4794 32.0332 27.9787 29.8818 27.9319Z" fill="#EAC1A4"/>
<path d="M33.6048 14.8649C32.4904 13.2004 31.4975 13.4415 30.9139 13.85C26.6753 10.9343 22.1439 13.6998 22.1439 13.6998C21.2275 17.3128 19.6472 19.7407 19.6472 19.7407C19.6472 19.7407 21.0505 20.8139 24.588 20.2725C25.6689 20.107 26.6839 19.4527 27.5745 18.6243C25.9444 20.8235 23.8763 22.3187 23.8763 22.3187C28.1857 20.8273 30.4136 15.2638 30.6394 14.6745C31.0957 15.1748 31.9853 16.251 32.19 17.2392C32.4684 18.5822 32.3842 21.2798 33.1744 21.2674C33.1753 21.2683 35.2769 17.3616 33.6048 14.8649Z" fill="#21395B"/>
<path d="M63.5978 53.6021C63.2678 54.9308 62.2576 57.0468 61.4722 56.9253C59.6872 56.6488 57.8372 57.1137 56.9514 57.2218C56.607 57.2821 56.4061 57.306 56.4061 57.306L56.3162 54.4381C56.3162 54.4381 56.3526 54.442 56.4348 54.4286C57.0471 54.3367 60.1235 53.8125 61.3823 53.0434C63.1425 51.9673 64.0292 51.8592 63.5978 53.6021Z" fill="#EAC1A4"/>
<path d="M16.832 148.851H4.07014C4.07014 148.851 3.76403 146.906 4.43078 145.43C5.06978 144.014 6.07038 143.371 5.83027 141.657C6.64146 142.492 7.96251 143.427 9.80778 143.179C10.0335 143.546 11.2666 145.508 12.0223 146.05C12.8564 146.649 16.5747 146.435 16.832 148.851Z" fill="#233862"/>
<path d="M44.2337 148.851H31.4718C31.4718 148.851 30.9944 146.815 31.8324 145.43C32.5738 144.205 32.2897 143.506 31.7406 142.492C32.3184 142.729 33.0664 142.944 33.89 142.897C34.5262 142.861 35.1987 142.572 35.7879 142.229C36.337 142.856 38.6893 145.521 39.4239 146.049C40.2581 146.649 43.9773 146.435 44.2337 148.851Z" fill="#233862"/>
<path d="M27.9209 24.975C27.9209 24.975 28.0357 25.6523 29.7011 25.6532C29.7011 25.6532 31.0997 25.6552 31.1035 24.9195C31.1035 24.9195 29.7863 24.3131 27.9209 24.975Z" fill="white"/>
<path d="M14.0845 57.4706C13.5795 60.6684 11.2674 67.0843 12.3426 70.1492C9.66987 69.7647 7.78729 69.1783 7.6572 68.4034C6.34188 65.438 9.56081 59.9003 11.4195 57.0851C11.6529 56.7321 11.8538 56.36 12.0183 55.9744C12.4382 55.0054 12.641 53.9513 12.5989 52.8885C12.5425 51.4335 12.4191 50.0216 12.267 48.6986C12.268 48.6996 14.6212 54.0727 14.0845 57.4706Z" fill="#EE7BB7"/>
<path d="M32.1489 35.8975C32.2379 38.7395 34.2936 46.5415 34.7805 45.5112C35.3372 44.3365 37.4953 39.8721 38.5093 39.7076C38.4557 39.5019 35.5429 35.5962 34.1262 34.9686C34.1262 34.9686 32.9993 35.312 32.1489 35.8975Z" fill="#EE7BB7"/>
<path d="M37.1571 69.0042L36.4894 71.4578C36.4894 71.4578 35.6457 71.3057 34.3026 71.057C33.8999 70.9805 33.6703 70.924 33.6703 70.924C32.596 70.7136 31.3104 70.4276 29.9109 70.1224L29.8918 70.1215C27.4936 69.5485 24.8094 68.8607 22.5451 68.0954C20.9534 67.5415 19.572 66.9484 18.6317 66.3544C18.5351 66.297 18.4595 66.2396 18.3629 66.1621C16.1178 64.535 14.2505 59.7664 12.1747 54.6295C11.8868 53.9206 11.617 53.2108 11.3482 52.5211C10.3868 49.9517 9.12892 46.2287 8.66689 44.0438C8.37704 42.7409 7.871 42.7208 7.83178 41.7432C7.81265 41.3979 7.79352 41.0717 7.8117 40.7646C7.81265 40.5876 7.81648 40.4145 7.82317 40.2471C8.85151 39.4914 11.1932 38.1168 14.1893 38.5377C14.2429 38.6505 14.2955 38.7644 14.349 38.8801C15.4443 41.3529 16.597 44.5537 17.6742 47.7363C18.2711 49.4801 18.8469 51.2249 19.4238 52.8349C19.7509 53.8125 20.0781 54.7328 20.3861 55.5765C20.9821 57.1864 21.5197 58.4903 21.9999 59.3139C22.3069 59.8515 23.1899 60.5986 24.3607 61.4413C26.3945 62.9164 29.3685 64.6966 31.958 66.1506C33.0332 66.7638 34.0491 67.3186 34.8938 67.7778C36.256 68.5249 37.1571 69.0042 37.1571 69.0042Z" fill="#EAC1A4"/>
<path d="M18.1452 46.2401C11.7427 45.8623 8.77152 47.8749 8.77152 47.8749C4.111 36.2409 12.8246 32.7283 12.8246 32.7283C12.8246 32.7283 16.8136 43.2594 18.1452 46.2401Z" fill="#EE7BB7"/>
<path d="M37.3734 69.2385C37.3734 69.2385 39.2044 68.7755 39.8252 69.1409C40.447 69.5063 42.0627 69.9263 42.0942 70.1099C42.1287 70.307 40.4125 70.5662 39.4789 70.2534C38.5462 69.9406 37.3734 69.2385 37.3734 69.2385Z" fill="#EAC1A4"/>
<path d="M172.074 46.1416C172.074 46.1416 170.625 44.3824 169.846 44.1356C169.066 43.8888 167.557 42.7208 167.36 43.202C167.163 43.6831 168.374 44.4255 168.31 44.9755C168.246 45.5255 164.461 46.4085 164.484 46.9901C164.507 47.5717 165.374 48.9788 166.818 48.8172C168.261 48.6555 171.923 47.7869 172.675 48.1619C173.429 48.5378 172.074 46.1416 172.074 46.1416Z" fill="#EAC1A4"/>
<path d="M211.114 37.5839C208.977 40.4556 206.474 42.7228 203.903 44.5106C195.731 50.1957 186.865 51.0432 186.865 51.0432C184.741 50.3631 178.215 49.6533 174.358 49.0315H174.356C172.675 48.7617 171.502 48.5073 171.423 48.2815L171.52 44.922C171.52 44.922 185.674 44.1739 188.019 43.0863C191.715 39.9018 194.981 35.7674 197.108 32.537C198.906 29.8088 200.918 27.7932 204.234 26.6118C209.029 24.9024 217.75 28.6695 211.114 37.5839Z" fill="#AEC3FF"/>
<path d="M204.624 42.3975L203.903 44.5106C195.731 50.1957 186.865 51.0432 186.865 51.0432C185.159 51.0432 178.215 49.6533 174.358 49.0315C174.511 49.0439 184.858 49.8532 187.145 49.616C189.449 49.3778 200.174 40.0816 200.174 40.0816L204.624 42.3975Z" fill="#9DB0F4"/>
<path d="M195.383 148.851H211.027C212.148 148.091 210.724 140.66 210.724 140.66C210.724 140.66 206.455 139.04 205.718 142.334C204.978 145.625 200.279 146.673 197.793 147.075C196.091 147.351 195.554 148.286 195.383 148.851Z" fill="#233862"/>
<path d="M218.584 148.851H234.227C235.347 148.091 233.925 140.66 233.925 140.66C233.925 140.66 229.655 139.04 228.918 142.334C228.178 145.625 223.48 146.673 220.994 147.075C219.292 147.351 218.754 148.286 218.584 148.851Z" fill="#233862"/>
<path d="M199.593 73.0419C199.593 73.0419 200.296 81.8138 201.122 92.3593C202.245 106.683 205.275 142.199 205.275 142.199C205.275 142.199 207.261 143.893 211.66 142.966C211.66 142.966 215.404 130.714 216.524 116.729C216.542 116.501 216.559 116.269 216.576 116.039C217.618 101.803 219.237 71.827 219.237 71.827L199.593 73.0419Z" fill="#2B478B"/>
<path d="M199.353 70.0115C199.353 70.0115 200.296 81.8149 201.122 92.3594L216.524 116.73C216.542 116.502 216.559 116.27 216.576 116.04C217.618 101.804 219.237 71.828 219.237 71.828L199.353 70.0115Z" fill="#233862"/>
<path d="M203.842 70.0115C203.842 70.0115 215.013 97.8177 218.584 108.358C221.127 115.867 228.302 142.205 228.302 142.205C228.302 142.205 231.421 143.153 234.043 141.319C234.043 141.319 236.712 114.41 231.321 106.822C228.461 102.797 230.61 64.976 219.013 64.6517C207.416 64.3274 203.842 70.0115 203.842 70.0115Z" fill="#2B478B"/>
<path d="M208.831 29.0195C210.537 29.9178 212.201 29.9742 213.644 29.6671C214.964 29.3897 216.097 28.8072 216.904 28.2906C217.732 27.7607 218.219 27.2996 218.219 27.2996C218.219 27.2996 218.162 27.2164 218.064 27.0518C217.56 26.1899 216.032 23.0915 216.713 18.1144C216.721 18.0493 216.228 18.1421 215.483 18.3181C213.267 18.8433 208.811 20.107 208.613 20.1634C208.608 20.1634 208.605 20.1634 208.605 20.1634C208.605 20.1634 208.551 21.2099 208.367 23.0867C208.352 23.2522 208.336 23.4254 208.317 23.6043C208.295 23.8243 208.272 24.0577 208.245 24.2978C208.039 26.2492 208.831 29.0195 208.831 29.0195Z" fill="#EAC1A4"/>
<path d="M208.368 23.0877C211.677 23.8463 216.616 18.961 216.616 18.961C216.254 18.6922 215.876 18.4798 215.484 18.3191C213.268 18.8443 208.812 20.1079 208.614 20.1644C208.609 20.1644 208.606 20.1644 208.606 20.1644C208.606 20.1644 208.552 21.2109 208.368 23.0877Z" fill="#ED975D"/>
<path d="M207.244 19.8995C207.244 19.8995 208.605 20.3883 210.34 20.6207C212.877 20.9632 216.212 20.7613 217.261 17.6916C219.026 12.5251 221.28 9.42764 216.086 7.31835C213.305 6.18862 211.527 6.12931 210.319 6.55977C209.269 6.93189 208.651 7.67516 208.182 8.40982C207.173 9.99203 205.144 18.9955 207.244 19.8995Z" fill="#EAC1A4"/>
<path d="M204.092 8.81919C207.1 10.9811 211.26 8.85554 212.553 9.43141C213.845 10.0054 214.077 12.172 214.1 12.8598C214.123 13.5486 214.214 14.1302 215.969 13.7179C216.256 13.6509 216.463 13.6701 216.606 13.7562C217.334 14.1876 216.404 16.2806 216.123 16.734C216.123 16.734 215.719 18.233 216.615 18.9629C216.723 19.0499 218.483 19.819 222.724 13.3295C223.391 12.3108 224.027 10.0159 222.998 7.80616C221.969 5.59644 217.671 3.46132 214.028 2.32872C212.662 1.90399 211.65 1.92025 210.857 2.2101C209.536 2.69318 208.831 3.94153 208.133 5.19562C206.959 7.303 204.092 8.81919 204.092 8.81919Z" fill="#1A3151"/>
<path d="M223.443 71.9552C223.443 71.9552 221.987 72.2699 220.148 72.5818C218.348 72.8841 216.177 73.1806 214.644 73.1701C206.801 73.1079 200.235 70.7996 200.235 70.7996C198.761 70.7996 198.087 68.5163 197.846 65.3298C197.682 63.1718 197.717 60.5995 197.834 58.0406C197.873 57.2113 197.92 56.3819 197.971 55.5697C198.074 53.9588 198.195 52.412 198.305 51.0441C198.408 49.7604 198.502 48.6354 198.558 47.763C198.558 47.7611 198.348 41.658 198.43 36.2867C198.489 32.4317 200.652 28.9229 201.194 28.3509C202.764 26.6902 207.313 25.6399 208.224 25.4954C208.294 25.4859 208.33 25.4792 208.33 25.4792C212.07 27.5798 217.108 24.7416 217.108 24.7416C217.223 24.7608 217.334 24.7876 217.445 24.8115C217.815 24.7321 221.595 25.2926 222.475 25.7728C224.651 26.9581 225.914 40.1122 225.914 40.1122C226.277 49.0467 225.82 63.3564 226.527 68.8176C226.762 70.6169 225.02 71.5907 223.443 71.9552Z" fill="#AEC3FF"/>
<path d="M217.42 24.8173C217.42 24.8173 211.846 30.5664 207.861 29.3879C207.861 29.3879 207.33 28.6111 209.125 28.3624C210.92 28.1137 212.857 28.216 217.42 24.8173Z" fill="#9DB0F4"/>
<path d="M207.205 16.5647C207.205 16.5647 207.096 17.2334 208.652 17.7672C208.652 17.7672 209.957 18.2158 210.195 17.5299C210.195 17.529 209.159 16.5418 207.205 16.5647Z" fill="white"/>
<path d="M220.475 46.5654C220.475 46.5654 212.38 60.1041 207.788 62.4879C204.683 64.0988 200.335 64.9473 197.845 65.329C197.681 63.1709 197.716 60.5986 197.833 58.0398C201.123 57.6409 206.133 57.0057 206.133 57.0057L220.475 46.5654Z" fill="#9DB0F4"/>
<path d="M209.813 39.7631L205.499 55.3364C205.499 55.3364 200.422 55.6578 197.971 55.5679C198.075 53.957 198.077 53.9025 198.187 52.5345C198.187 52.5355 204.016 49.4973 209.813 39.7631Z" fill="#9DB0F4"/>
<path d="M175.841 41.5375C156.855 19.5206 128.492 38.6075 126.708 54.3119C126.708 75.3033 126.708 68.171 126.708 75.3033C126.708 82.4357 135.761 68.0351 147.036 73.5394C156.22 78.0229 155.761 91.0115 146.654 94.4887C135.613 98.7044 126.247 87.5869 126.247 95.2473C126.247 102.907 126.06 123.712 126.06 123.712C152.101 104.746 200.618 70.2688 175.841 41.5375Z" fill="white"/>
<path d="M183.834 56.1074C183.834 56.1074 182.385 54.3482 181.605 54.1014C180.825 53.8546 179.317 52.6866 179.12 53.1678C178.923 53.649 180.134 54.3913 180.07 54.9413C180.006 55.4914 176.22 56.3743 176.244 56.9559C176.267 57.5375 177.135 58.9447 178.578 58.783C180.022 58.6213 183.684 57.7527 184.435 58.1277C185.187 58.5037 183.834 56.1074 183.834 56.1074Z" fill="#EAC1A4"/>
<path d="M226.365 34.8834C226.365 34.8834 226.62 43.1321 207.818 59.6821L204.043 52.919C203.347 52.5144 216.188 24.8957 219.879 25.1157C227.029 25.5423 226.365 34.8834 226.365 34.8834Z" fill="#AEC3FF"/>
<path d="M206.292 52.1127C206.292 52.1127 184.911 54.5577 184.12 54.9824C183.329 55.4072 182.12 57.3079 182.686 59.3828C182.686 59.3828 193.264 60.5278 199.353 60.502C204.606 60.48 208.003 59.6372 208.003 59.6372L206.292 52.1127Z" fill="#AEC3FF"/>
<path d="M36.489 71.4587C36.489 71.4587 37.4475 71.7113 37.8827 72.1159C38.318 72.5196 40.0035 73.6474 40.9275 73.6665C41.8516 73.6847 43.8404 73.5996 43.8815 73.3164C43.9226 73.0323 43.4329 71.5142 42.3117 71.1172C41.8057 70.9383 40.6788 70.1903 40.1154 70.263C39.4324 70.35 37.1557 69.0051 37.1557 69.0051L36.489 71.4587Z" fill="#EAC1A4"/>
<path d="M115.169 94.4886C124.276 91.0114 124.735 78.0228 115.551 73.5393C104.276 68.0341 95.2229 82.4356 95.2229 75.3032C95.2229 68.1709 95.2229 75.3032 95.2229 54.3117C85.4771 15.0637 25.2022 24.1427 40.1088 69.7119C46.8662 90.3676 94.5752 123.712 94.5752 123.712C94.5752 123.712 94.7618 102.907 94.7618 95.2472C94.7608 87.5868 104.128 98.7043 115.169 94.4886Z" fill="#C4DAF9"/>
</g>
<defs>
<filter id="filter0_d_0_94" x="0" y="6.10352e-05" width="238.704" height="154.851" filterUnits="userSpaceOnUse" color-interpolation-filters="sRGB">
<feFlood flood-opacity="0" result="BackgroundImageFix"/>
<feColorMatrix in="SourceAlpha" type="matrix" values="0 0 0 0 0 0 0 0 0 0 0 0 0 0 0 0 0 0 127 0" result="hardAlpha"/>
<feOffset dy="2"/>
<feGaussianBlur stdDeviation="2"/>
<feComposite in2="hardAlpha" operator="out"/>
<feColorMatrix type="matrix" values="0 0 0 0 0 0 0 0 0 0 0 0 0 0 0 0 0 0 0.25 0"/>
<feBlend mode="normal" in2="BackgroundImageFix" result="effect1_dropShadow_0_94"/>
<feBlend mode="normal" in="SourceGraphic" in2="effect1_dropShadow_0_94" result="shape"/>
</filter>
</defs>
</svg>
