<svg width="314" height="203" viewBox="0 0 314 203" fill="none" xmlns="http://www.w3.org/2000/svg">
<path d="M307.892 3.86937C306.966 -5.84022 1.97582 5.78403 1.97582 5.78403C1.97582 5.78403 12.2756 93.5539 0 203L306.588 202.429C306.592 202.429 322.356 155.13 307.892 3.86937ZM30.8408 23.4122C23.2779 23.3076 23.0321 15.4271 30.5903 15.5317C38.1532 15.6363 38.399 23.5168 30.8408 23.4122ZM61.2911 21.9794C53.7282 21.8748 53.4824 13.9942 61.0406 14.0988C68.6035 14.2035 68.8493 22.084 61.2911 21.9794ZM90.9426 20.8033C83.3796 20.6987 83.1338 12.8182 90.692 12.9228C98.255 13.0274 98.5008 20.9079 90.9426 20.8033ZM120.991 19.6304C113.428 19.5258 113.182 11.6453 120.741 11.7499C128.299 11.8545 128.545 19.735 120.991 19.6304ZM204.904 17.0215C197.341 16.9169 197.095 9.03641 204.653 9.14102C212.216 9.24563 212.462 17.1262 204.904 17.0215ZM240.024 17.776C232.461 17.6714 232.215 9.79086 239.773 9.89547C247.336 10.0001 247.582 17.8806 240.024 17.776ZM274.369 17.9852C266.806 17.8806 266.56 10.0001 274.119 10.1047C281.682 10.2093 281.927 18.0898 274.369 17.9852Z" fill="#93C5FD" fill-opacity="0.39"/>
</svg>
