<svg width="25" height="39" viewBox="0 0 25 39" fill="none" xmlns="http://www.w3.org/2000/svg">
<path d="M17.8164 22.2479C20.0467 17.451 22.5585 12.6986 24.5323 7.79604C26.1218 3.84962 21.4468 -0.891066 17.2686 1.16855C16.0134 1.78654 15.3914 2.87807 14.8374 4.05729C13.7904 6.28854 12.759 8.52779 11.7215 10.761C9.55839 15.413 7.21394 20.0249 5.22043 24.7502C3.21746 29.4973 10.5946 32.378 13.0221 28.0182C15.5583 23.4559 17.466 18.4566 19.6622 13.7284C20.0057 12.9914 18.8103 12.4599 18.4668 13.1969C16.6652 17.073 14.8631 20.9514 13.0615 24.8275C12.5917 25.8393 12.2229 27.0761 11.5212 27.9708C9.57591 30.4439 5.32921 28.1639 6.41347 25.2812C7.80914 21.5789 9.79718 18.0026 11.4649 14.4139C13.0754 10.9461 14.4871 7.28515 16.3375 3.93143C17.8355 1.21563 21.9048 1.60426 23.2934 4.45964C23.8935 5.69459 23.6477 6.5658 23.1684 7.63492C21.3256 11.7443 19.3717 15.8068 17.4726 19.8902C15.5457 24.0366 13.6187 28.183 11.6917 32.3293C10.8519 34.1343 9.92273 36.1316 7.76991 36.7047C5.53392 37.2984 2.77574 35.9525 1.78683 33.9345C0.295909 30.8965 3.4827 26.3228 4.70286 23.6985C6.67053 19.4634 8.64105 15.2265 10.6087 10.9914C10.9522 10.2544 9.75678 9.72287 9.41331 10.4599C7.25402 15.1056 5.09427 19.7536 2.93499 24.3993C1.57668 27.3197 -0.981212 31.0523 0.5648 34.3697C2.90245 39.3865 9.59203 38.9699 12.0492 34.5974C14.2638 30.6557 15.9197 26.3318 17.8164 22.2479Z" fill="#EE7BB7"/>
</svg>
