<svg width="22" height="35" viewBox="0 0 22 35" fill="none" xmlns="http://www.w3.org/2000/svg">
<path d="M12.9498 6.58409C14.0327 7.10334 15.2085 9.66574 15.2085 9.66574C15.2085 9.66574 13.8745 10.3439 13.8067 10.3666C13.7389 10.3894 11.1386 7.61501 11.1386 7.61501C11.1386 7.61501 12.4796 6.35863 12.9498 6.58409Z" fill="#EAC1A4"/>
<path d="M10.0008 32.6853C10.0008 32.6853 10.0341 33.3249 10.4722 33.4937C10.9102 33.6625 12.1689 33.7916 11.711 34.2156C11.4482 34.4592 10.1766 34.3406 9.81914 34.35C9.46109 34.3599 9.12933 34.5246 8.85715 34.2921C8.55751 34.0363 8.81451 32.7174 8.81451 32.7174C8.81451 32.7174 9.12758 32.8699 9.40502 32.8553C9.80512 32.8337 10.0008 32.6853 10.0008 32.6853Z" fill="#263238"/>
<path d="M13.2156 13.2754C13.2156 13.2754 13.3797 16.1608 12.6076 21.7242C12.0503 25.741 11.3734 29.7917 11.0405 31.7338C10.9213 32.4282 10.3536 32.9492 9.66551 32.9954L9.29578 33.0205C8.55165 33.0707 7.93018 32.4469 7.96406 31.6853L8.5464 18.5906L8.66088 14.2829L13.2156 13.2754Z" fill="#263238"/>
<path d="M5.90048 32.7957C5.90048 32.7957 5.93377 33.4352 6.37184 33.604C6.80991 33.7728 8.06862 33.9019 7.61069 34.326C7.34785 34.5695 6.07629 34.451 5.71883 34.4603C5.36078 34.4702 5.02902 34.6349 4.75684 34.4025C4.4572 34.1467 4.7142 32.8278 4.7142 32.8278C4.7142 32.8278 5.02727 32.9802 5.30471 32.9656C5.70481 32.944 5.90048 32.7957 5.90048 32.7957Z" fill="#263238"/>
<path d="M9.11529 13.3864C9.11529 13.3864 9.27942 16.2718 8.50725 21.8353C7.95003 25.852 7.27308 29.9027 6.94014 31.8448C6.82099 32.5393 6.25326 33.0603 5.5652 33.1064L5.19547 33.1315C4.45134 33.1818 3.82987 32.558 3.86375 31.7963L4.44609 18.7016L4.56057 14.394L9.11529 13.3864Z" fill="#263238"/>
<path d="M4.16922 16.6865C4.18733 17.0346 6.29764 17.1164 8.90092 16.9645C11.5042 16.8132 13.5766 16.3968 13.5579 16.0487C13.5398 15.7006 11.4376 15.5528 8.83434 15.7041C6.23105 15.8553 4.15053 16.3384 4.16922 16.6865Z" fill="#263238"/>
<path d="M4.54071 6.80664C4.54071 6.80664 4.9519 4.96852 8.35072 4.85813C13.2518 4.69925 12.9195 9.21543 13.5579 16.0487C13.5579 16.0487 8.7111 15.4961 4.16397 16.6012C4.16397 16.6006 3.55184 9.62546 4.54071 6.80664Z" fill="#3E6897"/>
<path d="M3.27908 6.57827L5.5325 7.74703C5.5325 7.74703 10.4055 8.05718 11.6905 7.81011C12.9755 7.56246 13.3038 6.60572 13.3038 6.60572C13.3038 6.60572 11.8909 5.22085 9.5446 4.90427C9.3244 4.87448 9.09602 4.85404 8.85946 4.8447C8.46228 4.83009 8.06569 4.84586 7.67902 4.90018C4.72704 5.31313 3.27908 6.57827 3.27908 6.57827Z" fill="#3E6897"/>
<path d="M7.87236 4.45274L8.10658 3.6175L8.17492 3.37452L8.57561 1.94525L8.6714 3.35349L8.72864 4.19866L8.74674 4.46618C8.75901 4.64783 8.87116 4.68287 9.01017 4.83766C9.06683 4.90015 9.42662 5.27923 9.0347 5.46497C8.54582 5.69685 7.61244 5.39079 7.24973 4.96674C7.25265 4.96674 7.79643 4.72259 7.87236 4.45274Z" fill="#EAC1A4"/>
<path d="M13.1554 16.3413C13.1554 16.3413 10.3098 15.5867 4.494 16.8845L4.4718 17.7268L13.0509 17.7986L13.1554 16.3413Z" fill="#657285"/>
<path d="M3.23412 6.63085C3.05422 6.90304 3.46366 7.50231 4.1488 7.97016C4.83394 8.43802 5.53543 8.59631 5.71533 8.32412C5.89523 8.05194 5.48578 7.45266 4.80064 6.98481C4.11609 6.51754 3.4146 6.35866 3.23412 6.63085Z" fill="#263238"/>
<path d="M9.40443 1.15094C9.40443 1.15094 9.56155 1.46927 9.56038 1.9085C9.55921 2.34832 8.9173 1.39976 8.9173 1.39976L9.40443 1.15094Z" fill="#263238"/>
<path d="M8.94241 3.86704C9.60026 3.63934 9.91098 2.81173 9.63642 2.01854C9.36187 1.22534 8.606 0.766918 7.94816 0.994624C7.29031 1.22233 6.97959 2.04993 7.25414 2.84313C7.5287 3.63633 8.28456 4.09475 8.94241 3.86704Z" fill="#EAC1A4"/>
<path d="M7.13584 2.42423L7.72051 2.23965C7.84901 2.19877 7.95473 2.10356 8.00321 1.97798C8.08615 1.76129 8.21348 1.63279 8.77479 1.53875C9.48621 1.42018 9.86587 0.903844 9.86587 0.51893C9.86645 0.125838 9.45233 -0.0552292 9.13517 0.197097C8.81743 0.449423 8.87934 -0.0225203 8.52889 0.00084328C7.87413 0.0440658 7.85543 0.559816 7.33092 0.650934C6.64287 0.770672 5.52434 1.54167 6.35316 2.62632L7.13584 2.42423Z" fill="#263238"/>
<path d="M8.49736 2.35651C8.5032 2.35125 8.50612 2.34307 8.50495 2.3349C8.5032 2.32088 8.49035 2.31095 8.47633 2.3127C8.46815 2.31387 8.27482 2.31854 8.22167 2.53641C8.21816 2.54984 8.22634 2.56386 8.23977 2.56795C8.25321 2.57145 8.26431 2.56211 8.27132 2.54984C8.33615 2.42426 8.47575 2.36468 8.48276 2.3641C8.48801 2.36235 8.49327 2.36001 8.49736 2.35651Z" fill="#080435"/>
<path d="M8.45471 2.6999C8.48216 2.75422 8.53648 2.78226 8.5762 2.7624C8.61592 2.74254 8.62526 2.68238 8.59781 2.62747C8.57036 2.57315 8.51604 2.54512 8.47632 2.56498C8.4366 2.58484 8.42725 2.645 8.45471 2.6999Z" fill="#080435"/>
<path d="M9.40795 2.09186C9.41379 2.08952 9.41788 2.08427 9.41905 2.07667C9.4208 2.06382 9.41379 2.0498 9.40211 2.04455C9.39568 2.04163 9.24499 1.96102 9.1527 2.12574C9.14686 2.13625 9.14978 2.15144 9.15913 2.16078C9.16906 2.17013 9.17957 2.16662 9.18775 2.15903C9.26718 2.07901 9.38926 2.08894 9.39451 2.09127C9.39919 2.09303 9.40386 2.09361 9.40795 2.09186Z" fill="#080435"/>
<path d="M9.23214 2.39504C9.23681 2.45579 9.27653 2.50252 9.32034 2.49901C9.36473 2.49551 9.39627 2.44352 9.3916 2.38278C9.38693 2.32203 9.34721 2.27531 9.3034 2.27881C9.25959 2.28231 9.22747 2.3343 9.23214 2.39504Z" fill="#080435"/>
<path d="M6.35257 2.62635C6.35257 2.62635 6.94834 3.43181 7.54645 3.3769C7.54645 3.3769 6.93374 2.79573 7.84608 2.17719C7.84608 2.17777 6.90103 2.22158 6.35257 2.62635Z" fill="#263238"/>
<path d="M7.27835 2.94871C7.4197 3.00245 7.5739 2.94404 7.62179 2.81729C7.66969 2.69054 7.59434 2.54452 7.45299 2.49079C7.31164 2.43705 7.15744 2.49546 7.10955 2.62221C7.06107 2.74837 7.137 2.89439 7.27835 2.94871Z" fill="#EAC1A4"/>
<path d="M7.84609 2.17773C7.84609 2.17773 7.91969 2.94114 8.10075 3.05153C8.28182 3.16134 9.29872 3.0159 9.73036 2.73846C9.83666 3.21683 9.58551 3.7098 9.12875 3.88678C8.97747 3.94519 8.81568 3.97848 8.64921 3.98374C8.30927 3.99367 7.96232 3.92358 7.7649 3.6473C7.70474 3.56319 7.70766 2.96859 7.70766 2.96859C7.70766 2.96859 7.68372 2.62515 7.45358 2.49081C7.453 2.49081 7.63582 2.24257 7.84609 2.17773Z" fill="#263238"/>
<path d="M8.99148 0.15974C8.85188 0.15974 8.81216 0.0353294 8.81216 0.0341612L8.84487 0.024231C8.84663 0.0294878 8.8881 0.156819 9.0493 0.118269L9.05748 0.151563C9.03353 0.157404 9.01134 0.15974 8.99148 0.15974Z" fill="#263238"/>
<path d="M8.93423 1.29989L8.92606 1.2847C8.92781 1.28353 9.10712 1.18891 9.27768 1.04581C9.43421 0.914975 9.61528 0.7158 9.59016 0.511369C9.57673 0.400392 9.54344 0.331469 9.48853 0.301097C9.40092 0.252617 9.27184 0.31161 9.15794 0.364178C9.14042 0.372356 9.12348 0.379948 9.10654 0.387542L9.09953 0.371772C9.11588 0.364763 9.13282 0.356585 9.15035 0.348408C9.26775 0.294088 9.40092 0.232759 9.49613 0.285911C9.5557 0.319204 9.59192 0.392214 9.60652 0.509032C9.65675 0.913805 8.96402 1.28412 8.93423 1.29989Z" fill="white"/>
<path d="M7.06574 0.850712L7.06458 0.833774C7.81805 0.782374 8.08673 0.29758 8.08907 0.292908L8.10425 0.301085C8.10133 0.305758 7.82915 0.798144 7.06574 0.850712Z" fill="white"/>
<path d="M8.71579 3.2221C8.71579 3.2221 9.19474 3.25014 9.47102 3.08075C9.47043 3.08075 9.266 3.8202 8.71579 3.2221Z" fill="white"/>
<path d="M9.63513 9.90877C9.63513 9.90877 6.4501 9.11733 6.02254 9.50166C5.55002 9.92687 4.73229 13.7404 5.05237 16.1895C5.23227 17.5685 5.72115 17.683 6.43958 17.655L9.59658 17.5317L9.63513 9.90877Z" fill="#EEA6CB"/>
<path d="M9.28529 9.98116C9.54872 9.83631 11.6485 9.50163 12.6806 8.18626C13.7939 6.76751 13.8505 4.32485 15.0724 4.6093C16.2576 4.88499 15.8978 9.34568 15.875 9.61494C15.8744 9.62195 15.8797 9.62779 15.8867 9.62837C16.1372 9.64122 19.3883 9.88304 20.2556 10.5577C21.2217 11.3094 20.3865 12.3561 20.3865 12.3561C20.7118 12.4717 21.96 13.3578 20.376 14.6726C20.3684 14.679 20.3684 14.6901 20.3742 14.6983C20.5553 14.9582 21.5552 16.1445 19.5103 16.8571C19.5103 16.8571 20.2235 18.2501 18.737 18.6041C17.2505 18.958 10.1077 18.0054 9.59661 17.5334C8.35776 16.388 8.14223 10.6096 9.28529 9.98116Z" fill="#5E90C9"/>
<path d="M3.27908 14.919C3.27908 14.919 3.65407 13.1405 3.79425 13.1031C4.11783 13.0161 4.79421 12.9892 5.11954 12.9086C5.26031 12.8736 5.74277 12.7889 5.79534 12.9244C5.84148 13.0424 5.48986 13.2924 5.30821 13.3911C6.20186 13.7345 7.38756 14.4716 5.42619 14.054C5.42561 14.0552 5.42561 14.0563 5.42502 14.0569C5.61427 14.134 6.81048 14.5633 6.72053 14.8431C6.65219 15.0557 5.51965 14.6883 5.20716 14.5651C5.20541 14.568 5.20424 14.5709 5.20249 14.5733C5.50913 14.7263 6.45185 15.0598 6.35022 15.2975C6.26377 15.5002 4.95133 15.0627 4.95133 15.0627C4.95133 15.0627 6.00152 15.5271 5.75912 15.6684C5.53658 15.7981 4.5413 15.391 4.23874 15.2689C3.92508 15.1422 3.27908 14.919 3.27908 14.919Z" fill="#EAC1A4"/>
<path d="M12.4557 7.62321C12.3015 7.11914 11.8115 6.49358 11.8062 6.48716L11.85 6.4527C11.8553 6.45912 12.3518 7.09286 12.5089 7.60686L12.4557 7.62321Z" fill="#263238"/>
<path d="M8.38227 22.9678L8.32678 22.9602C8.3297 22.9362 8.64628 20.5718 8.88459 19.7226C9.12523 18.8651 10.2321 18.1257 10.2432 18.1187L10.2741 18.1654C10.263 18.1724 9.17371 18.9007 8.93891 19.7377C8.70118 20.5829 8.38519 22.9438 8.38227 22.9678Z" fill="#263238"/>
<path d="M17.2996 9.50163C17.2996 9.50163 17.8504 9.57697 17.782 9.99401C17.695 10.5255 17.2306 10.845 17.1775 10.605C17.167 10.5577 17.2517 10.0548 17.2517 10.0548C17.2517 10.0548 16.7645 11.0892 16.5379 10.9239C16.3119 10.7586 16.7453 9.87369 16.7453 9.87369C16.7453 9.87369 16.1553 10.8404 16 10.6277C15.8446 10.4151 16.2324 9.61027 16.2324 9.61027C16.2324 9.61027 15.7178 10.5828 15.5444 10.3322C15.3703 10.0822 15.7605 9.62779 15.872 9.40233C15.9772 9.18914 16.1781 9.18155 16.4205 9.28843C16.4205 9.28843 16.7307 9.27967 16.8697 9.38189C16.9228 9.42102 17.0075 9.3959 17.0548 9.40759C17.1454 9.43095 17.2996 9.50163 17.2996 9.50163Z" fill="#EAC1A4"/>
<path d="M0.255274 11.3842C1.34343 8.83637 3.23121 6.86682 3.26391 6.82768C3.26391 6.82768 3.6278 6.52279 4.27439 7.01927C5.44782 7.91935 5.38357 8.46138 5.38357 8.46138C5.38357 8.46138 2.74641 11.9618 2.42516 12.484C2.21256 12.8315 -0.053709 12.1078 0.255274 11.3842Z" fill="#EAC1A4"/>
<path d="M4.30592 13.0202C4.30592 13.0202 3.02151 12.4016 2.07937 11.1885C1.53559 10.4882 0.255265 11.3842 0.255265 11.3842C0.255265 11.3842 -0.393073 12.5739 0.376756 13.5838C1.08642 14.5149 3.27909 14.9185 3.27909 14.9185L4.30592 13.0202Z" fill="#EAC1A4"/>
<path d="M2.80539 11.9916C2.79955 11.9916 2.79312 11.9893 2.78903 11.9846C2.29198 11.4525 1.49878 11.4513 1.49177 11.4525C1.47892 11.4537 1.46899 11.4426 1.46899 11.4303C1.46899 11.418 1.47892 11.4075 1.49119 11.4075C1.49937 11.4075 2.31125 11.4075 2.82233 11.9542C2.83109 11.9636 2.83051 11.9776 2.82116 11.9864C2.81649 11.9899 2.81123 11.9916 2.80539 11.9916Z" fill="#E59562"/>
</svg>
