<svg width="94" height="92" viewBox="0 0 94 92" fill="none" xmlns="http://www.w3.org/2000/svg">
<path d="M20.774 27.397C9.95138 29.8457 4.54009 31.0701 3.25266 35.2101C1.96522 39.3499 5.6543 43.6641 13.0324 52.2916L14.9412 54.5238C17.0379 56.9754 18.0862 58.2013 18.5578 59.718C19.0294 61.2346 18.8709 62.8701 18.5539 66.1415L18.2653 69.1195C17.1499 80.6308 16.5921 86.3864 19.9626 88.945C23.3332 91.5036 28.3998 89.1707 38.533 84.5054L41.1546 83.298C44.0339 81.9723 45.4736 81.3092 47 81.3092C48.5263 81.3092 49.966 81.9723 52.8453 83.298L55.4669 84.5054C65.6 89.1707 70.6666 91.5036 74.0375 88.945C77.4079 86.3864 76.85 80.6308 75.7346 69.1195M80.9675 52.2916C88.3458 43.6641 92.0348 39.3499 90.7473 35.2101C89.4599 31.0701 84.0483 29.8457 73.2261 27.397L70.426 26.7635C67.3504 26.0676 65.813 25.7197 64.5784 24.7824C63.3433 23.8451 62.5517 22.4245 60.9677 19.5834L59.5259 16.9968C53.9528 6.99894 51.1663 2 47 2C42.8336 2 40.0471 6.99898 34.4739 16.9969" stroke="#3E6897" stroke-opacity="0.05" stroke-width="4" stroke-linecap="round"/>
</svg>
