<svg width="56" height="56" viewBox="0 0 56 56" fill="none" xmlns="http://www.w3.org/2000/svg">
<path d="M35.2549 53.5557L36.3764 54.2749L36.7658 54.8466C36.7658 54.8466 36.3667 55.0462 36.1427 55.1024C35.9187 55.1578 34.1407 54.968 34.1407 54.968L34.0926 53.9271L35.2549 53.5557Z" fill="#273140"/>
<path d="M29.6496 54.3407L30.2043 54.9622C30.2043 54.9622 30.6555 55.8044 30.4291 55.7922C30.2027 55.7791 28.9736 55.8451 28.8913 55.7042C28.8083 55.5633 28.1559 55.0722 28.0712 54.9769C27.9856 54.8816 28.0728 54.0907 28.0728 54.0907L29.6496 54.3407Z" fill="#273140"/>
<path d="M32.8196 37.8059L31.4269 46.2749L29.6497 54.3415L28.0663 54.2511L28.3717 45.7373C28.3717 45.7373 27.2306 37.9126 27.2266 35.5986L32.8196 37.8059Z" fill="#263238"/>
<path d="M36.3138 38.2229L35.6768 53.8537L34.0479 53.9286L33.1813 45.9874L31.9196 38.9788L35.2867 34.6425L36.3138 38.2229Z" fill="#263238"/>
<path d="M35.4602 29.9933C34.6058 25.8362 35.6907 23.8326 33.8206 22.6768C33.8206 22.6768 30.7744 21.8404 28.8343 23.2323C28.8075 23.2519 28.7806 23.2714 28.7545 23.291L28.0492 24.7562L27.5141 31.3315C27.5141 31.3315 26.0171 39.9642 26.812 40.0335C27.712 40.1125 31.8447 38.187 32.629 38.2318C33.4134 38.2774 35.8137 38.7075 38.0795 37.9362C40.0221 37.2764 36.3138 34.1505 35.4602 29.9933Z" fill="#3E6897"/>
<path d="M31.672 22.549L31.0798 22.5718L31.0196 23.168L33.1959 29.2546L33.6837 26.6173L33.1511 22.786L31.672 22.549Z" fill="white"/>
<path d="M33.4614 31.5939L32.6225 38.2213L34.3907 38.4714L35.6141 38.3761L34.0674 32.6266L33.4614 31.5939Z" fill="white"/>
<path d="M32.4751 22.8129C32.0687 22.83 31.663 22.8463 31.2566 22.8634C31.2077 22.5433 31.1841 22.2191 31.1866 21.895C30.8363 21.8249 30.4258 21.7028 30.3183 21.3623C30.2841 21.2548 30.2874 21.1399 30.2915 21.0275C30.3061 20.5625 30.1758 20.0909 30.3346 19.6323C30.3876 19.48 30.346 19.3057 30.412 19.1591C30.5285 18.9017 30.8046 18.7576 31.0734 18.6712C31.7591 18.4505 32.5468 18.4945 33.1568 18.8781C33.3189 18.9799 33.4712 19.1094 33.56 19.2789C33.6976 19.5403 33.6667 19.8555 33.6316 20.1487C33.5999 20.4199 33.5681 20.6912 33.5364 20.9616C33.4997 21.2735 33.4337 21.6311 33.1601 21.785C33.0151 21.8665 32.831 21.8746 32.7039 21.9829C32.4816 22.1735 32.5655 22.5335 32.4751 22.8129Z" fill="#E7CAAD"/>
<path d="M34.2205 16.7711C34.1293 16.763 34.0365 16.7516 33.9395 16.719C33.6357 16.6164 33.4085 16.3777 33.0876 16.2849C32.4376 16.0959 31.6508 16.1977 31.0546 16.5105C30.4837 16.8094 29.6847 16.9739 29.1829 17.3526C28.9736 17.5107 28.8205 17.7338 28.7097 17.9725C28.3269 18.7975 28.4711 19.8401 29.0632 20.5299C29.196 20.6847 29.3483 20.8215 29.5063 20.951C29.8329 21.2182 30.2255 21.5505 30.6319 21.6091C30.592 21.2589 30.1196 20.2042 30.3468 19.88C30.649 19.4508 31.3088 19.4051 31.7844 19.4092C32.3513 19.4141 32.7993 19.1942 33.3629 19.1746C33.6496 19.1649 33.9778 19.195 34.1814 18.9922C34.4168 18.7576 34.8949 18.0368 34.9967 17.7289C35.0863 17.4602 34.9845 17.1466 34.7736 16.9568C34.5936 16.7939 34.4111 16.789 34.2205 16.7711Z" fill="#263238"/>
<path d="M38.0396 25.9266L34.35 22.584L33.463 23.3317L36.5174 28.432L37.8963 28.5639C37.8963 28.5639 38.2937 27.1443 38.3752 26.9936L38.0396 25.9266Z" fill="#3E6897"/>
<path d="M29.2668 38.069C28.5599 37.4313 27.7267 37.1324 26.7916 37.1804C25.8566 37.2285 25.0584 37.6113 24.4207 38.3182C23.7821 39.026 23.4832 39.8592 23.5321 40.7935C23.5801 41.7285 23.9629 42.5267 24.6699 43.1644C24.9501 43.4169 25.2506 43.6165 25.5691 43.7622C26.0537 43.9838 26.5807 44.0807 27.1451 44.0522C28.081 44.0041 28.8783 43.6213 29.5161 42.9136C30.153 42.2074 30.4519 41.3742 30.4047 40.4383C30.3566 39.5041 29.9738 38.7059 29.2668 38.069Z" fill="#F39AC8"/>
<path d="M30.4055 40.4393C30.3567 39.5035 29.9738 38.7061 29.2677 38.0692C29.0396 37.8631 28.7977 37.6937 28.5444 37.5585C28.9313 38.0854 29.1455 38.6939 29.1805 39.3756C29.2278 40.3122 28.9289 41.1446 28.2919 41.8508C27.6542 42.5578 26.8568 42.9406 25.921 42.9894C25.3565 43.018 24.8296 42.921 24.345 42.6995C24.2855 42.6726 24.2269 42.6425 24.1682 42.6115C24.3124 42.807 24.4785 42.9927 24.6707 43.1654C24.9509 43.4179 25.2515 43.6174 25.5699 43.7632C26.0546 43.9847 26.5815 44.0817 27.146 44.0532C28.0818 44.0051 28.8792 43.6223 29.5169 42.9145C30.1538 42.2092 30.4528 41.376 30.4055 40.4393Z" fill="#F384BE"/>
<path d="M55.9371 25.6589C55.6781 22.8188 54.2511 20.21 51.6969 17.9058C49.1427 15.6024 46.3905 14.4402 43.5146 14.4508C41.015 14.4605 38.7629 15.3858 36.8204 17.2021C36.4929 17.5083 36.3072 17.9408 36.3113 18.3888C36.3154 18.8367 36.5084 19.266 36.8407 19.5665L38.3614 20.9381C38.9682 21.4854 39.8885 21.4887 40.5018 20.9454C41.5892 19.9819 42.7221 19.5087 43.9658 19.4997C45.471 19.4883 46.977 20.153 48.4422 21.474C49.9026 22.7911 50.6943 24.2303 50.7961 25.7493C50.8954 27.2634 50.2911 28.758 49.0001 30.1898C47.2197 32.1633 45.4555 32.9835 43.7549 32.6268C41.9646 32.2505 39.8177 30.9188 37.3693 28.6667L36.7112 28.073C36.0539 27.48 35.0375 27.533 34.4453 28.1895L29.275 33.9218C28.9883 34.2403 28.8417 34.6508 28.8645 35.0792C28.8865 35.5076 29.0738 35.901 29.3923 36.1877L30.9349 37.5788C31.0595 37.6912 31.1964 37.78 31.3413 37.846C31.962 38.1294 32.7211 37.9942 33.2016 37.4615L36.55 33.7491C36.5915 33.7027 36.6632 33.6986 36.7096 33.7377C39.654 36.2537 42.4387 37.6073 44.9856 37.7613C47.6945 37.9242 50.2919 36.6503 52.7052 33.9747C55.1088 31.3122 56.1961 28.5136 55.9371 25.6589Z" fill="#F39AC8"/>
<path d="M55.9371 25.6588C55.6781 22.8187 54.2511 20.2099 51.6969 17.9057C50.1159 16.4796 48.4577 15.4916 46.7424 14.9475C47.5503 15.4346 48.342 16.0275 49.1158 16.7247C51.67 19.0289 53.097 21.6369 53.356 24.4778C53.615 27.3325 52.5276 30.1311 50.1241 32.7961C47.7108 35.4717 45.1134 36.7455 42.4044 36.5826C41.6217 36.5354 40.817 36.3749 39.9927 36.1021C41.7357 37.1112 43.4071 37.6683 44.9863 37.7636C47.6953 37.9265 50.2927 36.6527 52.706 33.9771C55.1087 31.3121 56.1961 28.5135 55.9371 25.6588Z" fill="#F384BE"/>
<path d="M29.481 22.8633L27.7331 23.4017L23.55 30.5325L23.835 31.9114L29.2538 34.6203L30.0145 33.1469L26.592 30.5325L28.6836 27.6801L29.4916 23.1166L29.481 22.8633Z" fill="#3E6897"/>
<path d="M34.2784 22.6447L33.3902 21.6906L32.5338 21.9285L32.2967 22.7849L33.057 22.9275L33.7724 23.0717L34.2784 22.6447Z" fill="#EAC1A4"/>
<path d="M29.9399 33.2927L30.7938 33.4679L30.6569 33.9715L31.3968 34.8369L30.3823 35.206L29.389 34.3594L29.9399 33.2927Z" fill="#E7CAAD"/>
</svg>
