<svg width="43" height="43" viewBox="0 0 43 43" fill="none" xmlns="http://www.w3.org/2000/svg">
<path d="M40.2222 32.64C40.2222 33.04 37.2222 35.14 35.7222 36.14C35.7222 37.14 31.2222 38.14 31.2222 38.64C31.2222 39.14 29.7222 39.14 29.7222 39.64C29.7222 40.14 27.7222 40.14 26.7222 40.64C25.7222 41.14 24.7222 41.14 23.7222 41.64C22.7222 42.14 21.7222 41.64 21.2222 42.14C20.7222 42.64 17.7222 41.64 16.2222 41.64C14.7222 41.64 13.2222 40.14 12.7222 40.14C12.2222 40.14 10.7222 38.64 9.72223 38.64C8.72232 38.64 6.22269 36.1405 5.72237 35.6402L5.72223 35.64C5.22223 35.14 4.22221 32.64 3.72223 32.14C3.22225 31.64 2.72223 30.14 2.72223 29.64C2.72223 29.14 2.22221 27.64 1.72223 26.64C1.22225 25.64 1.72222 25.5 1.22222 24.5C0.722222 23.5 1.72222 21.64 1.22222 20.14C0.722222 18.64 1.22222 18.64 1.22222 17.14C1.22222 15.64 1.72223 16.5616 1.72223 14.5C1.72223 11.86 3.72221 9.64002 4.22221 9.14002C4.72221 8.64002 4.22221 8.64002 7.22221 5.14002C10.2222 1.64002 10.0407 4.55285 12.7222 2.64002C15.7222 0.50001 15.2222 2.64002 16.2222 1.64001C17.2222 0.639995 19.5 1.64001 20 1.14C20.5 0.639985 21.2222 1.64001 22.7222 1.14001C24.2222 0.64001 25.2222 1.64001 25.7222 1.64001C26.2222 1.64001 28.2222 2.14001 28.7222 2.14001C29.2222 2.14001 31.2222 3.14001 31.7222 3.14001C32.2222 3.14001 34.122 3.90746 35.5 4.5C37.5 5.35999 36.7222 6.64001 37.7222 7.14001C38.7222 7.64001 37.7222 10.14 38.7222 10.64C39.7222 11.14 39 13 39.5 13.5C40.7 13.8148 41.0555 17.4378 41.2222 19.14C42.2222 20.14 40.7222 21.5 41.7222 23C42.7222 24.5 41.2222 25.64 41.7222 27.64C42.2222 29.64 40.2222 32.14 40.2222 32.64Z" fill="#3E6897" stroke="#3E6897"/>
<path fill-rule="evenodd" clip-rule="evenodd" d="M26.9781 22.8402C26.6939 22.6848 25.3068 21.9344 25.0453 21.8321C24.7838 21.726 24.5944 21.673 24.3897 21.9534C24.1889 22.2338 23.6128 22.8629 23.4385 23.0486C23.2642 23.2343 23.0936 23.2533 22.8094 23.0979C22.5289 22.9425 21.6118 22.6052 20.5507 21.582C19.7245 20.7861 19.1826 19.8235 19.0234 19.5279C18.8642 19.2323 19.0234 19.0845 19.1712 18.9443C19.3039 18.8193 19.4706 18.6184 19.6222 18.4554C19.77 18.2925 19.8231 18.175 19.9292 17.9855C20.0315 17.796 19.9898 17.6293 19.9254 17.4815C19.8572 17.3337 19.338 15.8974 19.1182 15.3137C18.8984 14.7301 18.6558 14.8173 18.4891 14.8097C18.3223 14.8021 18.129 14.7718 17.9395 14.7642C17.7463 14.7566 17.4317 14.8173 17.1589 15.0939C16.8822 15.3706 16.1129 16.0414 16.0598 17.455C16.0068 18.8723 16.9883 20.2783 17.1247 20.4754C17.2612 20.6725 18.9969 23.7422 21.8771 25.0042C24.7611 26.2661 24.7763 25.8834 25.303 25.8531C25.8336 25.8265 27.0312 25.2202 27.2965 24.557C27.5617 23.8938 27.5845 23.3177 27.5163 23.1964C27.4518 23.0714 27.2623 22.9918 26.9781 22.8402ZM21.6914 29.6618C19.7852 29.6618 18.0115 29.0895 16.5298 28.108L12.9219 29.2638L14.0929 25.7773C12.9712 24.231 12.3042 22.3286 12.3042 20.2745C12.3042 15.0977 16.5146 10.8873 21.6876 10.8873C26.8644 10.8873 31.0748 15.0977 31.0748 20.2745C31.0786 25.4513 26.8682 29.6618 21.6914 29.6618ZM21.6914 9C15.4648 9 10.4169 14.048 10.4169 20.2783C10.4169 22.4082 11.0081 24.4016 12.0351 26.0994L10 32.1478L16.2417 30.1506C17.8562 31.045 19.7131 31.5529 21.6914 31.5529C27.918 31.5529 32.9659 26.5049 32.9659 20.2783C32.9697 14.048 27.9218 9 21.6914 9Z" fill="white"/>
</svg>
