<svg width="27" height="27" viewBox="0 0 27 27" fill="none" xmlns="http://www.w3.org/2000/svg">
<path d="M13.3333 25.6666C20.1448 25.6666 25.6666 20.1448 25.6666 13.3333C25.6666 6.52181 20.1448 1 13.3333 1C6.52181 1 1 6.52181 1 13.3333C1 20.1448 6.52181 25.6666 13.3333 25.6666Z" stroke="#626262" stroke-width="1.5"/>
<path d="M16.6498 11.8966C16.6261 13.9164 15.0037 15.5387 12.9839 15.5625C10.9638 15.5862 9.34146 13.8808 9.31817 11.8966C9.30322 10.6228 7.32642 10.6213 7.34139 11.8966C7.37777 14.9943 9.88623 17.5029 12.9839 17.5392C16.0819 17.5756 18.5908 14.9396 18.6266 11.8966C18.6415 10.6213 16.6648 10.6228 16.6498 11.8966Z" fill="#626262"/>
<path d="M9.31816 11.643C9.34187 9.62326 10.9641 8.00086 12.9839 7.97715C15.004 7.95344 16.6264 9.65884 16.6498 11.643C16.6648 12.9169 18.6415 12.9183 18.6265 11.643C18.5902 8.54532 16.0817 6.03663 12.9839 6.00037C9.88599 5.96409 7.37709 8.60008 7.34139 11.643C7.3264 12.9183 9.30322 12.9169 9.31816 11.643Z" fill="#626262"/>
<path d="M7.97669 23.3775C7.9887 21.997 8.51539 20.706 9.47142 19.7181C10.4551 18.7016 11.8025 18.1631 13.2033 18.1509C14.5748 18.1389 15.8872 18.7015 16.8627 19.6456C17.8792 20.6292 18.4177 21.9767 18.4299 23.3775C18.5 24.5 19.9131 25 20.32 23.3775C20.2856 19.4307 17.1502 16.2084 13.2033 16.1741C9.25614 16.1398 6 20 6 23.5C6.5 24.6225 7.9656 24.6516 7.97669 23.3775Z" fill="#626262"/>
</svg>
