<svg width="11" height="11" viewBox="0 0 11 11" fill="none" xmlns="http://www.w3.org/2000/svg">
<path d="M7.15802 4.91895H7.9787" stroke="#3E6897" stroke-miterlimit="10"/>
<path d="M5.10846 4.91895H5.92484" stroke="#3E6897" stroke-miterlimit="10"/>
<path d="M3.05432 4.91895H3.875" stroke="#3E6897" stroke-miterlimit="10"/>
<path d="M1 2.7428V7.09525C1 7.55747 1.17293 8.00076 1.48074 8.3276C1.78856 8.65444 2.20604 8.83805 2.64135 8.83805H3.46203V10.1429L5.94125 8.83805H8.40328C8.83859 8.83805 9.25608 8.65444 9.56389 8.3276C9.87171 8.00076 10.0446 7.55747 10.0446 7.09525V2.7428C10.0446 2.28058 9.87171 1.83729 9.56389 1.51046C9.25608 1.18362 8.83859 1 8.40328 1H2.64135C2.20604 1 1.78856 1.18362 1.48074 1.51046C1.17293 1.83729 1 2.28058 1 2.7428Z" stroke="#3E6897" stroke-width="0.8" stroke-miterlimit="10"/>
</svg>
