<svg width="18" height="15" viewBox="0 0 18 15" fill="none" xmlns="http://www.w3.org/2000/svg">
<path d="M9.35459 2.28314L9 2.6398L8.64541 2.28314C6.74998 0.376574 4.71742 0.176819 3.18366 0.855569C1.62242 1.54648 0.5 3.17673 0.5 5.09918C0.5 7.05632 1.32919 8.56502 2.5082 9.85034C3.47591 10.9053 4.64926 11.781 5.77913 12.6241C6.04589 12.8232 6.31024 13.0205 6.56888 13.2179C7.04062 13.5779 7.47239 13.9026 7.89188 14.1399C8.31117 14.3771 8.6729 14.5 9 14.5C9.3271 14.5 9.68883 14.3771 10.1081 14.1399C10.5276 13.9026 10.9594 13.5779 11.4311 13.2179C11.6897 13.0205 11.9541 12.8232 12.2209 12.6241C13.3507 11.7809 14.5241 10.9053 15.4918 9.85034C16.6708 8.56502 17.5 7.05632 17.5 5.09918C17.5 3.17672 16.3776 1.54648 14.8164 0.855569C13.2826 0.17682 11.25 0.376573 9.35459 2.28314Z" stroke="white"/>
</svg>
