<svg width="17" height="17" viewBox="0 0 17 17" fill="none" xmlns="http://www.w3.org/2000/svg">
<path opacity="0.1" d="M5.84614 15.4999H5.69668C4.86627 15.4999 4.29326 15.4989 3.86229 15.4416C3.44521 15.3861 3.23697 15.2861 3.09191 15.1426C2.94756 14.9997 2.84751 14.7956 2.79176 14.3852C2.73398 13.9598 2.7329 13.3938 2.7329 12.5714V7.44144C2.7329 6.66125 2.74278 6.41918 2.83483 6.21021C2.92713 6.00065 3.1006 5.82795 3.67811 5.29711L6.27594 2.90936L6.27595 2.90936C6.84482 2.38647 7.2365 2.0278 7.56824 1.79401C7.88811 1.56858 8.09734 1.5 8.29452 1.5C8.4917 1.5 8.70093 1.56858 9.0208 1.79401C9.35254 2.0278 9.74422 2.38647 10.3131 2.90936L10.3131 2.90936L12.9109 5.29712L13.2493 4.929L12.9109 5.29712C13.4884 5.8279 13.6619 6.00064 13.7542 6.21023L5.84614 15.4999ZM5.84614 15.4999V12.5714C5.84614 11.2253 6.94718 10.1428 8.29452 10.1428C9.64186 10.1428 10.7429 11.2253 10.7429 12.5714V15.4999H10.8924C11.7228 15.4999 12.2958 15.4989 12.7268 15.4416C13.1439 15.3861 13.3521 15.2861 13.4972 15.1425C13.6415 14.9997 13.7415 14.7956 13.7973 14.3852C13.8551 13.9598 13.8561 13.3938 13.8561 12.5714V7.44144C13.8561 6.66125 13.8463 6.4192 13.7542 6.21024L5.84614 15.4999Z" stroke="white"/>
<path d="M2.2329 5.72607V12.5754C2.2329 14.1897 2.2329 14.9969 2.74017 15.4985C3.24744 16 4.06385 16 5.69668 16H6.56263H10.0264H10.8924C12.5252 16 13.3416 16 13.8489 15.4985C14.3561 14.9969 14.3561 14.1897 14.3561 12.5754V5.72607" stroke="white" stroke-linejoin="round"/>
<path d="M16 7.36981L12.1473 4.00318L9.43213 1.63063C8.78342 1.06372 7.80568 1.06372 7.15697 1.63063L4.44182 4.00318L0.589097 7.36981" stroke="white" stroke-linecap="round" stroke-linejoin="round"/>
<path d="M10.0411 15.9999V12.5752C10.0411 11.6295 9.25912 10.8629 8.29449 10.8629C7.32986 10.8629 6.54792 11.6295 6.54792 12.5752V15.9999" stroke="white" stroke-linecap="round" stroke-linejoin="round"/>
</svg>
