<svg width="10" height="9" viewBox="0 0 10 9" fill="none" xmlns="http://www.w3.org/2000/svg">
<path d="M0.384612 3.76083L0.767793 3.73379C0.750049 3.56628 0.573805 3.43992 0.368032 3.44717C0.162255 3.45441 0 3.5927 0 3.76083H0.384612ZM9.22355 4.52403L8.86176 6.23181L9.61975 6.33885L9.98155 4.63102L9.22355 4.52403ZM5.63841 8.37209H3.25451V9H5.63841V8.37209ZM2.78714 8.02151L2.37065 4.08968L1.60429 4.14377L2.02078 8.0756L2.78714 8.02151ZM8.86176 6.23181C8.60187 7.45857 7.24675 8.37209 5.63841 8.37209V9C7.60054 9 9.29263 7.88274 9.61975 6.33885L8.86176 6.23181ZM5.64343 1.61169L5.30359 3.30477L6.06271 3.40629L6.40255 1.71322L5.64343 1.61169ZM2.53214 3.7656L3.26995 3.24663L2.76781 2.77097L2.03001 3.28995L2.53214 3.7656ZM4.61226 1.55807L4.85621 0.790412L4.11165 0.632748L3.8677 1.40041L4.61226 1.55807ZM5.22467 0.639798L5.29903 0.659292L5.53431 0.0614783L5.45995 0.0419839L5.22467 0.639798ZM4.24278 2.32995C4.40273 2.08548 4.52698 1.82653 4.61226 1.55807L3.8677 1.40041C3.79777 1.62045 3.69586 1.83304 3.56428 2.0341L4.24278 2.32995ZM5.29903 0.659292C5.45615 0.700499 5.56774 0.799571 5.60441 0.915001L6.34902 0.757342C6.24363 0.425798 5.93276 0.165966 5.53431 0.0614783L5.29903 0.659292ZM4.85621 0.790412C4.87421 0.733896 4.92421 0.681959 4.99985 0.652201L4.6659 0.0865444C4.39309 0.19385 4.18817 0.391925 4.11165 0.632748L4.85621 0.790412ZM4.99985 0.652201C5.06893 0.625021 5.15026 0.620291 5.22467 0.639798L5.45995 0.0419839C5.19857 -0.0265627 4.91339 -0.0108022 4.6659 0.0865444L4.99985 0.652201ZM6.1044 4.07478H8.76135V3.44687H6.1044V4.07478ZM1.26604 8.43744L0.767793 3.73379L0.00143074 3.78787L0.499682 8.49152L1.26604 8.43744ZM0.769223 8.48206V3.76083H0V8.48206H0.769223ZM0.499682 8.49152C0.492918 8.42768 0.55459 8.37209 0.634204 8.37209V9C1.00649 9 1.29805 8.73959 1.26604 8.43744L0.499682 8.49152ZM6.40255 1.71322C6.4664 1.39502 6.44819 1.06944 6.34902 0.757342L5.60441 0.915001C5.67671 1.14247 5.69 1.37977 5.64343 1.61169L6.40255 1.71322ZM3.25451 8.37209C3.01148 8.37209 2.80818 8.22014 2.78714 8.02151L2.02078 8.0756C2.07614 8.59822 2.61162 9 3.25451 9V8.37209ZM3.26995 3.24663C3.61859 3.00139 3.99442 2.70949 4.24278 2.32995L3.56428 2.0341C3.38665 2.30554 3.10382 2.53462 2.76781 2.77097L3.26995 3.24663ZM9.98155 4.63102C10.1125 4.01295 9.53022 3.44687 8.76135 3.44687V4.07478C9.05191 4.07478 9.27335 4.28898 9.22355 4.52403L9.98155 4.63102ZM0.634204 8.37209C0.709183 8.37209 0.769223 8.42166 0.769223 8.48206H0C0 8.7678 0.283531 9 0.634204 9V8.37209ZM5.30359 3.30477C5.22272 3.70784 5.60333 4.07478 6.1044 4.07478V3.44687C6.07881 3.44687 6.05835 3.42796 6.06271 3.40629L5.30359 3.30477ZM2.37065 4.08968C2.35762 3.96661 2.4178 3.84606 2.53214 3.7656L2.03001 3.28995C1.7283 3.50218 1.56998 3.81989 1.60429 4.14377L2.37065 4.08968Z" fill="#3E6897"/>
</svg>
