<svg width="26" height="24" viewBox="0 0 26 24" fill="none" xmlns="http://www.w3.org/2000/svg">
<path d="M2.19936 22.6667H23.7994C24.0038 22.6666 24.2049 22.6084 24.3834 22.4977C24.562 22.387 24.7121 22.2274 24.8196 22.0342C24.9271 21.8409 24.9883 21.6203 24.9975 21.3933C25.0067 21.1664 24.9636 20.9406 24.8722 20.7373L22.5994 15.684V12C22.5994 9.17104 21.5879 6.45793 19.7876 4.45754C17.9872 2.45715 15.5454 1.33334 12.9994 1.33334C10.4533 1.33334 8.01148 2.45715 6.21114 4.45754C4.41079 6.45793 3.39936 9.17104 3.39936 12V15.6853L1.12656 20.7373C1.03516 20.9406 0.992016 21.1664 1.00122 21.3933C1.01042 21.6203 1.07166 21.8409 1.17913 22.0342C1.2866 22.2274 1.43673 22.387 1.61529 22.4977C1.79384 22.6084 1.99489 22.6666 2.19936 22.6667Z" stroke="white" stroke-width="2" stroke-linecap="round" stroke-linejoin="round"/>
</svg>
