<svg width="15" height="16" viewBox="0 0 15 16" fill="none" xmlns="http://www.w3.org/2000/svg">
<path d="M7.60832 8.51217C7.03942 8.51423 6.54219 8.87089 6.39381 9.38333C6.24542 9.89576 6.48249 10.4375 6.97287 10.7066V12.3877H8.25926V10.7066C8.64319 10.4947 8.87995 10.1105 8.88309 9.69435C8.88309 9.37954 8.74853 9.07775 8.50923 8.85584C8.26996 8.63394 7.94569 8.51024 7.60832 8.51217Z" stroke="#5E90C9" stroke-linecap="round" stroke-linejoin="round"/>
<path d="M4.75557 5.7972H10.4559C12.4373 5.7972 14.0435 7.29588 14.0435 9.14459V11.7518C14.0435 13.6006 12.4373 15.0992 10.4559 15.0992H4.75557C2.77419 15.0992 1.16797 13.6006 1.16797 11.7518V9.14459C1.16797 7.29588 2.77419 5.7972 4.75557 5.7972Z" stroke="#5E90C9" stroke-width="1.5" stroke-linecap="round"/>
<path d="M3.4812 5.79732V4.85374C3.4812 2.72531 5.33045 0.999878 7.61161 0.999878C9.89278 0.999878 11.742 2.72531 11.742 4.85374V5.79732" stroke="#5E90C9" stroke-width="1.5" stroke-linecap="round" stroke-linejoin="round"/>
</svg>
