<svg width="21" height="26" viewBox="0 0 21 26" fill="none" xmlns="http://www.w3.org/2000/svg">
<path d="M19.3617 24.6091C19.3515 24.7341 19.3411 24.8614 19.3354 24.9566C19.3346 24.9579 19.3337 24.9593 19.3327 24.9607C19.324 24.9737 19.3155 24.9844 19.3085 24.9924L19.2932 25C19.2834 25 19.2727 25 19.2612 25L19.2345 24.9999C19.2235 24.9956 19.2055 24.988 19.1797 24.9754L11.0303 20.7138L10.8126 20.5999H10.5669H10.5662H10.5654H10.5646H10.5638H10.563H10.5622H10.5614H10.5607H10.5599H10.5591H10.5583H10.5575H10.5567H10.556H10.5552H10.5544H10.5536H10.5528H10.552H10.5513H10.5505H10.5497H10.5489H10.5481H10.5473H10.5466H10.5458H10.545H10.5442H10.5434H10.5427H10.5419H10.5411H10.5403H10.5395H10.5387H10.538H10.5372H10.5364H10.5356H10.5348H10.5341H10.5333H10.5325H10.5317H10.531H10.5302H10.5294H10.5286H10.5278H10.5271H10.5263H10.5255H10.5247H10.524H10.5232H10.5224H10.5216H10.5209H10.5201H10.5193H10.5185H10.5178H10.517H10.5162H10.5155H10.5147H10.5139H10.5131H10.5124H10.5116H10.5108H10.5101H10.5093H10.5085H10.5078H10.507H10.5062H10.5055H10.5047H10.5039H10.5032H10.5024H10.5016H10.5009H10.5001H10.4994H10.4986H10.4978H10.4971H10.4963H10.4956H10.4948H10.494H10.4933H10.4925H10.4918H10.491H10.4903H10.4895H10.4888H10.488H10.4872H10.4865H10.4857H10.485H10.4842H10.4835H10.4827H10.482H10.4812H10.4805H10.4798H10.479H10.4783H10.4775H10.4768H10.476H10.4753H10.4745H10.4738H10.4731H10.4723H10.4716H10.4709H10.4701H10.4694H10.4686H10.4679H10.4672H10.4664H10.4657H10.465H10.4642H10.4635H10.4628H10.4621H10.4613H10.4606H10.4599H10.4592H10.4584H10.4577H10.457H10.4563H10.4555H10.4548H10.4541H10.4534H10.4527H10.452H10.4512H10.4505H10.4498H10.4491H10.4484H10.4477H10.447H10.4463H10.4455H10.4448H10.4441H10.4434H10.4427H10.442H10.4413H10.4406H10.4399H10.4392H10.4385H10.4378H10.4371H10.4364H10.4357H10.435H10.4344H10.4337H10.433H10.4323H10.4316H10.4309H10.4302H10.4295H10.4289H10.4282H10.4275H10.4268H10.4261H10.4255H10.4248H10.4241H10.4234H10.4228H10.4221H10.4214H10.4207H10.4201H10.4194H10.4187H10.4181H10.4174H10.4167H10.4161H10.4154H10.4148H10.4141H10.4135H10.4128H10.4121H10.4115H10.4108H10.4102H10.4095H10.4089H10.4082H10.4076H10.407H10.4063H10.4057H10.405H10.4044H10.4038H10.4031H10.4025H10.4019H10.4012H10.4006H10.4H10.3993H10.3987H10.3981H10.3975H10.3968H10.3962H10.3956H10.395H10.3944H10.3938H10.3931H10.3925H10.3919H10.3913H10.3907H10.3901H10.3895H10.3889H10.3883H10.3877H10.3871H10.3865H10.3859H10.3853H10.3847H10.3841H10.3835H10.3829H10.3823H10.3818H10.3812H10.3806H10.38H10.3794H10.3788H10.3783H10.3777H10.3771H10.3766H10.376H10.3754H10.3748H10.3743H10.3737H10.3732H10.3726H10.372H10.3715H10.3709H10.3704H10.3698H10.3693H10.3687H10.3682H10.3676H10.3671H10.3665H10.366H10.3655H10.3649H10.3644H10.3639H10.3633H10.3628H10.3623H10.3617H10.3612H10.3607H10.3602H10.3597H10.3591H10.3586H10.3581H10.3576H10.3571H10.3566H10.3561H10.3556H10.3551H10.3546H10.3541H10.3536H10.3531H10.3526H10.3521H10.3516H10.3511H10.3506H10.3501H10.3497H10.3492H10.3487H10.3482H10.3477H10.3473H10.3468H10.3463H10.3459H10.3454H10.3449H10.3445H10.344H10.3436H10.3431H10.3427H10.3422H10.3418H10.3413H10.3409H10.3404H10.34H10.3395H10.3391H10.3387H10.3382H10.3378H10.3374H10.3369H10.3365H10.3361H10.3357H10.3353H10.3348H10.3344H10.334H10.3336H10.3332H10.3328H10.3324H10.332H10.3316H10.3312H10.3308H10.3304H10.33H10.3296H10.3292H10.3288H10.3285H10.3281H10.3277H10.3273H10.327H10.3266H10.3262H10.3259H10.3255H10.3251H10.3248H10.3244H10.3241H10.3237H10.3233H10.323H10.3227H10.3223H10.322H10.3216H10.3213H10.321H10.3206H10.3203H10.32H10.3196H10.3193H10.319H10.3187H10.3184H10.318H10.3177H10.3174H10.3171H10.3168H10.3165H10.3162H10.3159H10.3156H10.3153H10.315H10.3148H10.3145H10.3142H10.3139H10.3136H10.3134H10.3131H10.3128H10.3125H10.3123H10.312H10.3118H10.3115H10.3112H10.311H10.3107H10.3105H10.3102H10.31H10.3098H10.3095H10.3093H10.3091H10.3088H10.3086H10.3084H10.3082H10.3079H10.3077H10.3075H10.3073H10.3071H10.3069H10.3067H10.3065H10.3063H10.3061H10.3059H10.3057H10.3055H10.3053H10.3051H10.305H10.3048H10.3046H10.3044H10.3043H10.3041H10.3039H10.3038H10.3036H10.3035H10.3033H10.3032H10.303H10.3029H10.3027H10.3026H10.3025H10.3023H10.3022H10.3021H10.3019H10.3018H10.3017H10.3016H10.3015H10.3014H10.3013H10.3012H10.301H10.301H10.3009H10.3008H10.3007H10.3006H10.3005H10.3004H10.3003H10.3003H10.3002H10.3001H10.3H10.3H10.2999H10.2999H10.2998H10.2998H10.2997H10.2997H10.2996H10.2996H10.2995H10.2995H10.2995H10.2994H10.2994H10.2994H10.2994H10.2994H10.2993H10.0536L9.83592 20.7138L1.7085 24.9639C1.69996 24.9653 1.6873 24.9667 1.67197 24.9667C1.66961 24.9667 1.66732 24.9666 1.66509 24.9666C1.6596 24.8704 1.64882 24.7384 1.63825 24.609L1.63673 24.5904C1.62643 24.4643 1.61356 24.3097 1.59873 24.1316C1.58721 23.9932 1.5745 23.8406 1.56089 23.6759C1.49832 22.9192 1.41506 21.89 1.33183 20.7285C1.16548 18.4069 1.00112 15.5814 1.00001 13.3561C1.13342 10.4407 1.39913 6.60339 1.66425 3.82844L1.66512 3.81936L1.66582 3.81027C1.75975 2.59311 2.69117 1.60979 3.99334 1.39437C4.44194 1.36217 4.92701 1.32343 5.43356 1.28297C7.09012 1.15065 8.97628 1 10.5669 1C12.1574 1 14.0435 1.15064 15.7 1.28296C16.2218 1.32464 16.7209 1.3645 17.1808 1.39726C18.3798 1.49051 19.3684 2.52117 19.468 3.81034L19.4687 3.81939L19.4696 3.82843C19.7357 6.61459 20 10.4457 20 13.3333C20 15.5622 19.8351 18.399 19.6681 20.7285C19.5849 21.8899 19.5016 22.9192 19.4391 23.6759C19.4254 23.8406 19.4127 23.9933 19.4012 24.1318C19.3864 24.3098 19.3735 24.4643 19.3632 24.5904L19.3617 24.6091ZM19.2485 25.0048C19.2485 25.0048 19.248 25.0047 19.2471 25.0044L19.2485 25.0048Z" stroke="#3E6897" stroke-width="2"/>
</svg>
