<svg width="21" height="26" viewBox="0 0 21 26" fill="none" xmlns="http://www.w3.org/2000/svg">
<path d="M21 13.3333C21 17.8667 20.3312 24.8 20.3312 25.0666C20.3312 25.3332 20.0637 25.7332 19.7962 25.8666C19.6624 26 19.5287 26 19.2612 26C19.1273 26 18.9936 26 18.7261 25.8666L10.5669 21.5999C10.4331 21.5999 10.2993 21.5999 10.2993 21.5999L2.14012 25.8666C1.87261 26 1.47134 26 1.20383 25.8666C0.936311 25.7332 0.668784 25.4666 0.668784 25.0666C0.668784 24.8 0 17.8667 0 13.3333C0.133757 10.4 0.401271 6.53332 0.668784 3.73333C0.802541 1.99999 2.14012 0.666665 3.87898 0.399996C5.7516 0.266668 8.42677 0 10.5669 0C12.707 0 15.3821 0.266668 17.2548 0.399996C18.9936 0.533337 20.3312 1.99999 20.465 3.73333C20.7325 6.53332 21 10.4 21 13.3333Z" fill="#3E6897"/>
</svg>
