<svg width="18" height="17" viewBox="0 0 18 17" fill="none" xmlns="http://www.w3.org/2000/svg">
<path d="M12.4447 0.710843L12.4447 0.710886L12.4386 0.707312C11.7151 0.28097 10.7858 0.538161 10.3586 1.25403L10.3571 1.25654L10.2664 1.41271L10.2658 1.41378L10.2655 1.41426C10.2654 1.41441 10.2653 1.41456 10.2652 1.41472C9.89965 2.05022 9.43623 2.33278 9.00318 2.33278C8.5698 2.33278 8.10413 2.0499 7.73438 1.41404L7.73427 1.41385L7.64002 1.25162C7.21213 0.537566 6.28407 0.281441 5.56138 0.707309L5.5614 0.707351L5.55528 0.710844L4.1121 1.5341L4.11183 1.53425C3.28874 2.00312 3.00968 3.05588 3.47912 3.86581L3.47915 3.86579L3.48104 3.86915C3.84902 4.50366 3.86317 5.04622 3.64646 5.42119L3.64643 5.42125C3.42957 5.79638 2.95163 6.05533 2.21757 6.05533C1.27563 6.05533 0.5 6.82185 0.5 7.76592V9.23409C0.5 10.1693 1.26664 10.9447 2.21757 10.9447C2.95161 10.9447 3.42956 11.2036 3.64643 11.5787L3.64647 11.5788C3.86353 11.9544 3.84897 12.4982 3.47918 13.1341L3.47881 13.1347C3.47872 13.1349 3.47863 13.135 3.47854 13.1352C3.01007 13.953 3.28878 14.9967 4.11159 15.4657L4.11175 15.4658L5.55535 16.2892L5.55537 16.2891L5.56144 16.2927C6.28495 16.719 7.2142 16.4619 7.64145 15.746L7.64219 15.7447L7.64322 15.743L7.73284 15.5887L7.73418 15.5863L7.73424 15.5862L7.73452 15.5857C8.10014 14.95 8.56367 14.6672 8.9969 14.6672C9.43024 14.6672 9.8959 14.9502 10.2656 15.586L10.2657 15.5862L10.36 15.7484C10.7878 16.4624 11.7158 16.7186 12.4386 16.2927L12.4386 16.2927L12.4447 16.2892L13.8879 15.4659L13.8881 15.4658C14.7111 14.9968 14.9902 13.944 14.5209 13.1342L14.5208 13.1342L14.5208 13.134C14.5207 13.134 14.5207 13.1339 14.5206 13.1338C14.1511 12.498 14.1365 11.9544 14.3536 11.5788L14.3536 11.5787C14.5704 11.2036 15.0484 10.9447 15.7824 10.9447C16.7334 10.9447 17.5 10.1693 17.5 9.23409V7.76592C17.5 6.83076 16.7333 6.05533 15.7824 6.05533C15.0483 6.05533 14.5704 5.79637 14.3536 5.42125L14.3536 5.42124C14.1364 5.04558 14.1511 4.50178 14.5208 3.86596L14.5208 3.86596L14.5214 3.86489C14.9901 3.05517 14.711 2.00317 13.8884 1.5344L13.8882 1.53429L12.4447 0.710843Z" stroke="white"/>
<path d="M6.9938 8.50048C6.9938 9.60502 7.89239 10.503 9.00426 10.503C10.1161 10.503 11.0147 9.60502 11.0147 8.50048C11.0147 7.39595 10.1161 6.49792 9.00426 6.49792C7.89239 6.49792 6.9938 7.39595 6.9938 8.50048Z" stroke="white"/>
</svg>
