<svg width="19" height="19" viewBox="0 0 19 19" fill="none" xmlns="http://www.w3.org/2000/svg">
<path d="M1.50014 3.36665L1.50035 3.37387V3.38109V15.1262V15.1335L1.50014 15.1407C1.49718 15.2433 1.52919 15.3433 1.59009 15.4241C1.65079 15.5047 1.73631 15.5611 1.83193 15.585C1.83214 15.5851 1.83235 15.5851 1.83257 15.5852L5.18103 16.4089V2.09846L1.83257 2.92214C1.83238 2.92219 1.8322 2.92223 1.83202 2.92228C1.73636 2.94622 1.65081 3.00263 1.59009 3.08321C1.52919 3.16403 1.49718 3.26406 1.50014 3.36665Z" stroke="white"/>
<path d="M8.55575 3.59802H11.389C11.6395 3.59802 11.8797 3.69758 12.0568 3.87479C12.2339 4.05201 12.3334 4.29236 12.3334 4.54298V5.48794M12.3334 13.0476V13.9926C12.3334 14.2432 12.2339 14.4836 12.0568 14.6608C11.8797 14.838 11.6395 14.9376 11.389 14.9376H8.55575M1.71822 16.0621L7.38468 17.4795C7.52609 17.5146 7.67369 17.5164 7.81593 17.4849C7.95817 17.4534 8.0912 17.3894 8.2046 17.2978C8.318 17.2063 8.40871 17.0898 8.46963 16.9574C8.53055 16.825 8.56002 16.6803 8.55575 16.5346V1.97268C8.56002 1.82697 8.53055 1.68225 8.46963 1.54983C8.40871 1.41742 8.318 1.3009 8.2046 1.20939C8.0912 1.11788 7.95817 1.05387 7.81593 1.02235C7.67369 0.990834 7.52609 0.992671 7.38468 1.02772L1.71822 2.44516C1.50867 2.4969 1.32316 2.61889 1.19257 2.79082C1.06198 2.96276 0.994179 3.17426 1.00046 3.39013V15.1455C1.00063 15.3565 1.07139 15.5614 1.20147 15.7275C1.33155 15.8937 1.51347 16.0114 1.71822 16.0621Z" stroke="white" stroke-linecap="round" stroke-linejoin="round"/>
<path d="M15.1667 12.087L18 9.25362M18 9.25362L15.1667 6.42029M18 9.25362H12.3333" stroke="white" stroke-linecap="round" stroke-linejoin="round"/>
</svg>
