<svg width="15" height="21" viewBox="0 0 15 21" fill="none" xmlns="http://www.w3.org/2000/svg">
<path d="M10.2831 17.2035C10.0134 18.395 9.10555 19.3596 7.86317 19.6372C6.08989 20.0026 4.51454 18.8744 4.19092 17.2035H10.2831Z" stroke="#424242" stroke-width="1.7"/>
<path d="M11.3023 12.4908L11.2792 12.5369L11.2619 12.5854L10.8213 13.8156H3.46279L3.05065 12.6648C3.03442 12.5863 3.01124 12.5195 2.98945 12.4668C2.95253 12.3774 2.90867 12.303 2.88414 12.2622C2.86365 12.2282 2.84792 12.2028 2.83483 12.1817C2.8082 12.1388 2.79254 12.1135 2.77017 12.0689L2.75204 12.0328L2.73057 11.9985C2.48153 11.6012 2.02787 10.8221 1.62629 9.89609C1.22294 8.96598 0.899407 7.94908 0.85003 7.04736C0.854817 5.3427 1.42505 3.80416 2.586 2.73555L2.5985 2.72404L2.61053 2.71205C3.82268 1.50334 5.40381 0.85 7.19492 0.85C8.94713 0.85 10.5377 1.57993 11.7788 2.71256C12.9047 3.93953 13.5399 5.41775 13.5399 7.06902C13.5399 7.94621 13.2257 8.95001 12.7978 9.87857C12.3873 10.7696 11.9066 11.5176 11.6196 11.9052C11.4851 12.0571 11.4186 12.2063 11.379 12.3049C11.3639 12.3427 11.3539 12.369 11.3459 12.3898C11.3307 12.4295 11.3231 12.4494 11.3023 12.4908Z" stroke="#575757" stroke-width="1.7"/>
</svg>
